<svg xmlns="http://www.w3.org/2000/svg" viewBox="0 0 920 540" font-family="PingFang SC,Microsoft YaHei,sans-serif">
  <rect width="920" height="540" fill="#f6f7f9"/>
  <text x="40" y="46" font-size="20" font-weight="700" fill="#0f172a">需求澄清流水线</text>
  <text x="40" y="70" font-size="12" fill="#64748b">企业协作 · configuration · 数据 outputs/07_skills/pm_skills.md（46 行，异常 0）</text>
  <text x="40" y="90" font-size="11" fill="#94a3b8">读图顺序：先看指标链 → 再看异常队列与责任对象 → 最后看行动入口与验收边界</text>
  
   <rect x="40" y="96" width="156" height="72" rx="10" fill="#ffffff" stroke="#e5e7eb"/>
   <text x="52" y="120" font-size="11" fill="#94a3b8">触发条件覆盖率</text>
   <text x="52" y="150" font-size="22" font-weight="700" fill="#0f172a">22%</text>
   <rect x="212" y="96" width="156" height="72" rx="10" fill="#ffffff" stroke="#e5e7eb"/>
   <text x="224" y="120" font-size="11" fill="#94a3b8">输入处理时长</text>
   <text x="224" y="150" font-size="22" font-weight="700" fill="#0f172a">33</text>
   <rect x="384" y="96" width="156" height="72" rx="10" fill="#ffffff" stroke="#e5e7eb"/>
   <text x="396" y="120" font-size="11" fill="#94a3b8">澄清问题异常数</text>
   <text x="396" y="150" font-size="22" font-weight="700" fill="#0f172a">44</text>
   <rect x="556" y="96" width="156" height="72" rx="10" fill="#ffffff" stroke="#e5e7eb"/>
   <text x="568" y="120" font-size="11" fill="#94a3b8">PRD 片段完成率</text>
   <text x="568" y="150" font-size="22" font-weight="700" fill="#0f172a">55%</text>
   <rect x="728" y="96" width="156" height="72" rx="10" fill="#ffffff" stroke="#e5e7eb"/>
   <text x="740" y="120" font-size="11" fill="#94a3b8">验收标准复核通过率</text>
   <text x="740" y="150" font-size="22" font-weight="700" fill="#0f172a">66%</text>
  <text x="40" y="216" font-size="12" font-weight="600" fill="#334155">异常队列 · 责任对象</text>
  <text x="560" y="216" font-size="12" font-weight="600" fill="#334155">行动入口</text>
  
  <text x="560" y="300" font-size="11" fill="#64748b" width="320">决策动作：</text>
  <foreignObject x="560" y="286" width="320" height="120"><div xmlns="http://www.w3.org/1999/xhtml" style="font-size:11px;color:#475569;line-height:1.5">决策动作：围绕需求澄清 Skill判断优先级、责任人和验收动作。<br/>风险边界：不得把 Skill 写成不可验证的长文本</div></foreignObject>
  
  <text x="40" y="524" font-size="10.5" fill="#cbd5e1">UI 原型 ui_38_pm_skill_pipeline · Skill skill-builder + skill-validator + acceptance-criteria</text>
</svg>