<svg xmlns="http://www.w3.org/2000/svg" viewBox="0 0 920 540" font-family="PingFang SC,Microsoft YaHei,sans-serif">
  <rect width="920" height="540" fill="#f6f7f9"/>
  <text x="40" y="46" font-size="20" font-weight="700" fill="#0f172a">零售经营驾驶舱</text>
  <text x="40" y="70" font-size="12" fill="#64748b">零售经营 · record_detail · 数据 dataset/order_data.csv（1200 行，异常 225）</text>
  <text x="40" y="90" font-size="11" fill="#94a3b8">读图顺序：先看指标链 → 再看异常队列与责任对象 → 最后看行动入口与验收边界</text>
  
   <rect x="40" y="96" width="156" height="72" rx="10" fill="#ffffff" stroke="#e5e7eb"/>
   <text x="52" y="120" font-size="11" fill="#94a3b8">需求卡覆盖率</text>
   <text x="52" y="150" font-size="22" font-weight="700" fill="#0f172a">15%</text>
   <rect x="212" y="96" width="156" height="72" rx="10" fill="#ffffff" stroke="#e5e7eb"/>
   <text x="224" y="120" font-size="11" fill="#94a3b8">页面目标处理时长</text>
   <text x="224" y="150" font-size="22" font-weight="700" fill="#0f172a">0</text>
   <rect x="384" y="96" width="156" height="72" rx="10" fill="#ffffff" stroke="#e5e7eb"/>
   <text x="396" y="120" font-size="11" fill="#94a3b8">组件异常数</text>
   <text x="396" y="150" font-size="22" font-weight="700" fill="#0f172a">225</text>
   <rect x="556" y="96" width="156" height="72" rx="10" fill="#ffffff" stroke="#e5e7eb"/>
   <text x="568" y="120" font-size="11" fill="#94a3b8">字段完成率</text>
   <text x="568" y="150" font-size="22" font-weight="700" fill="#0f172a">17%</text>
   <rect x="728" y="96" width="156" height="72" rx="10" fill="#ffffff" stroke="#e5e7eb"/>
   <text x="740" y="120" font-size="11" fill="#94a3b8">状态复核通过率</text>
   <text x="740" y="150" font-size="22" font-weight="700" fill="#0f172a">21%</text>
  <text x="40" y="216" font-size="12" font-weight="600" fill="#334155">异常队列 · 责任对象</text>
  <text x="560" y="216" font-size="12" font-weight="600" fill="#334155">行动入口</text>
  
   <rect x="40" y="232" width="500" height="34" rx="7" fill="#f8fafc" stroke="#eef1f4"/>
   <rect x="52" y="240" width="74" height="18" rx="5" fill="#fee2e2"/>
   <text x="60" y="253" font-size="10.5" fill="#b91c1c" font-weight="600">字段缺失</text>
   <text x="140" y="253" font-size="11" fill="#475569">22685.91 · 运营-李</text>
   <rect x="40" y="272" width="500" height="34" rx="7" fill="#f8fafc" stroke="#eef1f4"/>
   <rect x="52" y="280" width="74" height="18" rx="5" fill="#fee2e2"/>
   <text x="60" y="293" font-size="10.5" fill="#b91c1c" font-weight="600">流程超时</text>
   <text x="140" y="293" font-size="11" fill="#475569">1858.1 · 产品-王</text>
   <rect x="40" y="312" width="500" height="34" rx="7" fill="#f8fafc" stroke="#eef1f4"/>
   <rect x="52" y="320" width="74" height="18" rx="5" fill="#fee2e2"/>
   <text x="60" y="333" font-size="10.5" fill="#b91c1c" font-weight="600">复核未完成</text>
   <text x="140" y="333" font-size="11" fill="#475569">5380.32 · 风控-赵</text>
   <rect x="40" y="352" width="500" height="34" rx="7" fill="#f8fafc" stroke="#eef1f4"/>
   <rect x="52" y="360" width="74" height="18" rx="5" fill="#fee2e2"/>
   <text x="60" y="373" font-size="10.5" fill="#b91c1c" font-weight="600">验收失败</text>
   <text x="140" y="373" font-size="11" fill="#475569">2296.59 · 客服-陈</text>
   <rect x="40" y="392" width="500" height="34" rx="7" fill="#f8fafc" stroke="#eef1f4"/>
   <rect x="52" y="400" width="74" height="18" rx="5" fill="#fee2e2"/>
   <text x="60" y="413" font-size="10.5" fill="#b91c1c" font-weight="600">字段缺失</text>
   <text x="140" y="413" font-size="11" fill="#475569">26717.44 · 供应链-孙</text>
   <rect x="560" y="232" width="106" height="40" rx="9" fill="#4f46e5"/>
   <text x="572" y="257" font-size="11" fill="#fff" font-weight="600">处置：字段缺失</text>
   <rect x="678" y="232" width="106" height="40" rx="9" fill="#4f46e5"/>
   <text x="690" y="257" font-size="11" fill="#fff" font-weight="600">处置：流程超时</text>
   <rect x="796" y="232" width="106" height="40" rx="9" fill="#4f46e5"/>
   <text x="808" y="257" font-size="11" fill="#fff" font-weight="600">处置：复核未完成</text>
  <text x="560" y="300" font-size="11" fill="#64748b" width="320">决策动作：</text>
  <foreignObject x="560" y="286" width="320" height="120"><div xmlns="http://www.w3.org/1999/xhtml" style="font-size:11px;color:#475569;line-height:1.5">决策动作：围绕零售经营原型判断优先级、责任人和验收动作。<br/>风险边界：不得用页面效果替代字段和验收</div></foreignObject>
  
  <text x="40" y="524" font-size="10.5" fill="#cbd5e1">UI 原型 ui_35_retail_vibe_prototype · Skill vibe-coding + ui-prompt-card + prototype-test</text>
</svg>