<svg xmlns="http://www.w3.org/2000/svg" viewBox="0 0 960 560" font-family="PingFang SC,Microsoft YaHei,sans-serif">
  <defs><linearGradient id="bg" x1="0" y1="0" x2="1" y2="1"><stop offset="0" stop-color="#0c0e11"/><stop offset="1" stop-color="#101318"/></linearGradient>
  <pattern id="grid" width="26" height="26" patternUnits="userSpaceOnUse"><path d="M26 0H0V26" fill="none" stroke="#1c222b" stroke-width="1"/></pattern></defs>
  <rect width="960" height="560" fill="url(#bg)"/><rect width="960" height="560" fill="url(#grid)" opacity="0.5"/>
  <text x="40" y="50" font-size="21" font-weight="750" fill="#e8ecf1">零售经营驾驶舱</text>
  <text x="40" y="74" font-size="12" fill="#a2adbb">零售经营 · record_detail · 设计 steel-queue · 数据 dataset/order_data.csv（1200 行，异常 225）</text>
  <text x="40" y="96" font-size="11" fill="#606b7a">读图顺序：指标链 → 异常队列与责任对象 → 行动入口与验收边界</text>
  
   <rect x="40" y="104" width="162" height="76" rx="10" fill="#161a20" stroke="#28303c"/>
   <rect x="40" y="104" width="162" height="2" fill="#60a5fa"/>
   <text x="52" y="128" font-size="11" fill="#606b7a">需求卡覆盖率</text>
   <text x="52" y="160" font-size="23" font-weight="750" fill="#e8ecf1">15%</text>
   <rect x="218" y="104" width="162" height="76" rx="10" fill="#161a20" stroke="#28303c"/>
   <rect x="218" y="104" width="162" height="2" fill="#60a5fa"/>
   <text x="230" y="128" font-size="11" fill="#606b7a">页面目标处理时长</text>
   <text x="230" y="160" font-size="23" font-weight="750" fill="#e8ecf1">0</text>
   <rect x="396" y="104" width="162" height="76" rx="10" fill="#161a20" stroke="#28303c"/>
   <rect x="396" y="104" width="162" height="2" fill="#60a5fa"/>
   <text x="408" y="128" font-size="11" fill="#606b7a">组件异常数</text>
   <text x="408" y="160" font-size="23" font-weight="750" fill="#e8ecf1">225</text>
   <rect x="574" y="104" width="162" height="76" rx="10" fill="#161a20" stroke="#28303c"/>
   <rect x="574" y="104" width="162" height="2" fill="#60a5fa"/>
   <text x="586" y="128" font-size="11" fill="#606b7a">字段完成率</text>
   <text x="586" y="160" font-size="23" font-weight="750" fill="#e8ecf1">17%</text>
   <rect x="752" y="104" width="162" height="76" rx="10" fill="#161a20" stroke="#28303c"/>
   <rect x="752" y="104" width="162" height="2" fill="#60a5fa"/>
   <text x="764" y="128" font-size="11" fill="#606b7a">状态复核通过率</text>
   <text x="764" y="160" font-size="23" font-weight="750" fill="#e8ecf1">21%</text>
  <text x="40" y="230" font-size="12" font-weight="600" fill="#e8ecf1">异常队列 · 责任对象</text>
  <text x="592" y="230" font-size="12" font-weight="600" fill="#e8ecf1">行动入口</text>
  
   <rect x="40" y="248" width="520" height="34" rx="7" fill="#12151b" stroke="#28303c"/>
   <rect x="52" y="256" width="78" height="18" rx="5" fill="#f87171" opacity="0.22"/>
   <text x="60" y="269" font-size="10.5" fill="#f87171" font-weight="700">字段缺失</text>
   <text x="144" y="269" font-size="11" fill="#a2adbb">22685.91 · 运营-李</text>
   <rect x="40" y="290" width="520" height="34" rx="7" fill="#12151b" stroke="#28303c"/>
   <rect x="52" y="298" width="78" height="18" rx="5" fill="#f87171" opacity="0.22"/>
   <text x="60" y="311" font-size="10.5" fill="#f87171" font-weight="700">流程超时</text>
   <text x="144" y="311" font-size="11" fill="#a2adbb">1858.1 · 产品-王</text>
   <rect x="40" y="332" width="520" height="34" rx="7" fill="#12151b" stroke="#28303c"/>
   <rect x="52" y="340" width="78" height="18" rx="5" fill="#f87171" opacity="0.22"/>
   <text x="60" y="353" font-size="10.5" fill="#f87171" font-weight="700">复核未完成</text>
   <text x="144" y="353" font-size="11" fill="#a2adbb">5380.32 · 风控-赵</text>
   <rect x="40" y="374" width="520" height="34" rx="7" fill="#12151b" stroke="#28303c"/>
   <rect x="52" y="382" width="78" height="18" rx="5" fill="#f87171" opacity="0.22"/>
   <text x="60" y="395" font-size="10.5" fill="#f87171" font-weight="700">验收失败</text>
   <text x="144" y="395" font-size="11" fill="#a2adbb">2296.59 · 客服-陈</text>
   <rect x="40" y="416" width="520" height="34" rx="7" fill="#12151b" stroke="#28303c"/>
   <rect x="52" y="424" width="78" height="18" rx="5" fill="#f87171" opacity="0.22"/>
   <text x="60" y="437" font-size="10.5" fill="#f87171" font-weight="700">字段缺失</text>
   <text x="144" y="437" font-size="11" fill="#a2adbb">26717.44 · 供应链-孙</text>
   <rect x="592" y="248" width="110" height="42" rx="9" fill="#60a5fa"/>
   <text x="604" y="273" font-size="11" fill="#04121a" font-weight="700">处置：字段缺失</text>
   <rect x="714" y="248" width="110" height="42" rx="9" fill="#60a5fa"/>
   <text x="726" y="273" font-size="11" fill="#04121a" font-weight="700">处置：流程超时</text>
   <rect x="836" y="248" width="110" height="42" rx="9" fill="#60a5fa"/>
   <text x="848" y="273" font-size="11" fill="#04121a" font-weight="700">处置：复核未完成</text>
  <foreignObject x="592" y="308" width="330" height="150"><div xmlns="http://www.w3.org/1999/xhtml" style="font-size:11px;color:#a2adbb;line-height:1.6">决策动作：围绕零售经营原型判断优先级、责任人和验收动作。<br/>风险边界：不得用页面效果替代字段和验收</div></foreignObject>
  
  <text x="40" y="544" font-size="10.5" fill="#606b7a">UI 原型 ui_35_retail_vibe_prototype · 演示原理 1.3 · 3.3 · Skill vibe-coding + ui-prompt-card + prototype-test</text>
</svg>