<svg xmlns="http://www.w3.org/2000/svg" viewBox="0 0 1000 620" font-family="PingFang SC,Microsoft YaHei,sans-serif">
  <defs>
    <linearGradient id="bg" x1="0" y1="0" x2="1" y2="1"><stop offset="0" stop-color="#0a0e14"/><stop offset="1" stop-color="#0d1220"/></linearGradient>
    <linearGradient id="acc" x1="0" y1="0" x2="1" y2="0"><stop offset="0" stop-color="#22d3ee"/><stop offset="1" stop-color="#38bdf8"/></linearGradient>
    <pattern id="grid" width="28" height="28" patternUnits="userSpaceOnUse"><path d="M28 0H0V28" fill="none" stroke="#16202e" stroke-width="1"/></pattern>
    <filter id="glow"><feGaussianBlur stdDeviation="2.4" result="b"/><feMerge><feMergeNode in="b"/><feMergeNode in="SourceGraphic"/></feMerge></filter>
  </defs>
  <rect width="1000" height="620" fill="url(#bg)"/><rect width="1000" height="620" fill="url(#grid)" opacity="0.4"/>
  <rect x="0" y="0" width="1000" height="92" fill="#121826" opacity="0.45"/>
  <rect x="36" y="28" width="4" height="36" rx="2" fill="url(#acc)"/>
  <text x="50" y="46" font-size="22" font-weight="750" fill="#e6edf6">会员积分增长方案</text>
  <text x="50" y="70" font-size="11.5" fill="#9fb0c3">会员增长 · hr_efficiency_screen · 数据 dataset/ex-17-RFM.csv（800 行 · 异常 10）</text>
  <rect x="742" y="26" width="222" height="22" rx="11" fill="#0f1522" stroke="#1e2a3a"/><text x="853" y="41" font-size="10" fill="#22d3ee" text-anchor="middle">设计 graphite-hud · 能力智能·增长</text>
  <text x="964" y="70" font-size="9.5" fill="#5b6b7f" text-anchor="end">读图：指标链 → 异常队列/责任 → 行动/验收</text>
  <rect x="36" y="116" width="176" height="82" rx="11" fill="#121826" stroke="#1e2a3a"/>
    <rect x="36" y="116" width="176" height="3" rx="1.5" fill="url(#acc)"/>
    <circle cx="56" cy="139" r="7" fill="none" stroke="#22d3ee" stroke-width="1.5"/><circle cx="56" cy="139" r="2.5" fill="#22d3ee"/>
    <text x="70" y="143" font-size="10.5" fill="#5b6b7f">会员数</text>
    <text x="50" y="176" font-size="24" font-weight="750" fill="#e6edf6">800<tspan font-size="12" fill="#5b6b7f"></tspan></text>
    <rect x="226" y="116" width="176" height="82" rx="11" fill="#121826" stroke="#1e2a3a"/>
    <rect x="226" y="116" width="176" height="3" rx="1.5" fill="url(#acc)"/>
    <circle cx="246" cy="139" r="7" fill="none" stroke="#22d3ee" stroke-width="1.5"/><circle cx="246" cy="139" r="2.5" fill="#22d3ee"/>
    <text x="260" y="143" font-size="10.5" fill="#5b6b7f">活跃(近购≤30)</text>
    <text x="240" y="176" font-size="24" font-weight="750" fill="#e6edf6">8.6<tspan font-size="12" fill="#5b6b7f">%</tspan></text>
    <rect x="416" y="116" width="176" height="82" rx="11" fill="#121826" stroke="#1e2a3a"/>
    <rect x="416" y="116" width="176" height="3" rx="1.5" fill="url(#acc)"/>
    <circle cx="436" cy="139" r="7" fill="none" stroke="#22d3ee" stroke-width="1.5"/><circle cx="436" cy="139" r="2.5" fill="#22d3ee"/>
    <text x="450" y="143" font-size="10.5" fill="#5b6b7f">高频(≥3)率</text>
    <text x="430" y="176" font-size="24" font-weight="750" fill="#e6edf6">96.9<tspan font-size="12" fill="#5b6b7f">%</tspan></text>
    <rect x="606" y="116" width="176" height="82" rx="11" fill="#121826" stroke="#1e2a3a"/>
    <rect x="606" y="116" width="176" height="3" rx="1.5" fill="url(#acc)"/>
    <circle cx="626" cy="139" r="7" fill="none" stroke="#22d3ee" stroke-width="1.5"/><circle cx="626" cy="139" r="2.5" fill="#22d3ee"/>
    <text x="640" y="143" font-size="10.5" fill="#5b6b7f">消费金额均值(元)</text>
    <text x="620" y="176" font-size="24" font-weight="750" fill="#e6edf6">25284.02<tspan font-size="12" fill="#5b6b7f"></tspan></text>
    <rect x="796" y="116" width="176" height="82" rx="11" fill="#121826" stroke="#1e2a3a"/>
    <rect x="796" y="116" width="176" height="3" rx="1.5" fill="url(#acc)"/>
    <circle cx="816" cy="139" r="7" fill="none" stroke="#22d3ee" stroke-width="1.5"/><circle cx="816" cy="139" r="2.5" fill="#22d3ee"/>
    <text x="830" y="143" font-size="10.5" fill="#5b6b7f">分层数</text>
    <text x="810" y="176" font-size="24" font-weight="750" fill="#e6edf6">5<tspan font-size="12" fill="#5b6b7f"></tspan></text>
    
  <rect x="24" y="216" width="476" height="230" rx="12" fill="#121826" stroke="#1e2a3a"/>
  <text x="40" y="240" font-size="12.5" font-weight="650" fill="#e6edf6">指标趋势 / 结构</text><rect x="40" y="246" width="28" height="2" fill="#22d3ee"/>
  <text x="484" y="240" font-size="9.5" fill="#5b6b7f" text-anchor="end">经营｜企业经营驾驶舱大屏</text>
  <line x1="44" y1="373.0" x2="476" y2="373.0" stroke="#16202e" stroke-dasharray="2 3"/><line x1="44" y1="336.0" x2="476" y2="336.0" stroke="#16202e" stroke-dasharray="2 3"/><line x1="44" y1="299.0" x2="476" y2="299.0" stroke="#16202e" stroke-dasharray="2 3"/><line x1="44" y1="262.0" x2="476" y2="262.0" stroke="#16202e" stroke-dasharray="2 3"/><line x1="44" y1="410" x2="476" y2="410" stroke="#1e2a3a"/><line x1="44" y1="262" x2="44" y2="410" stroke="#1e2a3a"/><rect x="50.0" y="281.5" width="60.0" height="128.5" rx="3" fill="#22d3ee" opacity="0.9"/><text x="80.0" y="277.5" font-size="8.5" fill="#9fb0c3" text-anchor="middle">79</text><text x="80.0" y="423" font-size="8" fill="#5b6b7f" text-anchor="middle">华东</text><rect x="120.0" y="262.0" width="60.0" height="148.0" rx="3" fill="#22d3ee" opacity="0.9"/><text x="150.0" y="258.0" font-size="8.5" fill="#9fb0c3" text-anchor="middle">91</text><text x="150.0" y="423" font-size="8" fill="#5b6b7f" text-anchor="middle">华北</text><rect x="190.0" y="304.3" width="60.0" height="105.7" rx="3" fill="#22d3ee" opacity="0.9"/><text x="220.0" y="300.3" font-size="8.5" fill="#9fb0c3" text-anchor="middle">65</text><text x="220.0" y="423" font-size="8" fill="#5b6b7f" text-anchor="middle">华南</text><rect x="260.0" y="273.4" width="60.0" height="136.6" rx="3" fill="#22d3ee" opacity="0.9"/><text x="290.0" y="269.4" font-size="8.5" fill="#9fb0c3" text-anchor="middle">84</text><text x="290.0" y="423" font-size="8" fill="#5b6b7f" text-anchor="middle">华中</text><rect x="330.0" y="309.2" width="60.0" height="100.8" rx="3" fill="#22d3ee" opacity="0.9"/><text x="360.0" y="305.2" font-size="8.5" fill="#9fb0c3" text-anchor="middle">62</text><text x="360.0" y="423" font-size="8" fill="#5b6b7f" text-anchor="middle">西南</text><rect x="400.0" y="327.1" width="60.0" height="82.9" rx="3" fill="#22d3ee" opacity="0.9"/><text x="430.0" y="323.1" font-size="8.5" fill="#9fb0c3" text-anchor="middle">51</text><text x="430.0" y="423" font-size="8" fill="#5b6b7f" text-anchor="middle">东北</text>
  <rect x="512" y="216" width="464" height="230" rx="12" fill="#121826" stroke="#1e2a3a"/>
  <text x="528" y="240" font-size="12.5" font-weight="650" fill="#e6edf6">异常队列 · 责任对象</text><rect x="528" y="246" width="28" height="2" fill="#fbbf24"/>
  <text x="960" y="240" font-size="9.5" fill="#5b6b7f" text-anchor="end">10 项 · 取前 5</text>
  
    <rect x="524" y="264" width="440" height="28" rx="7" fill="#0f1522" stroke="#1e2a3a"/>
    <rect x="532" y="271" width="4" height="14" rx="2" fill="#fbbf24"/>
    <rect x="544" y="270" width="70" height="16" rx="5" fill="#fbbf24" opacity="0.2"/><text x="550" y="282" font-size="9.5" fill="#fbbf24" font-weight="700">活跃下滑</text>
    <text x="624" y="282" font-size="10" fill="#9fb0c3">44</text>
    <rect x="884" y="270" width="72" height="16" rx="8" fill="#38bdf8" opacity="0.16"/><text x="920" y="282" font-size="9.5" fill="#38bdf8" text-anchor="middle">重要保持</text>
    <rect x="524" y="298" width="440" height="28" rx="7" fill="#0f1522" stroke="#1e2a3a"/>
    <rect x="532" y="305" width="4" height="14" rx="2" fill="#fbbf24"/>
    <rect x="544" y="304" width="70" height="16" rx="5" fill="#fbbf24" opacity="0.2"/><text x="550" y="316" font-size="9.5" fill="#fbbf24" font-weight="700">兑换异常</text>
    <text x="624" y="316" font-size="10" fill="#9fb0c3">39</text>
    <rect x="884" y="304" width="72" height="16" rx="8" fill="#38bdf8" opacity="0.16"/><text x="920" y="316" font-size="9.5" fill="#38bdf8" text-anchor="middle">重要价值</text>
    <rect x="524" y="332" width="440" height="28" rx="7" fill="#0f1522" stroke="#1e2a3a"/>
    <rect x="532" y="339" width="4" height="14" rx="2" fill="#38bdf8"/>
    <rect x="544" y="338" width="70" height="16" rx="5" fill="#38bdf8" opacity="0.2"/><text x="550" y="350" font-size="9.5" fill="#38bdf8" font-weight="700">疑似刷分</text>
    <text x="624" y="350" font-size="10" fill="#9fb0c3">56</text>
    <rect x="884" y="338" width="72" height="16" rx="8" fill="#38bdf8" opacity="0.16"/><text x="920" y="350" font-size="9.5" fill="#38bdf8" text-anchor="middle">重要保持</text>
    <rect x="524" y="366" width="440" height="28" rx="7" fill="#0f1522" stroke="#1e2a3a"/>
    <rect x="532" y="373" width="4" height="14" rx="2" fill="#fbbf24"/>
    <rect x="544" y="372" width="70" height="16" rx="5" fill="#fbbf24" opacity="0.2"/><text x="550" y="384" font-size="9.5" fill="#fbbf24" font-weight="700">留存预警</text>
    <text x="624" y="384" font-size="10" fill="#9fb0c3">34</text>
    <rect x="884" y="372" width="72" height="16" rx="8" fill="#38bdf8" opacity="0.16"/><text x="920" y="384" font-size="9.5" fill="#38bdf8" text-anchor="middle">重要保持</text>
    <rect x="524" y="400" width="440" height="28" rx="7" fill="#0f1522" stroke="#1e2a3a"/>
    <rect x="532" y="407" width="4" height="14" rx="2" fill="#fbbf24"/>
    <rect x="544" y="406" width="70" height="16" rx="5" fill="#fbbf24" opacity="0.2"/><text x="550" y="418" font-size="9.5" fill="#fbbf24" font-weight="700">活跃下滑</text>
    <text x="624" y="418" font-size="10" fill="#9fb0c3">32</text>
    <rect x="884" y="406" width="72" height="16" rx="8" fill="#38bdf8" opacity="0.16"/><text x="920" y="418" font-size="9.5" fill="#38bdf8" text-anchor="middle">重要保持</text>
  <text x="36" y="479" font-size="10.5" fill="#5b6b7f">演示原理 2.7 · 3.1 · 4.1 · UI ui_42_member_growth_capstone · Skill growth-capstone + incentive-design + fraud-boundary</text>
  <text x="36" y="522" font-size="11" fill="#5b6b7f">行动入口 · 责任 · 时限</text>
  
    <rect x="36" y="548" width="168" height="46" rx="10" fill="url(#acc)"/>
    <text x="50" y="569" font-size="11.5" fill="#04121a" font-weight="750">处置：活跃下滑</text>
    <text x="50" y="584" font-size="9" fill="#04121a" opacity="0.75">数据-周 · 1d</text>
    <rect x="216" y="548" width="168" height="46" rx="10" fill="url(#acc)"/>
    <text x="230" y="569" font-size="11.5" fill="#04121a" font-weight="750">处置：兑换异常</text>
    <text x="230" y="584" font-size="9" fill="#04121a" opacity="0.75">运营-李 · 3d</text>
    <rect x="396" y="548" width="168" height="46" rx="10" fill="url(#acc)"/>
    <text x="410" y="569" font-size="11.5" fill="#04121a" font-weight="750">处置：疑似刷分</text>
    <text x="410" y="584" font-size="9" fill="#04121a" opacity="0.75">产品-王 · 5d</text>
  <rect x="588" y="510" width="388" height="88" rx="10" fill="#0f1522" stroke="#1e2a3a"/>
  <foreignObject x="602" y="516" width="360" height="76"><div xmlns="http://www.w3.org/1999/xhtml" style="font-size:10.5px;color:#9fb0c3;line-height:1.5">决策动作：从会员数据得出积分增长方案并保留反欺诈边界<br/>风险边界：不得设计可被刷分套利的机制、保留反欺诈复核</div></foreignObject>
</svg>