<svg xmlns="http://www.w3.org/2000/svg" viewBox="0 0 1000 620" font-family="PingFang SC,Microsoft YaHei,sans-serif">
  <defs>
    <linearGradient id="bg" x1="0" y1="0" x2="1" y2="1"><stop offset="0" stop-color="#0b0a06"/><stop offset="1" stop-color="#12100a"/></linearGradient>
    <linearGradient id="acc" x1="0" y1="0" x2="1" y2="0"><stop offset="0" stop-color="#f59e0b"/><stop offset="1" stop-color="#fbbf24"/></linearGradient>
    <pattern id="grid" width="28" height="28" patternUnits="userSpaceOnUse"><path d="M28 0H0V28" fill="none" stroke="#2a2110" stroke-width="1"/></pattern>
    <filter id="glow"><feGaussianBlur stdDeviation="2.4" result="b"/><feMerge><feMergeNode in="b"/><feMergeNode in="SourceGraphic"/></feMerge></filter>
  </defs>
  <rect width="1000" height="620" fill="url(#bg)"/><rect width="1000" height="620" fill="url(#grid)" opacity="0.4"/>
  <rect x="0" y="0" width="1000" height="92" fill="#17130b" opacity="0.45"/>
  <rect x="36" y="28" width="4" height="36" rx="2" fill="url(#acc)"/>
  <text x="50" y="46" font-size="22" font-weight="750" fill="#f6efe2">航班准点运营调度</text>
  <text x="50" y="70" font-size="11.5" fill="#c9b48f">航空运输 · sales_funnel_screen · 数据 dataset/product_cases/flights_ontime.csv（1500 行 · 异常 406）</text>
  <rect x="742" y="26" width="222" height="22" rx="11" fill="#141009" stroke="#3a2c14"/><text x="853" y="41" font-size="10" fill="#f59e0b" text-anchor="middle">设计 amber-funnel · 业务应用·决策</text>
  <text x="964" y="70" font-size="9.5" fill="#7a6640" text-anchor="end">读图：指标链 → 异常队列/责任 → 行动/验收</text>
  <rect x="36" y="116" width="176" height="82" rx="11" fill="#17130b" stroke="#3a2c14"/>
    <rect x="36" y="116" width="176" height="3" rx="1.5" fill="url(#acc)"/>
    <circle cx="56" cy="139" r="7" fill="none" stroke="#f59e0b" stroke-width="1.5"/><circle cx="56" cy="139" r="2.5" fill="#f59e0b"/>
    <text x="70" y="143" font-size="10.5" fill="#7a6640">航班数</text>
    <text x="50" y="176" font-size="24" font-weight="750" fill="#f6efe2">1500<tspan font-size="12" fill="#7a6640"></tspan></text>
    <rect x="226" y="116" width="176" height="82" rx="11" fill="#17130b" stroke="#3a2c14"/>
    <rect x="226" y="116" width="176" height="3" rx="1.5" fill="url(#acc)"/>
    <circle cx="246" cy="139" r="7" fill="none" stroke="#f59e0b" stroke-width="1.5"/><circle cx="246" cy="139" r="2.5" fill="#f59e0b"/>
    <text x="260" y="143" font-size="10.5" fill="#7a6640">延误率</text>
    <text x="240" y="176" font-size="24" font-weight="750" fill="#f6efe2">25.6<tspan font-size="12" fill="#7a6640">%</tspan></text>
    <rect x="416" y="116" width="176" height="82" rx="11" fill="#17130b" stroke="#3a2c14"/>
    <rect x="416" y="116" width="176" height="3" rx="1.5" fill="url(#acc)"/>
    <circle cx="436" cy="139" r="7" fill="none" stroke="#f59e0b" stroke-width="1.5"/><circle cx="436" cy="139" r="2.5" fill="#f59e0b"/>
    <text x="450" y="143" font-size="10.5" fill="#7a6640">取消率</text>
    <text x="430" y="176" font-size="24" font-weight="750" fill="#f6efe2">1.1<tspan font-size="12" fill="#7a6640">%</tspan></text>
    <rect x="606" y="116" width="176" height="82" rx="11" fill="#17130b" stroke="#3a2c14"/>
    <rect x="606" y="116" width="176" height="3" rx="1.5" fill="url(#acc)"/>
    <circle cx="626" cy="139" r="7" fill="none" stroke="#f59e0b" stroke-width="1.5"/><circle cx="626" cy="139" r="2.5" fill="#f59e0b"/>
    <text x="640" y="143" font-size="10.5" fill="#7a6640">城市数</text>
    <text x="620" y="176" font-size="24" font-weight="750" fill="#f6efe2">164<tspan font-size="12" fill="#7a6640"></tspan></text>
    <rect x="796" y="116" width="176" height="82" rx="11" fill="#17130b" stroke="#3a2c14"/>
    <rect x="796" y="116" width="176" height="3" rx="1.5" fill="url(#acc)"/>
    <circle cx="816" cy="139" r="7" fill="none" stroke="#f59e0b" stroke-width="1.5"/><circle cx="816" cy="139" r="2.5" fill="#f59e0b"/>
    <text x="830" y="143" font-size="10.5" fill="#7a6640">平均实际时效(h)</text>
    <text x="810" y="176" font-size="24" font-weight="750" fill="#f6efe2">2.33<tspan font-size="12" fill="#7a6640"></tspan></text>
    
  <rect x="24" y="216" width="476" height="230" rx="12" fill="#17130b" stroke="#3a2c14"/>
  <text x="40" y="240" font-size="12.5" font-weight="650" fill="#f6efe2">指标趋势 / 结构</text><rect x="40" y="246" width="28" height="2" fill="#f59e0b"/>
  <text x="484" y="240" font-size="9.5" fill="#7a6640" text-anchor="end">航空｜枢纽准点调度大屏</text>
  <line x1="44" y1="373.0" x2="476" y2="373.0" stroke="#2a2110" stroke-dasharray="2 3"/><line x1="44" y1="336.0" x2="476" y2="336.0" stroke="#2a2110" stroke-dasharray="2 3"/><line x1="44" y1="299.0" x2="476" y2="299.0" stroke="#2a2110" stroke-dasharray="2 3"/><line x1="44" y1="262.0" x2="476" y2="262.0" stroke="#2a2110" stroke-dasharray="2 3"/><line x1="44" y1="410" x2="476" y2="410" stroke="#3a2c14"/><line x1="44" y1="262" x2="44" y2="410" stroke="#3a2c14"/><rect x="50.0" y="314.5" width="50.0" height="95.5" rx="3" fill="#f59e0b" opacity="0.9"/><text x="75.0" y="310.5" font-size="8.5" fill="#c9b48f" text-anchor="middle">2</text><text x="75.0" y="423" font-size="8" fill="#7a6640" text-anchor="middle">Charl</text><rect x="110.0" y="314.5" width="50.0" height="95.5" rx="3" fill="#f59e0b" opacity="0.9"/><text x="135.0" y="310.5" font-size="8.5" fill="#c9b48f" text-anchor="middle">2</text><text x="135.0" y="423" font-size="8" fill="#7a6640" text-anchor="middle">Charl</text><rect x="170.0" y="343.2" width="50.0" height="66.8" rx="3" fill="#f59e0b" opacity="0.9"/><text x="195.0" y="339.2" font-size="8.5" fill="#c9b48f" text-anchor="middle">1.4</text><text x="195.0" y="423" font-size="8" fill="#7a6640" text-anchor="middle">Norfo</text><rect x="230.0" y="262.0" width="50.0" height="148.0" rx="3" fill="#f59e0b" opacity="0.9"/><text x="255.0" y="258.0" font-size="8.5" fill="#c9b48f" text-anchor="middle">3.1</text><text x="255.0" y="423" font-size="8" fill="#7a6640" text-anchor="middle">New Y</text><rect x="290.0" y="305.0" width="50.0" height="105.0" rx="3" fill="#f59e0b" opacity="0.9"/><text x="315.0" y="301.0" font-size="8.5" fill="#c9b48f" text-anchor="middle">2.2</text><text x="315.0" y="423" font-size="8" fill="#7a6640" text-anchor="middle">Fayet</text><rect x="350.0" y="319.3" width="50.0" height="90.7" rx="3" fill="#f59e0b" opacity="0.9"/><text x="375.0" y="315.3" font-size="8.5" fill="#c9b48f" text-anchor="middle">1.9</text><text x="375.0" y="423" font-size="8" fill="#7a6640" text-anchor="middle">Atlan</text><rect x="410.0" y="295.4" width="50.0" height="114.6" rx="3" fill="#f59e0b" opacity="0.9"/><text x="435.0" y="291.4" font-size="8.5" fill="#c9b48f" text-anchor="middle">2.4</text><text x="435.0" y="423" font-size="8" fill="#7a6640" text-anchor="middle">Minne</text>
  <rect x="512" y="216" width="464" height="230" rx="12" fill="#17130b" stroke="#3a2c14"/>
  <text x="528" y="240" font-size="12.5" font-weight="650" fill="#f6efe2">异常队列 · 责任对象</text><rect x="528" y="246" width="28" height="2" fill="#f59e0b"/>
  <text x="960" y="240" font-size="9.5" fill="#7a6640" text-anchor="end">406 项 · 取前 5</text>
  
    <rect x="524" y="264" width="440" height="28" rx="7" fill="#141009" stroke="#3a2c14"/>
    <rect x="532" y="271" width="4" height="14" rx="2" fill="#fbbf24"/>
    <rect x="544" y="270" width="70" height="16" rx="5" fill="#fbbf24" opacity="0.2"/><text x="550" y="282" font-size="9.5" fill="#fbbf24" font-weight="700">延误</text>
    <text x="624" y="282" font-size="10" fill="#c9b48f">FL100002</text>
    <rect x="884" y="270" width="72" height="16" rx="8" fill="#fbbf24" opacity="0.16"/><text x="920" y="282" font-size="9.5" fill="#fbbf24" text-anchor="middle">空管</text>
    <rect x="524" y="298" width="440" height="28" rx="7" fill="#141009" stroke="#3a2c14"/>
    <rect x="532" y="305" width="4" height="14" rx="2" fill="#fbbf24"/>
    <rect x="544" y="304" width="70" height="16" rx="5" fill="#fbbf24" opacity="0.2"/><text x="550" y="316" font-size="9.5" fill="#fbbf24" font-weight="700">延误</text>
    <text x="624" y="316" font-size="10" fill="#c9b48f">FL100003</text>
    <rect x="884" y="304" width="72" height="16" rx="8" fill="#fbbf24" opacity="0.16"/><text x="920" y="316" font-size="9.5" fill="#fbbf24" text-anchor="middle">航司</text>
    <rect x="524" y="332" width="440" height="28" rx="7" fill="#141009" stroke="#3a2c14"/>
    <rect x="532" y="339" width="4" height="14" rx="2" fill="#fbbf24"/>
    <rect x="544" y="338" width="70" height="16" rx="5" fill="#fbbf24" opacity="0.2"/><text x="550" y="350" font-size="9.5" fill="#fbbf24" font-weight="700">取消</text>
    <text x="624" y="350" font-size="10" fill="#c9b48f">FL100012</text>
    <rect x="884" y="338" width="72" height="16" rx="8" fill="#fbbf24" opacity="0.16"/><text x="920" y="350" font-size="9.5" fill="#fbbf24" text-anchor="middle">—</text>
    <rect x="524" y="366" width="440" height="28" rx="7" fill="#141009" stroke="#3a2c14"/>
    <rect x="532" y="373" width="4" height="14" rx="2" fill="#fbbf24"/>
    <rect x="544" y="372" width="70" height="16" rx="5" fill="#fbbf24" opacity="0.2"/><text x="550" y="384" font-size="9.5" fill="#fbbf24" font-weight="700">延误</text>
    <text x="624" y="384" font-size="10" fill="#c9b48f">FL100015</text>
    <rect x="884" y="372" width="72" height="16" rx="8" fill="#fbbf24" opacity="0.16"/><text x="920" y="384" font-size="9.5" fill="#fbbf24" text-anchor="middle">空管</text>
    <rect x="524" y="400" width="440" height="28" rx="7" fill="#141009" stroke="#3a2c14"/>
    <rect x="532" y="407" width="4" height="14" rx="2" fill="#fbbf24"/>
    <rect x="544" y="406" width="70" height="16" rx="5" fill="#fbbf24" opacity="0.2"/><text x="550" y="418" font-size="9.5" fill="#fbbf24" font-weight="700">延误</text>
    <text x="624" y="418" font-size="10" fill="#c9b48f">FL100017</text>
    <rect x="884" y="406" width="72" height="16" rx="8" fill="#fbbf24" opacity="0.16"/><text x="920" y="418" font-size="9.5" fill="#fbbf24" text-anchor="middle">前序航班晚到</text>
  <text x="36" y="479" font-size="10.5" fill="#7a6640">演示原理 3.4 · 4.1 · UI ui_14_logistics_change_control · Skill change-impact + release-risk + rollback-plan</text>
  <text x="36" y="522" font-size="11" fill="#7a6640">行动入口 · 责任 · 时限</text>
  
    <rect x="36" y="548" width="168" height="46" rx="10" fill="url(#acc)"/>
    <text x="50" y="569" font-size="11.5" fill="#04121a" font-weight="750">处置：航班延误</text>
    <text x="50" y="584" font-size="9" fill="#04121a" opacity="0.75">运营-李 · 1d</text>
    <rect x="216" y="548" width="168" height="46" rx="10" fill="url(#acc)"/>
    <text x="230" y="569" font-size="11.5" fill="#04121a" font-weight="750">处置：航班取消</text>
    <text x="230" y="584" font-size="9" fill="#04121a" opacity="0.75">产品-王 · 3d</text>
    <rect x="396" y="548" width="168" height="46" rx="10" fill="url(#acc)"/>
    <text x="410" y="569" font-size="11.5" fill="#04121a" font-weight="750">处置：航班备降</text>
    <text x="410" y="584" font-size="9" fill="#04121a" opacity="0.75">风控-赵 · 5d</text>
  <rect x="588" y="510" width="388" height="88" rx="10" fill="#141009" stroke="#3a2c14"/>
  <foreignObject x="602" y="516" width="360" height="76"><div xmlns="http://www.w3.org/1999/xhtml" style="font-size:10.5px;color:#c9b48f;line-height:1.5">决策动作：按起飞城市真算延误率/取消率与延误原因，排出高延误枢纽的增容/调度优先级。<br/>风险边界：增容/调度须基于真实延误数据，不得脱离数据拍板</div></foreignObject>
</svg>