<svg xmlns="http://www.w3.org/2000/svg" viewBox="0 0 960 560" font-family="PingFang SC,Microsoft YaHei,sans-serif">
  <defs><linearGradient id="bg" x1="0" y1="0" x2="1" y2="1"><stop offset="0" stop-color="#06110d"/><stop offset="1" stop-color="#08140f"/></linearGradient>
  <pattern id="grid" width="26" height="26" patternUnits="userSpaceOnUse"><path d="M26 0H0V26" fill="none" stroke="#123026" stroke-width="1"/></pattern></defs>
  <rect width="960" height="560" fill="url(#bg)"/><rect width="960" height="560" fill="url(#grid)" opacity="0.5"/>
  <text x="40" y="50" font-size="21" font-weight="750" fill="#e7f5ee">电商退换货履约</text>
  <text x="40" y="74" font-size="12" fill="#9ac4b2">电商售后 · workflow_pipeline · 设计 emerald-flow · 数据 dataset/product_cases/aicourse_ecommerce_orders.csv（1000 行，异常 799）</text>
  <text x="40" y="96" font-size="11" fill="#4f7a68">读图顺序：指标链 → 异常队列与责任对象 → 行动入口与验收边界</text>
  
   <rect x="40" y="104" width="162" height="76" rx="10" fill="#0c1a14" stroke="#17342a"/>
   <rect x="40" y="104" width="162" height="2" fill="#10b981"/>
   <text x="52" y="128" font-size="11" fill="#4f7a68">售后单覆盖率</text>
   <text x="52" y="160" font-size="23" font-weight="750" fill="#e7f5ee">64%</text>
   <rect x="218" y="104" width="162" height="76" rx="10" fill="#0c1a14" stroke="#17342a"/>
   <rect x="218" y="104" width="162" height="2" fill="#10b981"/>
   <text x="230" y="128" font-size="11" fill="#4f7a68">客服审核处理时长</text>
   <text x="230" y="160" font-size="23" font-weight="750" fill="#e7f5ee">8</text>
   <rect x="396" y="104" width="162" height="76" rx="10" fill="#0c1a14" stroke="#17342a"/>
   <rect x="396" y="104" width="162" height="2" fill="#10b981"/>
   <text x="408" y="128" font-size="11" fill="#4f7a68">仓库收货异常数</text>
   <text x="408" y="160" font-size="23" font-weight="750" fill="#e7f5ee">799</text>
   <rect x="574" y="104" width="162" height="76" rx="10" fill="#0c1a14" stroke="#17342a"/>
   <rect x="574" y="104" width="162" height="2" fill="#10b981"/>
   <text x="586" y="128" font-size="11" fill="#4f7a68">退款完成率</text>
   <text x="586" y="160" font-size="23" font-weight="750" fill="#e7f5ee">72%</text>
   <rect x="752" y="104" width="162" height="76" rx="10" fill="#0c1a14" stroke="#17342a"/>
   <rect x="752" y="104" width="162" height="2" fill="#10b981"/>
   <text x="764" y="128" font-size="11" fill="#4f7a68">补偿复核通过率</text>
   <text x="764" y="160" font-size="23" font-weight="750" fill="#e7f5ee">88%</text>
  <text x="40" y="230" font-size="12" font-weight="600" fill="#e7f5ee">异常队列 · 责任对象</text>
  <text x="592" y="230" font-size="12" font-weight="600" fill="#e7f5ee">行动入口</text>
  
   <rect x="40" y="248" width="520" height="34" rx="7" fill="#0a1712" stroke="#17342a"/>
   <rect x="52" y="256" width="78" height="18" rx="5" fill="#fb7185" opacity="0.22"/>
   <text x="60" y="269" font-size="10.5" fill="#fb7185" font-weight="700">字段缺失</text>
   <text x="144" y="269" font-size="11" fill="#9ac4b2">SKU1044 · 风控-赵</text>
   <rect x="40" y="290" width="520" height="34" rx="7" fill="#0a1712" stroke="#17342a"/>
   <rect x="52" y="298" width="78" height="18" rx="5" fill="#fb7185" opacity="0.22"/>
   <text x="60" y="311" font-size="10.5" fill="#fb7185" font-weight="700">流程超时</text>
   <text x="144" y="311" font-size="11" fill="#9ac4b2">SKU1090 · 客服-陈</text>
   <rect x="40" y="332" width="520" height="34" rx="7" fill="#0a1712" stroke="#17342a"/>
   <rect x="52" y="340" width="78" height="18" rx="5" fill="#fb7185" opacity="0.22"/>
   <text x="60" y="353" font-size="10.5" fill="#fb7185" font-weight="700">复核未完成</text>
   <text x="144" y="353" font-size="11" fill="#9ac4b2">SKU1095 · 供应链-孙</text>
   <rect x="40" y="374" width="520" height="34" rx="7" fill="#0a1712" stroke="#17342a"/>
   <rect x="52" y="382" width="78" height="18" rx="5" fill="#fb7185" opacity="0.22"/>
   <text x="60" y="395" font-size="10.5" fill="#fb7185" font-weight="700">验收失败</text>
   <text x="144" y="395" font-size="11" fill="#9ac4b2">SKU1009 · 数据-周</text>
   <rect x="40" y="416" width="520" height="34" rx="7" fill="#0a1712" stroke="#17342a"/>
   <rect x="52" y="424" width="78" height="18" rx="5" fill="#fb7185" opacity="0.22"/>
   <text x="60" y="437" font-size="10.5" fill="#fb7185" font-weight="700">字段缺失</text>
   <text x="144" y="437" font-size="11" fill="#9ac4b2">SKU1285 · 运营-李</text>
   <rect x="592" y="248" width="110" height="42" rx="9" fill="#10b981"/>
   <text x="604" y="273" font-size="11" fill="#04121a" font-weight="700">处置：字段缺失</text>
   <rect x="714" y="248" width="110" height="42" rx="9" fill="#10b981"/>
   <text x="726" y="273" font-size="11" fill="#04121a" font-weight="700">处置：流程超时</text>
   <rect x="836" y="248" width="110" height="42" rx="9" fill="#10b981"/>
   <text x="848" y="273" font-size="11" fill="#04121a" font-weight="700">处置：复核未完成</text>
  <foreignObject x="592" y="308" width="330" height="150"><div xmlns="http://www.w3.org/1999/xhtml" style="font-size:11px;color:#9ac4b2;line-height:1.6">决策动作：围绕退换货履约判断优先级、责任人和验收动作。<br/>风险边界：不得只增加按钮而不重构流程</div></foreignObject>
  
  <text x="40" y="544" font-size="10.5" fill="#4f7a68">UI 原型 ui_23_return_fulfillment_swimlane · 演示原理 2.3 · 2.5 · Skill process-redesign + service-blueprint + acceptance-mapping</text>
</svg>