<svg xmlns="http://www.w3.org/2000/svg" viewBox="0 0 1000 620" font-family="PingFang SC,Microsoft YaHei,sans-serif">
  <defs>
    <linearGradient id="bg" x1="0" y1="0" x2="1" y2="1"><stop offset="0" stop-color="#060b12"/><stop offset="1" stop-color="#0a1220"/></linearGradient>
    <linearGradient id="acc" x1="0" y1="0" x2="1" y2="0"><stop offset="0" stop-color="#06b6d4"/><stop offset="1" stop-color="#a855f7"/></linearGradient>
    <pattern id="grid" width="28" height="28" patternUnits="userSpaceOnUse"><path d="M28 0H0V28" fill="none" stroke="#142138" stroke-width="1"/></pattern>
    <filter id="glow"><feGaussianBlur stdDeviation="2.4" result="b"/><feMerge><feMergeNode in="b"/><feMergeNode in="SourceGraphic"/></feMerge></filter>
  </defs>
  <rect width="1000" height="620" fill="url(#bg)"/><rect width="1000" height="620" fill="url(#grid)" opacity="0.4"/>
  <rect x="0" y="0" width="1000" height="92" fill="#0c1626" opacity="0.45"/>
  <rect x="36" y="28" width="4" height="36" rx="2" fill="url(#acc)"/>
  <text x="50" y="46" font-size="22" font-weight="750" fill="#e8eefb">滞销 SKU 提醒</text>
  <text x="50" y="70" font-size="11.5" fill="#9fb2d4">电商运营 · configuration · 数据 dataset/sku.csv（300 行 · 异常 171）</text>
  <rect x="742" y="26" width="222" height="22" rx="11" fill="#0a1220" stroke="#1c2c46"/><text x="853" y="41" font-size="10" fill="#06b6d4" text-anchor="middle">设计 cyan-matrix · 业务应用·决策</text>
  <text x="964" y="70" font-size="9.5" fill="#566484" text-anchor="end">读图：指标链 → 异常队列/责任 → 行动/验收</text>
  <rect x="36" y="116" width="176" height="82" rx="11" fill="#0c1626" stroke="#1c2c46"/>
    <rect x="36" y="116" width="176" height="3" rx="1.5" fill="url(#acc)"/>
    <circle cx="56" cy="139" r="7" fill="none" stroke="#06b6d4" stroke-width="1.5"/><circle cx="56" cy="139" r="2.5" fill="#06b6d4"/>
    <text x="70" y="143" font-size="10.5" fill="#566484">SKU覆盖率</text>
    <text x="50" y="176" font-size="24" font-weight="750" fill="#e8eefb">63<tspan font-size="12" fill="#566484">%</tspan></text>
    <text x="198" y="176" font-size="11" fill="#34d399" text-anchor="end">▲2%</text><rect x="226" y="116" width="176" height="82" rx="11" fill="#0c1626" stroke="#1c2c46"/>
    <rect x="226" y="116" width="176" height="3" rx="1.5" fill="url(#acc)"/>
    <circle cx="246" cy="139" r="7" fill="none" stroke="#06b6d4" stroke-width="1.5"/><circle cx="246" cy="139" r="2.5" fill="#06b6d4"/>
    <text x="260" y="143" font-size="10.5" fill="#566484">品类处理时长</text>
    <text x="240" y="176" font-size="24" font-weight="750" fill="#e8eefb">0<tspan font-size="12" fill="#566484"></tspan></text>
    <text x="388" y="176" font-size="11" fill="#f472b6" text-anchor="end">▼2%</text><rect x="416" y="116" width="176" height="82" rx="11" fill="#0c1626" stroke="#1c2c46"/>
    <rect x="416" y="116" width="176" height="3" rx="1.5" fill="url(#acc)"/>
    <circle cx="436" cy="139" r="7" fill="none" stroke="#06b6d4" stroke-width="1.5"/><circle cx="436" cy="139" r="2.5" fill="#06b6d4"/>
    <text x="450" y="143" font-size="10.5" fill="#566484">销量异常数</text>
    <text x="430" y="176" font-size="24" font-weight="750" fill="#e8eefb">171<tspan font-size="12" fill="#566484"></tspan></text>
    <text x="578" y="176" font-size="11" fill="#34d399" text-anchor="end">▲2%</text><rect x="606" y="116" width="176" height="82" rx="11" fill="#0c1626" stroke="#1c2c46"/>
    <rect x="606" y="116" width="176" height="3" rx="1.5" fill="url(#acc)"/>
    <circle cx="626" cy="139" r="7" fill="none" stroke="#06b6d4" stroke-width="1.5"/><circle cx="626" cy="139" r="2.5" fill="#06b6d4"/>
    <text x="640" y="143" font-size="10.5" fill="#566484">库存完成率</text>
    <text x="620" y="176" font-size="24" font-weight="750" fill="#e8eefb">34<tspan font-size="12" fill="#566484">%</tspan></text>
    <text x="768" y="176" font-size="11" fill="#34d399" text-anchor="end">▲9%</text><rect x="796" y="116" width="176" height="82" rx="11" fill="#0c1626" stroke="#1c2c46"/>
    <rect x="796" y="116" width="176" height="3" rx="1.5" fill="url(#acc)"/>
    <circle cx="816" cy="139" r="7" fill="none" stroke="#06b6d4" stroke-width="1.5"/><circle cx="816" cy="139" r="2.5" fill="#06b6d4"/>
    <text x="830" y="143" font-size="10.5" fill="#566484">阈值复核通过率</text>
    <text x="810" y="176" font-size="24" font-weight="750" fill="#e8eefb">57<tspan font-size="12" fill="#566484">%</tspan></text>
    <text x="958" y="176" font-size="11" fill="#34d399" text-anchor="end">▲1%</text>
  <rect x="24" y="216" width="476" height="230" rx="12" fill="#0c1626" stroke="#1c2c46"/>
  <text x="40" y="240" font-size="12.5" font-weight="650" fill="#e8eefb">指标趋势 / 结构</text><rect x="40" y="246" width="28" height="2" fill="#06b6d4"/>
  <text x="484" y="240" font-size="9.5" fill="#566484" text-anchor="end">不适用，采用专业 SaaS 工作</text>
  <line x1="44" y1="373.0" x2="476" y2="373.0" stroke="#142138" stroke-dasharray="2 3"/><line x1="44" y1="336.0" x2="476" y2="336.0" stroke="#142138" stroke-dasharray="2 3"/><line x1="44" y1="299.0" x2="476" y2="299.0" stroke="#142138" stroke-dasharray="2 3"/><line x1="44" y1="262.0" x2="476" y2="262.0" stroke="#142138" stroke-dasharray="2 3"/><line x1="44" y1="410" x2="476" y2="410" stroke="#1c2c46"/><line x1="44" y1="262" x2="44" y2="410" stroke="#1c2c46"/><polygon points="44,410 44.0,390.7 83.3,410.0 122.5,313.5 161.8,371.4 201.1,397.1 240.4,307.0 279.6,262.0 318.9,345.7 358.2,281.3 397.5,352.1 436.7,390.7 476.0,307.0 476,410" fill="#06b6d4" opacity="0.12"/><polyline points="44.0,390.7 83.3,410.0 122.5,313.5 161.8,371.4 201.1,397.1 240.4,307.0 279.6,262.0 318.9,345.7 358.2,281.3 397.5,352.1 436.7,390.7 476.0,307.0" fill="none" stroke="#06b6d4" stroke-width="2.5" filter="url(#glow)"/><circle cx="44.0" cy="390.7" r="2.5" fill="#a855f7"/><circle cx="83.3" cy="410.0" r="2.5" fill="#a855f7"/><circle cx="122.5" cy="313.5" r="2.5" fill="#a855f7"/><circle cx="161.8" cy="371.4" r="2.5" fill="#a855f7"/><circle cx="201.1" cy="397.1" r="2.5" fill="#a855f7"/><circle cx="240.4" cy="307.0" r="2.5" fill="#a855f7"/><circle cx="279.6" cy="262.0" r="2.5" fill="#a855f7"/><circle cx="318.9" cy="345.7" r="2.5" fill="#a855f7"/><circle cx="358.2" cy="281.3" r="2.5" fill="#a855f7"/><circle cx="397.5" cy="352.1" r="2.5" fill="#a855f7"/><circle cx="436.7" cy="390.7" r="2.5" fill="#a855f7"/><circle cx="476.0" cy="307.0" r="2.5" fill="#a855f7"/>
  <rect x="512" y="216" width="464" height="230" rx="12" fill="#0c1626" stroke="#1c2c46"/>
  <text x="528" y="240" font-size="12.5" font-weight="650" fill="#e8eefb">异常队列 · 责任对象</text><rect x="528" y="246" width="28" height="2" fill="#fbbf24"/>
  <text x="960" y="240" font-size="9.5" fill="#566484" text-anchor="end">171 项 · 取前 5</text>
  
    <rect x="524" y="264" width="440" height="28" rx="7" fill="#0a1220" stroke="#1c2c46"/>
    <rect x="532" y="271" width="4" height="14" rx="2" fill="#a855f7"/>
    <rect x="544" y="270" width="70" height="16" rx="5" fill="#a855f7" opacity="0.2"/><text x="550" y="282" font-size="9.5" fill="#a855f7" font-weight="700">字段缺失</text>
    <text x="624" y="282" font-size="10" fill="#9fb2d4">SKU1003</text>
    <rect x="884" y="270" width="72" height="16" rx="8" fill="#a855f7" opacity="0.16"/><text x="920" y="282" font-size="9.5" fill="#a855f7" text-anchor="middle">客服-陈</text>
    <rect x="524" y="298" width="440" height="28" rx="7" fill="#0a1220" stroke="#1c2c46"/>
    <rect x="532" y="305" width="4" height="14" rx="2" fill="#f472b6"/>
    <rect x="544" y="304" width="70" height="16" rx="5" fill="#f472b6" opacity="0.2"/><text x="550" y="316" font-size="9.5" fill="#f472b6" font-weight="700">流程超时</text>
    <text x="624" y="316" font-size="10" fill="#9fb2d4">SKU1004</text>
    <rect x="884" y="304" width="72" height="16" rx="8" fill="#a855f7" opacity="0.16"/><text x="920" y="316" font-size="9.5" fill="#a855f7" text-anchor="middle">供应链-孙</text>
    <rect x="524" y="332" width="440" height="28" rx="7" fill="#0a1220" stroke="#1c2c46"/>
    <rect x="532" y="339" width="4" height="14" rx="2" fill="#34d399"/>
    <rect x="544" y="338" width="70" height="16" rx="5" fill="#34d399" opacity="0.2"/><text x="550" y="350" font-size="9.5" fill="#34d399" font-weight="700">复核未完成</text>
    <text x="624" y="350" font-size="10" fill="#9fb2d4">SKU1005</text>
    <rect x="884" y="338" width="72" height="16" rx="8" fill="#a855f7" opacity="0.16"/><text x="920" y="350" font-size="9.5" fill="#a855f7" text-anchor="middle">数据-周</text>
    <rect x="524" y="366" width="440" height="28" rx="7" fill="#0a1220" stroke="#1c2c46"/>
    <rect x="532" y="373" width="4" height="14" rx="2" fill="#f472b6"/>
    <rect x="544" y="372" width="70" height="16" rx="5" fill="#f472b6" opacity="0.2"/><text x="550" y="384" font-size="9.5" fill="#f472b6" font-weight="700">验收失败</text>
    <text x="624" y="384" font-size="10" fill="#9fb2d4">SKU1007</text>
    <rect x="884" y="372" width="72" height="16" rx="8" fill="#a855f7" opacity="0.16"/><text x="920" y="384" font-size="9.5" fill="#a855f7" text-anchor="middle">运营-李</text>
    <rect x="524" y="400" width="440" height="28" rx="7" fill="#0a1220" stroke="#1c2c46"/>
    <rect x="532" y="407" width="4" height="14" rx="2" fill="#a855f7"/>
    <rect x="544" y="406" width="70" height="16" rx="5" fill="#a855f7" opacity="0.2"/><text x="550" y="418" font-size="9.5" fill="#a855f7" font-weight="700">字段缺失</text>
    <text x="624" y="418" font-size="10" fill="#9fb2d4">SKU1009</text>
    <rect x="884" y="406" width="72" height="16" rx="8" fill="#a855f7" opacity="0.16"/><text x="920" y="418" font-size="9.5" fill="#a855f7" text-anchor="middle">产品-王</text>
  <text x="36" y="479" font-size="10.5" fill="#566484">演示原理 3.4 · 4.1 · UI ui_26_sku_prd_fields · Skill prd-fragment + acceptance-criteria + field-validation</text>
  <text x="36" y="522" font-size="11" fill="#566484">行动入口 · 责任 · 时限</text>
  
    <rect x="36" y="548" width="168" height="46" rx="10" fill="url(#acc)"/>
    <text x="50" y="569" font-size="11.5" fill="#04121a" font-weight="750">处置：字段缺失</text>
    <text x="50" y="584" font-size="9" fill="#04121a" opacity="0.75">客服-陈 · 1d</text>
    <rect x="216" y="548" width="168" height="46" rx="10" fill="url(#acc)"/>
    <text x="230" y="569" font-size="11.5" fill="#04121a" font-weight="750">处置：流程超时</text>
    <text x="230" y="584" font-size="9" fill="#04121a" opacity="0.75">供应链-孙 · 3d</text>
    <rect x="396" y="548" width="168" height="46" rx="10" fill="url(#acc)"/>
    <text x="410" y="569" font-size="11.5" fill="#04121a" font-weight="750">处置：复核未完成</text>
    <text x="410" y="584" font-size="9" fill="#04121a" opacity="0.75">数据-周 · 5d</text>
  <rect x="588" y="510" width="388" height="88" rx="10" fill="#0a1220" stroke="#1c2c46"/>
  <foreignObject x="602" y="516" width="360" height="76"><div xmlns="http://www.w3.org/1999/xhtml" style="font-size:10.5px;color:#9fb2d4;line-height:1.5">决策动作：围绕滞销提醒页面判断优先级、责任人和验收动作。<br/>风险边界：不得使用数据集中不存在的字段</div></foreignObject>
</svg>