<svg xmlns="http://www.w3.org/2000/svg" viewBox="0 0 1000 620" font-family="PingFang SC,Microsoft YaHei,sans-serif">
  <defs>
    <linearGradient id="bg" x1="0" y1="0" x2="1" y2="1"><stop offset="0" stop-color="#0c0e11"/><stop offset="1" stop-color="#101318"/></linearGradient>
    <linearGradient id="acc" x1="0" y1="0" x2="1" y2="0"><stop offset="0" stop-color="#60a5fa"/><stop offset="1" stop-color="#94a3b8"/></linearGradient>
    <pattern id="grid" width="28" height="28" patternUnits="userSpaceOnUse"><path d="M28 0H0V28" fill="none" stroke="#1c222b" stroke-width="1"/></pattern>
    <filter id="glow"><feGaussianBlur stdDeviation="2.4" result="b"/><feMerge><feMergeNode in="b"/><feMergeNode in="SourceGraphic"/></feMerge></filter>
  </defs>
  <rect width="1000" height="620" fill="url(#bg)"/><rect width="1000" height="620" fill="url(#grid)" opacity="0.4"/>
  <rect x="0" y="0" width="1000" height="92" fill="#161a20" opacity="0.45"/>
  <rect x="36" y="28" width="4" height="36" rx="2" fill="url(#acc)"/>
  <text x="50" y="46" font-size="22" font-weight="750" fill="#e8ecf1">政务材料预审服务</text>
  <text x="50" y="70" font-size="11.5" fill="#a2adbb">政务服务 · list_review · 数据 dataset/pm_network_cases/nyc_311_service_requests_5000.csv（1500 行 · 异常 407）</text>
  <rect x="742" y="26" width="222" height="22" rx="11" fill="#12151b" stroke="#28303c"/><text x="853" y="41" font-size="10" fill="#60a5fa" text-anchor="middle">设计 steel-queue · 业务应用·洞察</text>
  <text x="964" y="70" font-size="9.5" fill="#606b7a" text-anchor="end">读图：指标链 → 异常队列/责任 → 行动/验收</text>
  <rect x="36" y="116" width="176" height="82" rx="11" fill="#161a20" stroke="#28303c"/>
    <rect x="36" y="116" width="176" height="3" rx="1.5" fill="url(#acc)"/>
    <circle cx="56" cy="139" r="7" fill="none" stroke="#60a5fa" stroke-width="1.5"/><circle cx="56" cy="139" r="2.5" fill="#60a5fa"/>
    <text x="70" y="143" font-size="10.5" fill="#606b7a">办件数</text>
    <text x="50" y="176" font-size="24" font-weight="750" fill="#e8ecf1">1500<tspan font-size="12" fill="#606b7a"></tspan></text>
    <rect x="226" y="116" width="176" height="82" rx="11" fill="#161a20" stroke="#28303c"/>
    <rect x="226" y="116" width="176" height="3" rx="1.5" fill="url(#acc)"/>
    <circle cx="246" cy="139" r="7" fill="none" stroke="#60a5fa" stroke-width="1.5"/><circle cx="246" cy="139" r="2.5" fill="#60a5fa"/>
    <text x="260" y="143" font-size="10.5" fill="#606b7a">办结率</text>
    <text x="240" y="176" font-size="24" font-weight="750" fill="#e8ecf1">72.9<tspan font-size="12" fill="#606b7a">%</tspan></text>
    <rect x="416" y="116" width="176" height="82" rx="11" fill="#161a20" stroke="#28303c"/>
    <rect x="416" y="116" width="176" height="3" rx="1.5" fill="url(#acc)"/>
    <circle cx="436" cy="139" r="7" fill="none" stroke="#60a5fa" stroke-width="1.5"/><circle cx="436" cy="139" r="2.5" fill="#60a5fa"/>
    <text x="450" y="143" font-size="10.5" fill="#606b7a">机构数</text>
    <text x="430" y="176" font-size="24" font-weight="750" fill="#e8ecf1">5<tspan font-size="12" fill="#606b7a"></tspan></text>
    <rect x="606" y="116" width="176" height="82" rx="11" fill="#161a20" stroke="#28303c"/>
    <rect x="606" y="116" width="176" height="3" rx="1.5" fill="url(#acc)"/>
    <circle cx="626" cy="139" r="7" fill="none" stroke="#60a5fa" stroke-width="1.5"/><circle cx="626" cy="139" r="2.5" fill="#60a5fa"/>
    <text x="640" y="143" font-size="10.5" fill="#606b7a">投诉类型数</text>
    <text x="620" y="176" font-size="24" font-weight="750" fill="#e8ecf1">5<tspan font-size="12" fill="#606b7a"></tspan></text>
    <rect x="796" y="116" width="176" height="82" rx="11" fill="#161a20" stroke="#28303c"/>
    <rect x="796" y="116" width="176" height="3" rx="1.5" fill="url(#acc)"/>
    <circle cx="816" cy="139" r="7" fill="none" stroke="#60a5fa" stroke-width="1.5"/><circle cx="816" cy="139" r="2.5" fill="#60a5fa"/>
    <text x="830" y="143" font-size="10.5" fill="#606b7a">行政区数</text>
    <text x="810" y="176" font-size="24" font-weight="750" fill="#e8ecf1">5<tspan font-size="12" fill="#606b7a"></tspan></text>
    
  <rect x="24" y="216" width="476" height="230" rx="12" fill="#161a20" stroke="#28303c"/>
  <text x="40" y="240" font-size="12.5" font-weight="650" fill="#e8ecf1">指标趋势 / 结构</text><rect x="40" y="246" width="28" height="2" fill="#60a5fa"/>
  <text x="484" y="240" font-size="9.5" fill="#606b7a" text-anchor="end">不适用，采用专业 SaaS 工作</text>
  <line x1="44" y1="373.0" x2="476" y2="373.0" stroke="#1c222b" stroke-dasharray="2 3"/><line x1="44" y1="336.0" x2="476" y2="336.0" stroke="#1c222b" stroke-dasharray="2 3"/><line x1="44" y1="299.0" x2="476" y2="299.0" stroke="#1c222b" stroke-dasharray="2 3"/><line x1="44" y1="262.0" x2="476" y2="262.0" stroke="#1c222b" stroke-dasharray="2 3"/><line x1="44" y1="410" x2="476" y2="410" stroke="#28303c"/><line x1="44" y1="262" x2="44" y2="410" stroke="#28303c"/><polygon points="44,410 44.0,276.8 83.3,269.4 122.5,262.0 161.8,380.4 201.1,321.2 240.4,291.6 279.6,395.2 318.9,328.6 358.2,410.0 397.5,336.0 436.7,299.0 476.0,395.2 476,410" fill="#60a5fa" opacity="0.12"/><polyline points="44.0,276.8 83.3,269.4 122.5,262.0 161.8,380.4 201.1,321.2 240.4,291.6 279.6,395.2 318.9,328.6 358.2,410.0 397.5,336.0 436.7,299.0 476.0,395.2" fill="none" stroke="#60a5fa" stroke-width="2.5" filter="url(#glow)"/><circle cx="44.0" cy="276.8" r="2.5" fill="#94a3b8"/><circle cx="83.3" cy="269.4" r="2.5" fill="#94a3b8"/><circle cx="122.5" cy="262.0" r="2.5" fill="#94a3b8"/><circle cx="161.8" cy="380.4" r="2.5" fill="#94a3b8"/><circle cx="201.1" cy="321.2" r="2.5" fill="#94a3b8"/><circle cx="240.4" cy="291.6" r="2.5" fill="#94a3b8"/><circle cx="279.6" cy="395.2" r="2.5" fill="#94a3b8"/><circle cx="318.9" cy="328.6" r="2.5" fill="#94a3b8"/><circle cx="358.2" cy="410.0" r="2.5" fill="#94a3b8"/><circle cx="397.5" cy="336.0" r="2.5" fill="#94a3b8"/><circle cx="436.7" cy="299.0" r="2.5" fill="#94a3b8"/><circle cx="476.0" cy="395.2" r="2.5" fill="#94a3b8"/>
  <rect x="512" y="216" width="464" height="230" rx="12" fill="#161a20" stroke="#28303c"/>
  <text x="528" y="240" font-size="12.5" font-weight="650" fill="#e8ecf1">异常队列 · 责任对象</text><rect x="528" y="246" width="28" height="2" fill="#fbbf24"/>
  <text x="960" y="240" font-size="9.5" fill="#606b7a" text-anchor="end">407 项 · 取前 5</text>
  
    <rect x="524" y="264" width="440" height="28" rx="7" fill="#12151b" stroke="#28303c"/>
    <rect x="532" y="271" width="4" height="14" rx="2" fill="#94a3b8"/>
    <rect x="544" y="270" width="70" height="16" rx="5" fill="#94a3b8" opacity="0.2"/><text x="550" y="282" font-size="9.5" fill="#94a3b8" font-weight="700">字段缺失</text>
    <text x="624" y="282" font-size="10" fill="#a2adbb">2025-09-19</text>
    <rect x="884" y="270" width="72" height="16" rx="8" fill="#94a3b8" opacity="0.16"/><text x="920" y="282" font-size="9.5" fill="#94a3b8" text-anchor="middle">产品-王</text>
    <rect x="524" y="298" width="440" height="28" rx="7" fill="#12151b" stroke="#28303c"/>
    <rect x="532" y="305" width="4" height="14" rx="2" fill="#f87171"/>
    <rect x="544" y="304" width="70" height="16" rx="5" fill="#f87171" opacity="0.2"/><text x="550" y="316" font-size="9.5" fill="#f87171" font-weight="700">流程超时</text>
    <text x="624" y="316" font-size="10" fill="#a2adbb">2025-11-20</text>
    <rect x="884" y="304" width="72" height="16" rx="8" fill="#94a3b8" opacity="0.16"/><text x="920" y="316" font-size="9.5" fill="#94a3b8" text-anchor="middle">风控-赵</text>
    <rect x="524" y="332" width="440" height="28" rx="7" fill="#12151b" stroke="#28303c"/>
    <rect x="532" y="339" width="4" height="14" rx="2" fill="#34d399"/>
    <rect x="544" y="338" width="70" height="16" rx="5" fill="#34d399" opacity="0.2"/><text x="550" y="350" font-size="9.5" fill="#34d399" font-weight="700">复核未完成</text>
    <text x="624" y="350" font-size="10" fill="#a2adbb">2025-11-04</text>
    <rect x="884" y="338" width="72" height="16" rx="8" fill="#94a3b8" opacity="0.16"/><text x="920" y="350" font-size="9.5" fill="#94a3b8" text-anchor="middle">客服-陈</text>
    <rect x="524" y="366" width="440" height="28" rx="7" fill="#12151b" stroke="#28303c"/>
    <rect x="532" y="373" width="4" height="14" rx="2" fill="#f87171"/>
    <rect x="544" y="372" width="70" height="16" rx="5" fill="#f87171" opacity="0.2"/><text x="550" y="384" font-size="9.5" fill="#f87171" font-weight="700">验收失败</text>
    <text x="624" y="384" font-size="10" fill="#a2adbb">2025-12-22</text>
    <rect x="884" y="372" width="72" height="16" rx="8" fill="#94a3b8" opacity="0.16"/><text x="920" y="384" font-size="9.5" fill="#94a3b8" text-anchor="middle">供应链-孙</text>
    <rect x="524" y="400" width="440" height="28" rx="7" fill="#12151b" stroke="#28303c"/>
    <rect x="532" y="407" width="4" height="14" rx="2" fill="#94a3b8"/>
    <rect x="544" y="406" width="70" height="16" rx="5" fill="#94a3b8" opacity="0.2"/><text x="550" y="418" font-size="9.5" fill="#94a3b8" font-weight="700">字段缺失</text>
    <text x="624" y="418" font-size="10" fill="#a2adbb">2025-09-09</text>
    <rect x="884" y="406" width="72" height="16" rx="8" fill="#94a3b8" opacity="0.16"/><text x="920" y="418" font-size="9.5" fill="#94a3b8" text-anchor="middle">数据-周</text>
  <rect x="36" y="460" width="940" height="30" rx="8" fill="#fbbf24" opacity="0.14"/><text x="50" y="479" font-size="11" fill="#fbbf24">⚠ 高影响行业：保留人工复核，不得自动授信/处罚/诊断/拒绝交易</text>
  <text x="36" y="522" font-size="11" fill="#606b7a">行动入口 · 责任 · 时限</text>
  
    <rect x="36" y="548" width="168" height="46" rx="10" fill="url(#acc)"/>
    <text x="50" y="569" font-size="11.5" fill="#04121a" font-weight="750">处置：字段缺失</text>
    <text x="50" y="584" font-size="9" fill="#04121a" opacity="0.75">产品-王 · 1d</text>
    <rect x="216" y="548" width="168" height="46" rx="10" fill="url(#acc)"/>
    <text x="230" y="569" font-size="11.5" fill="#04121a" font-weight="750">处置：流程超时</text>
    <text x="230" y="584" font-size="9" fill="#04121a" opacity="0.75">风控-赵 · 3d</text>
    <rect x="396" y="548" width="168" height="46" rx="10" fill="url(#acc)"/>
    <text x="410" y="569" font-size="11.5" fill="#04121a" font-weight="750">处置：复核未完成</text>
    <text x="410" y="584" font-size="9" fill="#04121a" opacity="0.75">客服-陈 · 5d</text>
  <rect x="588" y="510" width="388" height="88" rx="10" fill="#12151b" stroke="#28303c"/>
  <foreignObject x="602" y="516" width="360" height="76"><div xmlns="http://www.w3.org/1999/xhtml" style="font-size:10.5px;color:#a2adbb;line-height:1.5">决策动作：围绕材料预审服务判断优先级、责任人和验收动作。<br/>风险边界：不得替代法定审批结论</div></foreignObject>
</svg>