<svg xmlns="http://www.w3.org/2000/svg" viewBox="0 0 960 560" font-family="PingFang SC,Microsoft YaHei,sans-serif">
  <defs><linearGradient id="bg" x1="0" y1="0" x2="1" y2="1"><stop offset="0" stop-color="#0b0a06"/><stop offset="1" stop-color="#12100a"/></linearGradient>
  <pattern id="grid" width="26" height="26" patternUnits="userSpaceOnUse"><path d="M26 0H0V26" fill="none" stroke="#2a2110" stroke-width="1"/></pattern></defs>
  <rect width="960" height="560" fill="url(#bg)"/><rect width="960" height="560" fill="url(#grid)" opacity="0.5"/>
  <text x="40" y="50" font-size="21" font-weight="750" fill="#f6efe2">物流异常派单扩城</text>
  <text x="40" y="74" font-size="12" fill="#c9b48f">物流配送 · sales_funnel_screen · 设计 amber-funnel · 数据 dataset/product_cases/aicourse_logistics_delivery.csv（700 行，异常 541）</text>
  <text x="40" y="96" font-size="11" fill="#7a6640">读图顺序：指标链 → 异常队列与责任对象 → 行动入口与验收边界</text>
  
   <rect x="40" y="104" width="162" height="76" rx="10" fill="#17130b" stroke="#3a2c14"/>
   <rect x="40" y="104" width="162" height="2" fill="#f59e0b"/>
   <text x="52" y="128" font-size="11" fill="#7a6640">线索数</text>
   <text x="52" y="160" font-size="23" font-weight="750" fill="#f6efe2">700</text>
   <rect x="218" y="104" width="162" height="76" rx="10" fill="#17130b" stroke="#3a2c14"/>
   <rect x="218" y="104" width="162" height="2" fill="#f59e0b"/>
   <text x="230" y="128" font-size="11" fill="#7a6640">商机转化率</text>
   <text x="230" y="160" font-size="23" font-weight="750" fill="#f6efe2">46%</text>
   <rect x="396" y="104" width="162" height="76" rx="10" fill="#17130b" stroke="#3a2c14"/>
   <rect x="396" y="104" width="162" height="2" fill="#f59e0b"/>
   <text x="408" y="128" font-size="11" fill="#7a6640">合同金额</text>
   <text x="408" y="160" font-size="23" font-weight="750" fill="#f6efe2">700</text>
   <rect x="574" y="104" width="162" height="76" rx="10" fill="#17130b" stroke="#3a2c14"/>
   <rect x="574" y="104" width="162" height="2" fill="#f59e0b"/>
   <text x="586" y="128" font-size="11" fill="#7a6640">回款率</text>
   <text x="586" y="160" font-size="23" font-weight="750" fill="#f6efe2">77%</text>
   <rect x="752" y="104" width="162" height="76" rx="10" fill="#17130b" stroke="#3a2c14"/>
   <rect x="752" y="104" width="162" height="2" fill="#f59e0b"/>
   <text x="764" y="128" font-size="11" fill="#7a6640">客户跟进超时数</text>
   <text x="764" y="160" font-size="23" font-weight="750" fill="#f6efe2">700</text>
  <text x="40" y="230" font-size="12" font-weight="600" fill="#f6efe2">异常队列 · 责任对象</text>
  <text x="592" y="230" font-size="12" font-weight="600" fill="#f6efe2">行动入口</text>
  
   <rect x="40" y="248" width="520" height="34" rx="7" fill="#141009" stroke="#3a2c14"/>
   <rect x="52" y="256" width="78" height="18" rx="5" fill="#f87171" opacity="0.22"/>
   <text x="60" y="269" font-size="10.5" fill="#f87171" font-weight="700">转化率下滑</text>
   <text x="144" y="269" font-size="11" fill="#c9b48f">上海 · 运营-李</text>
   <rect x="40" y="290" width="520" height="34" rx="7" fill="#141009" stroke="#3a2c14"/>
   <rect x="52" y="298" width="78" height="18" rx="5" fill="#f87171" opacity="0.22"/>
   <text x="60" y="311" font-size="10.5" fill="#f87171" font-weight="700">回款逾期</text>
   <text x="144" y="311" font-size="11" fill="#c9b48f">杭州 · 产品-王</text>
   <rect x="40" y="332" width="520" height="34" rx="7" fill="#141009" stroke="#3a2c14"/>
   <rect x="52" y="340" width="78" height="18" rx="5" fill="#f87171" opacity="0.22"/>
   <text x="60" y="353" font-size="10.5" fill="#f87171" font-weight="700">客户跟进超时</text>
   <text x="144" y="353" font-size="11" fill="#c9b48f">广州 · 风控-赵</text>
   <rect x="40" y="374" width="520" height="34" rx="7" fill="#141009" stroke="#3a2c14"/>
   <rect x="52" y="382" width="78" height="18" rx="5" fill="#f87171" opacity="0.22"/>
   <text x="60" y="395" font-size="10.5" fill="#f87171" font-weight="700">区域掉队</text>
   <text x="144" y="395" font-size="11" fill="#c9b48f">沈阳 · 客服-陈</text>
   <rect x="40" y="416" width="520" height="34" rx="7" fill="#141009" stroke="#3a2c14"/>
   <rect x="52" y="424" width="78" height="18" rx="5" fill="#f87171" opacity="0.22"/>
   <text x="60" y="437" font-size="10.5" fill="#f87171" font-weight="700">转化率下滑</text>
   <text x="144" y="437" font-size="11" fill="#c9b48f">北京 · 供应链-孙</text>
   <rect x="592" y="248" width="110" height="42" rx="9" fill="#f59e0b"/>
   <text x="604" y="273" font-size="11" fill="#04121a" font-weight="700">处置：转化率下滑</text>
   <rect x="714" y="248" width="110" height="42" rx="9" fill="#f59e0b"/>
   <text x="726" y="273" font-size="11" fill="#04121a" font-weight="700">处置：回款逾期</text>
   <rect x="836" y="248" width="110" height="42" rx="9" fill="#f59e0b"/>
   <text x="848" y="273" font-size="11" fill="#04121a" font-weight="700">处置：客户跟进超</text>
  <foreignObject x="592" y="308" width="330" height="150"><div xmlns="http://www.w3.org/1999/xhtml" style="font-size:11px;color:#c9b48f;line-height:1.6">决策动作：判断漏斗断点、回款风险和区域销售动作优先级。<br/>风险边界：不得在无回滚条件下扩大范围</div></foreignObject>
  
  <text x="40" y="544" font-size="10.5" fill="#7a6640">UI 原型 ui_14_logistics_change_control · 演示原理 2.4 · 3.1 · Skill change-impact + release-risk + rollback-plan</text>
</svg>