<svg xmlns="http://www.w3.org/2000/svg" viewBox="0 0 1000 620" font-family="PingFang SC,Microsoft YaHei,sans-serif">
  <defs>
    <linearGradient id="bg" x1="0" y1="0" x2="1" y2="1"><stop offset="0" stop-color="#06110d"/><stop offset="1" stop-color="#08140f"/></linearGradient>
    <linearGradient id="acc" x1="0" y1="0" x2="1" y2="0"><stop offset="0" stop-color="#10b981"/><stop offset="1" stop-color="#34d399"/></linearGradient>
    <pattern id="grid" width="28" height="28" patternUnits="userSpaceOnUse"><path d="M28 0H0V28" fill="none" stroke="#123026" stroke-width="1"/></pattern>
    <filter id="glow"><feGaussianBlur stdDeviation="2.4" result="b"/><feMerge><feMergeNode in="b"/><feMergeNode in="SourceGraphic"/></feMerge></filter>
  </defs>
  <rect width="1000" height="620" fill="url(#bg)"/><rect width="1000" height="620" fill="url(#grid)" opacity="0.4"/>
  <rect x="0" y="0" width="1000" height="92" fill="#0c1a14" opacity="0.45"/>
  <rect x="36" y="28" width="4" height="36" rx="2" fill="url(#acc)"/>
  <text x="50" y="46" font-size="22" font-weight="750" fill="#e7f5ee">电商退换货履约</text>
  <text x="50" y="70" font-size="11.5" fill="#9ac4b2">电商售后 · workflow_pipeline · 数据 dataset/product_cases/aicourse_ecommerce_orders.csv（1000 行 · 异常 799）</text>
  <rect x="742" y="26" width="222" height="22" rx="11" fill="#0a1712" stroke="#17342a"/><text x="853" y="41" font-size="10" fill="#10b981" text-anchor="middle">设计 emerald-flow · 业务应用·执行</text>
  <text x="964" y="70" font-size="9.5" fill="#4f7a68" text-anchor="end">读图：指标链 → 异常队列/责任 → 行动/验收</text>
  <rect x="36" y="116" width="176" height="82" rx="11" fill="#0c1a14" stroke="#17342a"/>
    <rect x="36" y="116" width="176" height="3" rx="1.5" fill="url(#acc)"/>
    <circle cx="56" cy="139" r="7" fill="none" stroke="#10b981" stroke-width="1.5"/><circle cx="56" cy="139" r="2.5" fill="#10b981"/>
    <text x="70" y="143" font-size="10.5" fill="#4f7a68">售后单覆盖率</text>
    <text x="50" y="176" font-size="24" font-weight="750" fill="#e7f5ee">64<tspan font-size="12" fill="#4f7a68">%</tspan></text>
    <text x="198" y="176" font-size="11" fill="#fb7185" text-anchor="end">▼6%</text><rect x="226" y="116" width="176" height="82" rx="11" fill="#0c1a14" stroke="#17342a"/>
    <rect x="226" y="116" width="176" height="3" rx="1.5" fill="url(#acc)"/>
    <circle cx="246" cy="139" r="7" fill="none" stroke="#10b981" stroke-width="1.5"/><circle cx="246" cy="139" r="2.5" fill="#10b981"/>
    <text x="260" y="143" font-size="10.5" fill="#4f7a68">客服审核处理时长</text>
    <text x="240" y="176" font-size="24" font-weight="750" fill="#e7f5ee">8<tspan font-size="12" fill="#4f7a68"></tspan></text>
    <text x="388" y="176" font-size="11" fill="#34d399" text-anchor="end">▲10%</text><rect x="416" y="116" width="176" height="82" rx="11" fill="#0c1a14" stroke="#17342a"/>
    <rect x="416" y="116" width="176" height="3" rx="1.5" fill="url(#acc)"/>
    <circle cx="436" cy="139" r="7" fill="none" stroke="#10b981" stroke-width="1.5"/><circle cx="436" cy="139" r="2.5" fill="#10b981"/>
    <text x="450" y="143" font-size="10.5" fill="#4f7a68">仓库收货异常数</text>
    <text x="430" y="176" font-size="24" font-weight="750" fill="#e7f5ee">799<tspan font-size="12" fill="#4f7a68"></tspan></text>
    <text x="578" y="176" font-size="11" fill="#34d399" text-anchor="end">▲1%</text><rect x="606" y="116" width="176" height="82" rx="11" fill="#0c1a14" stroke="#17342a"/>
    <rect x="606" y="116" width="176" height="3" rx="1.5" fill="url(#acc)"/>
    <circle cx="626" cy="139" r="7" fill="none" stroke="#10b981" stroke-width="1.5"/><circle cx="626" cy="139" r="2.5" fill="#10b981"/>
    <text x="640" y="143" font-size="10.5" fill="#4f7a68">退款完成率</text>
    <text x="620" y="176" font-size="24" font-weight="750" fill="#e7f5ee">72<tspan font-size="12" fill="#4f7a68">%</tspan></text>
    <text x="768" y="176" font-size="11" fill="#34d399" text-anchor="end">▲10%</text><rect x="796" y="116" width="176" height="82" rx="11" fill="#0c1a14" stroke="#17342a"/>
    <rect x="796" y="116" width="176" height="3" rx="1.5" fill="url(#acc)"/>
    <circle cx="816" cy="139" r="7" fill="none" stroke="#10b981" stroke-width="1.5"/><circle cx="816" cy="139" r="2.5" fill="#10b981"/>
    <text x="830" y="143" font-size="10.5" fill="#4f7a68">补偿复核通过率</text>
    <text x="810" y="176" font-size="24" font-weight="750" fill="#e7f5ee">88<tspan font-size="12" fill="#4f7a68">%</tspan></text>
    <text x="958" y="176" font-size="11" fill="#34d399" text-anchor="end">▲2%</text>
  <rect x="24" y="216" width="476" height="230" rx="12" fill="#0c1a14" stroke="#17342a"/>
  <text x="40" y="240" font-size="12.5" font-weight="650" fill="#e7f5ee">指标趋势 / 结构</text><rect x="40" y="246" width="28" height="2" fill="#10b981"/>
  <text x="484" y="240" font-size="9.5" fill="#4f7a68" text-anchor="end">不适用，采用专业 SaaS 工作</text>
  <line x1="44" y1="373.0" x2="476" y2="373.0" stroke="#123026" stroke-dasharray="2 3"/><line x1="44" y1="336.0" x2="476" y2="336.0" stroke="#123026" stroke-dasharray="2 3"/><line x1="44" y1="299.0" x2="476" y2="299.0" stroke="#123026" stroke-dasharray="2 3"/><line x1="44" y1="262.0" x2="476" y2="262.0" stroke="#123026" stroke-dasharray="2 3"/><line x1="44" y1="410" x2="476" y2="410" stroke="#17342a"/><line x1="44" y1="262" x2="44" y2="410" stroke="#17342a"/><rect x="50.0" y="262.0" width="95.0" height="148.0" rx="3" fill="#10b981" opacity="0.9"/><text x="97.5" y="258.0" font-size="8.5" fill="#9ac4b2" text-anchor="middle">400</text><text x="97.5" y="423" font-size="8" fill="#4f7a68" text-anchor="middle">受理</text><rect x="155.0" y="295.3" width="95.0" height="114.7" rx="3" fill="#10b981" opacity="0.9"/><text x="202.5" y="291.3" font-size="8.5" fill="#9ac4b2" text-anchor="middle">310</text><text x="202.5" y="423" font-size="8" fill="#4f7a68" text-anchor="middle">处理</text><rect x="260.0" y="328.6" width="95.0" height="81.4" rx="3" fill="#10b981" opacity="0.9"/><text x="307.5" y="324.6" font-size="8.5" fill="#9ac4b2" text-anchor="middle">220</text><text x="307.5" y="423" font-size="8" fill="#4f7a68" text-anchor="middle">复核</text><rect x="365.0" y="361.9" width="95.0" height="48.1" rx="3" fill="#10b981" opacity="0.9"/><text x="412.5" y="357.9" font-size="8.5" fill="#9ac4b2" text-anchor="middle">130</text><text x="412.5" y="423" font-size="8" fill="#4f7a68" text-anchor="middle">完成</text>
  <rect x="512" y="216" width="464" height="230" rx="12" fill="#0c1a14" stroke="#17342a"/>
  <text x="528" y="240" font-size="12.5" font-weight="650" fill="#e7f5ee">异常队列 · 责任对象</text><rect x="528" y="246" width="28" height="2" fill="#fbbf24"/>
  <text x="960" y="240" font-size="9.5" fill="#4f7a68" text-anchor="end">799 项 · 取前 5</text>
  
    <rect x="524" y="264" width="440" height="28" rx="7" fill="#0a1712" stroke="#17342a"/>
    <rect x="532" y="271" width="4" height="14" rx="2" fill="#34d399"/>
    <rect x="544" y="270" width="70" height="16" rx="5" fill="#34d399" opacity="0.2"/><text x="550" y="282" font-size="9.5" fill="#34d399" font-weight="700">字段缺失</text>
    <text x="624" y="282" font-size="10" fill="#9ac4b2">SKU1044</text>
    <rect x="884" y="270" width="72" height="16" rx="8" fill="#34d399" opacity="0.16"/><text x="920" y="282" font-size="9.5" fill="#34d399" text-anchor="middle">风控-赵</text>
    <rect x="524" y="298" width="440" height="28" rx="7" fill="#0a1712" stroke="#17342a"/>
    <rect x="532" y="305" width="4" height="14" rx="2" fill="#fb7185"/>
    <rect x="544" y="304" width="70" height="16" rx="5" fill="#fb7185" opacity="0.2"/><text x="550" y="316" font-size="9.5" fill="#fb7185" font-weight="700">流程超时</text>
    <text x="624" y="316" font-size="10" fill="#9ac4b2">SKU1090</text>
    <rect x="884" y="304" width="72" height="16" rx="8" fill="#34d399" opacity="0.16"/><text x="920" y="316" font-size="9.5" fill="#34d399" text-anchor="middle">客服-陈</text>
    <rect x="524" y="332" width="440" height="28" rx="7" fill="#0a1712" stroke="#17342a"/>
    <rect x="532" y="339" width="4" height="14" rx="2" fill="#34d399"/>
    <rect x="544" y="338" width="70" height="16" rx="5" fill="#34d399" opacity="0.2"/><text x="550" y="350" font-size="9.5" fill="#34d399" font-weight="700">复核未完成</text>
    <text x="624" y="350" font-size="10" fill="#9ac4b2">SKU1095</text>
    <rect x="884" y="338" width="72" height="16" rx="8" fill="#34d399" opacity="0.16"/><text x="920" y="350" font-size="9.5" fill="#34d399" text-anchor="middle">供应链-孙</text>
    <rect x="524" y="366" width="440" height="28" rx="7" fill="#0a1712" stroke="#17342a"/>
    <rect x="532" y="373" width="4" height="14" rx="2" fill="#fb7185"/>
    <rect x="544" y="372" width="70" height="16" rx="5" fill="#fb7185" opacity="0.2"/><text x="550" y="384" font-size="9.5" fill="#fb7185" font-weight="700">验收失败</text>
    <text x="624" y="384" font-size="10" fill="#9ac4b2">SKU1009</text>
    <rect x="884" y="372" width="72" height="16" rx="8" fill="#34d399" opacity="0.16"/><text x="920" y="384" font-size="9.5" fill="#34d399" text-anchor="middle">数据-周</text>
    <rect x="524" y="400" width="440" height="28" rx="7" fill="#0a1712" stroke="#17342a"/>
    <rect x="532" y="407" width="4" height="14" rx="2" fill="#34d399"/>
    <rect x="544" y="406" width="70" height="16" rx="5" fill="#34d399" opacity="0.2"/><text x="550" y="418" font-size="9.5" fill="#34d399" font-weight="700">字段缺失</text>
    <text x="624" y="418" font-size="10" fill="#9ac4b2">SKU1285</text>
    <rect x="884" y="406" width="72" height="16" rx="8" fill="#34d399" opacity="0.16"/><text x="920" y="418" font-size="9.5" fill="#34d399" text-anchor="middle">运营-李</text>
  <text x="36" y="479" font-size="10.5" fill="#4f7a68">演示原理 3.3 · 3.5 · UI ui_23_return_fulfillment_swimlane · Skill process-redesign + service-blueprint + acceptance-mapping</text>
  <text x="36" y="522" font-size="11" fill="#4f7a68">行动入口 · 责任 · 时限</text>
  
    <rect x="36" y="548" width="168" height="46" rx="10" fill="url(#acc)"/>
    <text x="50" y="569" font-size="11.5" fill="#04121a" font-weight="750">处置：字段缺失</text>
    <text x="50" y="584" font-size="9" fill="#04121a" opacity="0.75">风控-赵 · 1d</text>
    <rect x="216" y="548" width="168" height="46" rx="10" fill="url(#acc)"/>
    <text x="230" y="569" font-size="11.5" fill="#04121a" font-weight="750">处置：流程超时</text>
    <text x="230" y="584" font-size="9" fill="#04121a" opacity="0.75">客服-陈 · 3d</text>
    <rect x="396" y="548" width="168" height="46" rx="10" fill="url(#acc)"/>
    <text x="410" y="569" font-size="11.5" fill="#04121a" font-weight="750">处置：复核未完成</text>
    <text x="410" y="584" font-size="9" fill="#04121a" opacity="0.75">供应链-孙 · 5d</text>
  <rect x="588" y="510" width="388" height="88" rx="10" fill="#0a1712" stroke="#17342a"/>
  <foreignObject x="602" y="516" width="360" height="76"><div xmlns="http://www.w3.org/1999/xhtml" style="font-size:10.5px;color:#9ac4b2;line-height:1.5">决策动作：围绕退换货履约判断优先级、责任人和验收动作。<br/>风险边界：不得只增加按钮而不重构流程</div></foreignObject>
</svg>