<svg xmlns="http://www.w3.org/2000/svg" viewBox="0 0 960 560" font-family="PingFang SC,Microsoft YaHei,sans-serif">
  <defs><linearGradient id="bg" x1="0" y1="0" x2="1" y2="1"><stop offset="0" stop-color="#060b12"/><stop offset="1" stop-color="#0a1220"/></linearGradient>
  <pattern id="grid" width="26" height="26" patternUnits="userSpaceOnUse"><path d="M26 0H0V26" fill="none" stroke="#142138" stroke-width="1"/></pattern></defs>
  <rect width="960" height="560" fill="url(#bg)"/><rect width="960" height="560" fill="url(#grid)" opacity="0.5"/>
  <text x="40" y="50" font-size="21" font-weight="750" fill="#e8eefb">原型字段核验</text>
  <text x="40" y="74" font-size="12" fill="#9fb2d4">零售经营 · experiment_harness · 设计 cyan-matrix · 数据 outputs/05_harness/prototype_test_report.json（12 行，异常 8）</text>
  <text x="40" y="96" font-size="11" fill="#566484">读图顺序：指标链 → 异常队列与责任对象 → 行动入口与验收边界</text>
  
   <rect x="40" y="104" width="162" height="76" rx="10" fill="#0c1626" stroke="#1c2c46"/>
   <rect x="40" y="104" width="162" height="2" fill="#06b6d4"/>
   <text x="52" y="128" font-size="11" fill="#566484">字段覆盖率</text>
   <text x="52" y="160" font-size="23" font-weight="750" fill="#e8eefb">0.83%</text>
   <rect x="218" y="104" width="162" height="76" rx="10" fill="#0c1626" stroke="#1c2c46"/>
   <rect x="218" y="104" width="162" height="2" fill="#06b6d4"/>
   <text x="230" y="128" font-size="11" fill="#566484">数据来源处理时长</text>
   <text x="230" y="160" font-size="23" font-weight="750" fill="#e8eefb">3</text>
   <rect x="396" y="104" width="162" height="76" rx="10" fill="#0c1626" stroke="#1c2c46"/>
   <rect x="396" y="104" width="162" height="2" fill="#06b6d4"/>
   <text x="408" y="128" font-size="11" fill="#566484">状态异常数</text>
   <text x="408" y="160" font-size="23" font-weight="750" fill="#e8eefb">0.75</text>
   <rect x="574" y="104" width="162" height="76" rx="10" fill="#0c1626" stroke="#1c2c46"/>
   <rect x="574" y="104" width="162" height="2" fill="#06b6d4"/>
   <text x="586" y="128" font-size="11" fill="#566484">体验问题完成率</text>
   <text x="586" y="160" font-size="23" font-weight="750" fill="#e8eefb">0.9%</text>
   <rect x="752" y="104" width="162" height="76" rx="10" fill="#0c1626" stroke="#1c2c46"/>
   <rect x="752" y="104" width="162" height="2" fill="#06b6d4"/>
   <text x="764" y="128" font-size="11" fill="#566484">风险项复核通过率</text>
   <text x="764" y="160" font-size="23" font-weight="750" fill="#e8eefb">49%</text>
  <text x="40" y="230" font-size="12" font-weight="600" fill="#e8eefb">异常队列 · 责任对象</text>
  <text x="592" y="230" font-size="12" font-weight="600" fill="#e8eefb">行动入口</text>
  
   <rect x="40" y="248" width="520" height="34" rx="7" fill="#0a1220" stroke="#1c2c46"/>
   <rect x="52" y="256" width="78" height="18" rx="5" fill="#f472b6" opacity="0.22"/>
   <text x="60" y="269" font-size="10.5" fill="#f472b6" font-weight="700">待修</text>
   <text x="144" y="269" font-size="11" fill="#9fb2d4">指标链 · —</text>
   <rect x="40" y="290" width="520" height="34" rx="7" fill="#0a1220" stroke="#1c2c46"/>
   <rect x="52" y="298" width="78" height="18" rx="5" fill="#f472b6" opacity="0.22"/>
   <text x="60" y="311" font-size="10.5" fill="#f472b6" font-weight="700">通过</text>
   <text x="144" y="311" font-size="11" fill="#9fb2d4">异常队列 · —</text>
   <rect x="40" y="332" width="520" height="34" rx="7" fill="#0a1220" stroke="#1c2c46"/>
   <rect x="52" y="340" width="78" height="18" rx="5" fill="#f472b6" opacity="0.22"/>
   <text x="60" y="353" font-size="10.5" fill="#f472b6" font-weight="700">通过</text>
   <text x="144" y="353" font-size="11" fill="#9fb2d4">责任对象 · —</text>
   <rect x="40" y="374" width="520" height="34" rx="7" fill="#0a1220" stroke="#1c2c46"/>
   <rect x="52" y="382" width="78" height="18" rx="5" fill="#f472b6" opacity="0.22"/>
   <text x="60" y="395" font-size="10.5" fill="#f472b6" font-weight="700">通过</text>
   <text x="144" y="395" font-size="11" fill="#9fb2d4">行动入口 · —</text>
   <rect x="40" y="416" width="520" height="34" rx="7" fill="#0a1220" stroke="#1c2c46"/>
   <rect x="52" y="424" width="78" height="18" rx="5" fill="#f472b6" opacity="0.22"/>
   <text x="60" y="437" font-size="10.5" fill="#f472b6" font-weight="700">待修</text>
   <text x="144" y="437" font-size="11" fill="#9fb2d4">数据来源 · —</text>
   <rect x="592" y="248" width="110" height="42" rx="9" fill="#06b6d4"/>
   <text x="604" y="273" font-size="11" fill="#04121a" font-weight="700">处置：字段缺失</text>
   <rect x="714" y="248" width="110" height="42" rx="9" fill="#06b6d4"/>
   <text x="726" y="273" font-size="11" fill="#04121a" font-weight="700">处置：流程超时</text>
   <rect x="836" y="248" width="110" height="42" rx="9" fill="#06b6d4"/>
   <text x="848" y="273" font-size="11" fill="#04121a" font-weight="700">处置：复核未完成</text>
  <foreignObject x="592" y="308" width="330" height="150"><div xmlns="http://www.w3.org/1999/xhtml" style="font-size:11px;color:#9fb2d4;line-height:1.6">决策动作：围绕原型验收护栏判断优先级、责任人和验收动作。<br/>风险边界：不得降低检查项换取通过</div></foreignObject>
  
  <text x="40" y="544" font-size="10.5" fill="#566484">UI 原型 ui_36_prototype_harness_board · 演示原理 1.3 · 3.3 · Skill harness-builder + checker-report + regression-guard</text>
</svg>