<svg xmlns="http://www.w3.org/2000/svg" viewBox="0 0 720 380" font-family="PingFang SC,Microsoft YaHei,sans-serif">
  <defs>
    <linearGradient id="dbg" x1="0" y1="0" x2="1" y2="1"><stop offset="0" stop-color="#0a0e14"/><stop offset="1" stop-color="#0d1220"/></linearGradient>
    <linearGradient id="dac" x1="0" y1="0" x2="1" y2="0"><stop offset="0" stop-color="#22d3ee"/><stop offset="1" stop-color="#38bdf8"/></linearGradient>
    <pattern id="dgrid" width="30" height="30" patternUnits="userSpaceOnUse"><path d="M30 0H0V30" fill="none" stroke="#16202e" stroke-width="1"/></pattern>
    <filter id="dsh" x="-20%" y="-20%" width="140%" height="140%"><feDropShadow dx="0" dy="1.5" stdDeviation="2.5" flood-color="#000" flood-opacity="0.35"/></filter>
  </defs>
  <rect width="720" height="380" fill="url(#dbg)"/><rect width="720" height="380" fill="url(#dgrid)" opacity="0.35"/>
  <rect x="0" y="0" width="720" height="44" fill="#121826" opacity="0.5"/>
  <rect x="24" y="13" width="4" height="19" rx="2" fill="url(#dac)"/>
  <text x="36" y="28" font-size="15" font-weight="750" fill="#e6edf6">§4 · 「单文件 &lt;800 行」不是口号：全仓 Top9 真实行数</text>


<text x="24" y="366" font-size="10.5" fill="#5b6b7f">构建期实扫 code/（黄=逼近 720 预警线，critic big-file 探针盯守）——规范自己先过自己的门禁。</text>
<line x1="660" y1="70" x2="660" y2="320" stroke="#f87171" stroke-dasharray="5 3"/><text x="660" y="62" font-size="10" fill="#f87171" text-anchor="middle">800 行红线</text><text x="202" y="91" font-size="9.5" fill="#9fb0c3" text-anchor="end">tools/build_docs.mjs</text><rect x="210" y="80" width="268.3" height="16" rx="5" fill="#22d3ee" opacity="0.85"/><text x="484.3" y="92" font-size="10" fill="#e6edf6">477</text><text x="202" y="121" font-size="9.5" fill="#9fb0c3" text-anchor="end">web/src/screens.tsx</text><rect x="210" y="110" width="190.1" height="16" rx="5" fill="#22d3ee" opacity="0.85"/><text x="406.1" y="122" font-size="10" fill="#e6edf6">338</text><text x="202" y="151" font-size="9.5" fill="#9fb0c3" text-anchor="end">web/src/App.tsx</text><rect x="210" y="140" width="185.1" height="16" rx="5" fill="#22d3ee" opacity="0.85"/><text x="401.1" y="152" font-size="10" fill="#e6edf6">329</text><text x="202" y="181" font-size="9.5" fill="#9fb0c3" text-anchor="end">tools/verify_course_package.mjs</text><rect x="210" y="170" width="166.5" height="16" rx="5" fill="#22d3ee" opacity="0.85"/><text x="382.5" y="182" font-size="10" fill="#e6edf6">296</text><text x="202" y="211" font-size="9.5" fill="#9fb0c3" text-anchor="end">tools/chapter_figures.mjs</text><rect x="210" y="200" width="147.4" height="16" rx="5" fill="#22d3ee" opacity="0.85"/><text x="363.4" y="212" font-size="10" fill="#e6edf6">262</text><text x="202" y="241" font-size="9.5" fill="#9fb0c3" text-anchor="end">tools/arch_figures.mjs</text><rect x="210" y="230" width="123.2" height="16" rx="5" fill="#22d3ee" opacity="0.85"/><text x="339.2" y="242" font-size="10" fill="#e6edf6">219</text><text x="202" y="271" font-size="9.5" fill="#9fb0c3" text-anchor="end">tools/build_case_data.mjs</text><rect x="210" y="260" width="109.7" height="16" rx="5" fill="#22d3ee" opacity="0.85"/><text x="325.7" y="272" font-size="10" fill="#e6edf6">195</text><text x="202" y="301" font-size="9.5" fill="#9fb0c3" text-anchor="end">web/src/lab.tsx</text><rect x="210" y="290" width="84.9" height="16" rx="5" fill="#22d3ee" opacity="0.85"/><text x="300.9" y="302" font-size="10" fill="#e6edf6">151</text><text x="202" y="331" font-size="9.5" fill="#9fb0c3" text-anchor="end">web/src/pages.tsx</text><rect x="210" y="320" width="82.7" height="16" rx="5" fill="#22d3ee" opacity="0.85"/><text x="298.7" y="332" font-size="10" fill="#e6edf6">147</text></svg>