<svg xmlns="http://www.w3.org/2000/svg" viewBox="0 0 900 420" font-family="PingFang SC,Microsoft YaHei,sans-serif">
  <defs>
    <linearGradient id="dbg" x1="0" y1="0" x2="1" y2="1"><stop offset="0" stop-color="#0a0e14"/><stop offset="1" stop-color="#0d1220"/></linearGradient>
    <linearGradient id="dac" x1="0" y1="0" x2="1" y2="0"><stop offset="0" stop-color="#22d3ee"/><stop offset="1" stop-color="#38bdf8"/></linearGradient>
    <pattern id="dgrid" width="30" height="30" patternUnits="userSpaceOnUse"><path d="M30 0H0V30" fill="none" stroke="#16202e" stroke-width="1"/></pattern>
    <filter id="dsh" x="-20%" y="-20%" width="140%" height="140%"><feDropShadow dx="0" dy="1.5" stdDeviation="2.5" flood-color="#000" flood-opacity="0.35"/></filter>
  </defs>
  <rect width="900" height="420" fill="url(#dbg)"/><rect width="900" height="420" fill="url(#dgrid)" opacity="0.35"/>
  <rect x="0" y="0" width="900" height="44" fill="#121826" opacity="0.5"/>
  <rect x="24" y="13" width="4" height="19" rx="2" fill="url(#dac)"/>
  <text x="36" y="28" font-size="15" font-weight="750" fill="#e6edf6">C4 · 系统上下文（Context）：本平台与谁交互</text>
<line x1="240.0" y1="208.0" x2="340.0" y2="205.0" stroke="#38bdf8" stroke-width="1.6" /><path d="M340 205 L333.5 208.8 L333.3 201.6 z" fill="#38bdf8"/><rect x="265.2" y="198.5" width="49.599999999999994" height="15" rx="4" fill="#0d1220" stroke="#1e2a3a"/><text x="290" y="209.5" font-size="9" fill="#9fb0c3" text-anchor="middle">学习·跑·改</text>
<line x1="560.0" y1="205.0" x2="660.0" y2="108.0" stroke="#38bdf8" stroke-width="1.6" stroke-dasharray="5 3"/><path d="M660 108 L657.8 115.2 L652.8 110.0 z" fill="#38bdf8"/><rect x="585.2" y="148.5" width="49.599999999999994" height="15" rx="4" fill="#0d1220" stroke="#1e2a3a"/><text x="610" y="159.5" font-size="9" fill="#9fb0c3" text-anchor="middle">装载真实数据</text>
<line x1="560.0" y1="205.0" x2="660.0" y2="228.0" stroke="#38bdf8" stroke-width="1.6" stroke-dasharray="5 3"/><path d="M660 228 L652.8 230.0 L654.4 223.0 z" fill="#38bdf8"/><rect x="588.5" y="208.5" width="43" height="15" rx="4" fill="#0d1220" stroke="#1e2a3a"/><text x="610" y="219.5" font-size="9" fill="#9fb0c3" text-anchor="middle">按规格驱动</text>
<line x1="560.0" y1="205.0" x2="660.0" y2="332.0" stroke="#38bdf8" stroke-width="1.6" /><path d="M660 332 L653.1 329.1 L658.8 324.6 z" fill="#38bdf8"/><rect x="581.9" y="260.5" width="56.199999999999996" height="15" rx="4" fill="#0d1220" stroke="#1e2a3a"/><text x="610" y="271.5" font-size="9" fill="#9fb0c3" text-anchor="middle">HTTP 托管</text>
<rect x="60" y="170" width="180" height="76" rx="10" fill="#121826" stroke="#38bdf8" stroke-width="1.4"  filter="url(#dsh)"/>
  <rect x="60" y="170" width="180" height="3" rx="1.5" fill="#38bdf8"/><rect x="217" y="176" width="17" height="15" rx="7" fill="#38bdf8" opacity="0.18"/><text x="230" y="187" font-size="8.5" fill="#38bdf8" text-anchor="end">人</text>
  <text x="150" y="207" font-size="12" font-weight="700" fill="#e6edf6" text-anchor="middle">学习者</text><text x="150" y="222" font-size="9.5" fill="#5b6b7f" text-anchor="middle">研发 / 产品 / 项目</text>
<rect x="340" y="150" width="220" height="110" rx="10" fill="#121826" stroke="#22d3ee" stroke-width="1.4"  filter="url(#dsh)"/>
  <rect x="340" y="150" width="220" height="3" rx="1.5" fill="#22d3ee"/>
  <text x="450" y="204" font-size="12" font-weight="700" fill="#e6edf6" text-anchor="middle">AI 一体化知识库平台</text><text x="450" y="219" font-size="9.5" fill="#5b6b7f" text-anchor="middle">真数据·可运行·自校验</text>
<rect x="660" y="70" width="190" height="76" rx="10" fill="#121826" stroke="#9fb0c3" stroke-width="1.4" stroke-dasharray="5 3" filter="url(#dsh)"/>
  <rect x="660" y="70" width="190" height="3" rx="1.5" fill="#9fb0c3"/><rect x="820" y="76" width="24" height="15" rx="7" fill="#9fb0c3" opacity="0.18"/><text x="840" y="87" font-size="8.5" fill="#9fb0c3" text-anchor="end">外部</text>
  <text x="755" y="107" font-size="12" font-weight="700" fill="#e6edf6" text-anchor="middle">公开数据集</text><text x="755" y="122" font-size="9.5" fill="#5b6b7f" text-anchor="middle">UCI / CMS / US DOT</text>
<rect x="660" y="190" width="190" height="76" rx="10" fill="#121826" stroke="#9fb0c3" stroke-width="1.4" stroke-dasharray="5 3" filter="url(#dsh)"/>
  <rect x="660" y="190" width="190" height="3" rx="1.5" fill="#9fb0c3"/><rect x="820" y="196" width="24" height="15" rx="7" fill="#9fb0c3" opacity="0.18"/><text x="840" y="207" font-size="8.5" fill="#9fb0c3" text-anchor="end">外部</text>
  <text x="755" y="227" font-size="12" font-weight="700" fill="#e6edf6" text-anchor="middle">AI 编程工具</text><text x="755" y="242" font-size="9.5" fill="#5b6b7f" text-anchor="middle">任一 Agent 工具</text>
<rect x="660" y="300" width="190" height="64" rx="10" fill="#121826" stroke="#9fb0c3" stroke-width="1.4" stroke-dasharray="5 3" filter="url(#dsh)"/>
  <rect x="660" y="300" width="190" height="3" rx="1.5" fill="#9fb0c3"/><rect x="820" y="306" width="24" height="15" rx="7" fill="#9fb0c3" opacity="0.18"/><text x="840" y="317" font-size="8.5" fill="#9fb0c3" text-anchor="end">外部</text>
  <text x="755" y="331" font-size="12" font-weight="700" fill="#e6edf6" text-anchor="middle">浏览器</text><text x="755" y="346" font-size="9.5" fill="#5b6b7f" text-anchor="middle">大屏 / 实验室</text>
<text x="24" y="406" font-size="10.5" fill="#5b6b7f">最外层：系统 + 使用者 + 外部依赖。先看清边界，再往里拆。来源：C4 模型（Simon Brown）。</text>
</svg>