<svg xmlns="http://www.w3.org/2000/svg" viewBox="0 0 900 380" font-family="PingFang SC,Microsoft YaHei,sans-serif">
  <defs><linearGradient id="bg" x1="0" y1="0" x2="1" y2="1"><stop offset="0" stop-color="#0a0e14"/><stop offset="1" stop-color="#0d1220"/></linearGradient>
  <linearGradient id="acc" x1="0" y1="0" x2="1" y2="0"><stop offset="0" stop-color="#22d3ee"/><stop offset="1" stop-color="#38bdf8"/></linearGradient>
  <pattern id="g" width="26" height="26" patternUnits="userSpaceOnUse"><path d="M26 0H0V26" fill="none" stroke="#16202e" stroke-width="1"/></pattern>
  <filter id="glow"><feGaussianBlur stdDeviation="2.2" result="b"/><feMerge><feMergeNode in="b"/><feMergeNode in="SourceGraphic"/></feMerge></filter></defs>
  <rect width="900" height="380" fill="url(#bg)"/><rect width="900" height="380" fill="url(#g)" opacity="0.4"/><rect x="0" y="0" width="6" height="380" fill="url(#acc)"/><rect x="20" y="160" width="94" height="60" rx="9" fill="#121826" stroke="#1e2a3a"/><rect x="20" y="160" width="94" height="2" fill="#22d3ee"/><text x="67" y="196" font-size="13" fill="#e6edf6" text-anchor="middle">LLM</text><text x="120" y="196" font-size="15" fill="#22d3ee">›</text><rect x="128" y="160" width="94" height="60" rx="9" fill="#121826" stroke="#1e2a3a"/><rect x="128" y="160" width="94" height="2" fill="#22d3ee"/><text x="175" y="196" font-size="13" fill="#e6edf6" text-anchor="middle">Token</text><text x="228" y="196" font-size="15" fill="#22d3ee">›</text><rect x="236" y="160" width="94" height="60" rx="9" fill="#121826" stroke="#1e2a3a"/><rect x="236" y="160" width="94" height="2" fill="#22d3ee"/><text x="283" y="196" font-size="13" fill="#e6edf6" text-anchor="middle">Context</text><text x="336" y="196" font-size="15" fill="#22d3ee">›</text><rect x="344" y="160" width="94" height="60" rx="9" fill="#121826" stroke="#1e2a3a"/><rect x="344" y="160" width="94" height="2" fill="#22d3ee"/><text x="391" y="196" font-size="13" fill="#e6edf6" text-anchor="middle">Prompt</text><text x="444" y="196" font-size="15" fill="#22d3ee">›</text><rect x="452" y="160" width="94" height="60" rx="9" fill="#121826" stroke="#1e2a3a"/><rect x="452" y="160" width="94" height="2" fill="#22d3ee"/><text x="499" y="196" font-size="13" fill="#e6edf6" text-anchor="middle">Tool</text><text x="552" y="196" font-size="15" fill="#22d3ee">›</text><rect x="560" y="160" width="94" height="60" rx="9" fill="#121826" stroke="#1e2a3a"/><rect x="560" y="160" width="94" height="2" fill="#22d3ee"/><text x="607" y="196" font-size="13" fill="#e6edf6" text-anchor="middle">MCP</text><text x="660" y="196" font-size="15" fill="#22d3ee">›</text><rect x="668" y="160" width="94" height="60" rx="9" fill="#121826" stroke="#1e2a3a"/><rect x="668" y="160" width="94" height="2" fill="#22d3ee"/><text x="715" y="196" font-size="13" fill="#e6edf6" text-anchor="middle">Agent</text><text x="768" y="196" font-size="15" fill="#22d3ee">›</text><rect x="776" y="160" width="94" height="60" rx="9" fill="#121826" stroke="#1e2a3a"/><rect x="776" y="160" width="94" height="2" fill="#22d3ee"/><text x="823" y="196" font-size="13" fill="#e6edf6" text-anchor="middle">Skill</text><text x="20" y="90" font-size="14" fill="#e6edf6">AI 核心概念底层链路（从底层到上层）</text><text x="20" y="300" font-size="11" fill="#5b6b7f">LLM 逐词生成 · Token 计量 · Context 记忆 · Prompt 驱动 · Tool/MCP 触达 · Agent/Skill 自主</text></svg>