<svg xmlns="http://www.w3.org/2000/svg" viewBox="0 0 926 350" font-family="PingFang SC,Microsoft YaHei,sans-serif">
  <defs>
    <linearGradient id="dbg" x1="0" y1="0" x2="1" y2="1"><stop offset="0" stop-color="#0a0e14"/><stop offset="1" stop-color="#0d1220"/></linearGradient>
    <linearGradient id="dac" x1="0" y1="0" x2="1" y2="0"><stop offset="0" stop-color="#22d3ee"/><stop offset="1" stop-color="#38bdf8"/></linearGradient>
    <pattern id="dgrid" width="30" height="30" patternUnits="userSpaceOnUse"><path d="M30 0H0V30" fill="none" stroke="#16202e" stroke-width="1"/></pattern>
    <filter id="dsh" x="-20%" y="-20%" width="140%" height="140%"><feDropShadow dx="0" dy="1.5" stdDeviation="2.5" flood-color="#000" flood-opacity="0.35"/></filter>
  </defs>
  <rect width="926" height="350" fill="url(#dbg)"/><rect width="926" height="350" fill="url(#dgrid)" opacity="0.35"/>
  <rect x="0" y="0" width="926" height="44" fill="#121826" opacity="0.5"/>
  <rect x="24" y="13" width="4" height="19" rx="2" fill="url(#dac)"/>
  <text x="36" y="28" font-size="15" font-weight="750" fill="#e6edf6">§9 · 分布式四件套的 AI 同构：老问题换宿主</text>
<line x1="130.0" y1="152.0" x2="130.0" y2="230.0" stroke="#5b6b7f" stroke-width="1.6" stroke-dasharray="5 3"/><path d="M130 230 L126.4 223.4 L133.6 223.4 z" fill="#5b6b7f"/><rect x="118.4" y="183" width="23.2" height="15" rx="4" fill="#0d1220" stroke="#1e2a3a"/><text x="130" y="194" font-size="9" fill="#9fb0c3" text-anchor="middle">同构</text>
<line x1="352.0" y1="152.0" x2="352.0" y2="230.0" stroke="#5b6b7f" stroke-width="1.6" stroke-dasharray="5 3"/><path d="M352 230 L348.4 223.4 L355.6 223.4 z" fill="#5b6b7f"/><rect x="340.4" y="183" width="23.2" height="15" rx="4" fill="#0d1220" stroke="#1e2a3a"/><text x="352" y="194" font-size="9" fill="#9fb0c3" text-anchor="middle">同构</text>
<line x1="574.0" y1="152.0" x2="574.0" y2="230.0" stroke="#5b6b7f" stroke-width="1.6" stroke-dasharray="5 3"/><path d="M574 230 L570.4 223.4 L577.6 223.4 z" fill="#5b6b7f"/><rect x="562.4" y="183" width="23.2" height="15" rx="4" fill="#0d1220" stroke="#1e2a3a"/><text x="574" y="194" font-size="9" fill="#9fb0c3" text-anchor="middle">同构</text>
<line x1="796.0" y1="152.0" x2="796.0" y2="230.0" stroke="#5b6b7f" stroke-width="1.6" stroke-dasharray="5 3"/><path d="M796 230 L792.4 223.4 L799.6 223.4 z" fill="#5b6b7f"/><rect x="784.4" y="183" width="23.2" height="15" rx="4" fill="#0d1220" stroke="#1e2a3a"/><text x="796" y="194" font-size="9" fill="#9fb0c3" text-anchor="middle">同构</text>
<rect x="30" y="90" width="200" height="62" rx="10" fill="#121826" stroke="#5b6b7f" stroke-width="1.4"  filter="url(#dsh)"/>
  <rect x="30" y="90" width="200" height="3" rx="1.5" fill="#5b6b7f"/>
  <text x="130" y="120" font-size="12" font-weight="700" fill="#e6edf6" text-anchor="middle">RPC/gRPC</text><text x="130" y="135" font-size="9.5" fill="#5b6b7f" text-anchor="middle">远程调用</text>
<rect x="30" y="230" width="200" height="62" rx="10" fill="#121826" stroke="#22d3ee" stroke-width="1.4"  filter="url(#dsh)"/>
  <rect x="30" y="230" width="200" height="3" rx="1.5" fill="#22d3ee"/>
  <text x="130" y="260" font-size="12" font-weight="700" fill="#e6edf6" text-anchor="middle">工具调用 + MCP</text><text x="130" y="275" font-size="9.5" fill="#5b6b7f" text-anchor="middle">多 Agent 同构</text>
<rect x="252" y="90" width="200" height="62" rx="10" fill="#121826" stroke="#5b6b7f" stroke-width="1.4"  filter="url(#dsh)"/>
  <rect x="252" y="90" width="200" height="3" rx="1.5" fill="#5b6b7f"/>
  <text x="352" y="120" font-size="12" font-weight="700" fill="#e6edf6" text-anchor="middle">注册中心</text><text x="352" y="135" font-size="9.5" fill="#5b6b7f" text-anchor="middle">注册发现</text>
<rect x="252" y="230" width="200" height="62" rx="10" fill="#121826" stroke="#38bdf8" stroke-width="1.4"  filter="url(#dsh)"/>
  <rect x="252" y="230" width="200" height="3" rx="1.5" fill="#38bdf8"/>
  <text x="352" y="260" font-size="12" font-weight="700" fill="#e6edf6" text-anchor="middle">Skill Registry</text><text x="352" y="275" font-size="9.5" fill="#5b6b7f" text-anchor="middle">多 Agent 同构</text>
<rect x="474" y="90" width="200" height="62" rx="10" fill="#121826" stroke="#5b6b7f" stroke-width="1.4"  filter="url(#dsh)"/>
  <rect x="474" y="90" width="200" height="3" rx="1.5" fill="#5b6b7f"/>
  <text x="574" y="120" font-size="12" font-weight="700" fill="#e6edf6" text-anchor="middle">熔断/重试</text><text x="574" y="135" font-size="9.5" fill="#5b6b7f" text-anchor="middle">容错</text>
<rect x="474" y="230" width="200" height="62" rx="10" fill="#121826" stroke="#fbbf24" stroke-width="1.4"  filter="url(#dsh)"/>
  <rect x="474" y="230" width="200" height="3" rx="1.5" fill="#fbbf24"/>
  <text x="574" y="260" font-size="12" font-weight="700" fill="#e6edf6" text-anchor="middle">停机规则+独立会话</text><text x="574" y="275" font-size="9.5" fill="#5b6b7f" text-anchor="middle">多 Agent 同构</text>
<rect x="696" y="90" width="200" height="62" rx="10" fill="#121826" stroke="#5b6b7f" stroke-width="1.4"  filter="url(#dsh)"/>
  <rect x="696" y="90" width="200" height="3" rx="1.5" fill="#5b6b7f"/>
  <text x="796" y="120" font-size="12" font-weight="700" fill="#e6edf6" text-anchor="middle">APM</text><text x="796" y="135" font-size="9.5" fill="#5b6b7f" text-anchor="middle">监控治理</text>
<rect x="696" y="230" width="200" height="62" rx="10" fill="#121826" stroke="#34d399" stroke-width="1.4"  filter="url(#dsh)"/>
  <rect x="696" y="230" width="200" height="3" rx="1.5" fill="#34d399"/>
  <text x="796" y="260" font-size="12" font-weight="700" fill="#e6edf6" text-anchor="middle">活体门禁+回归门</text><text x="796" y="275" font-size="9.5" fill="#5b6b7f" text-anchor="middle">多 Agent 同构</text>
<text x="24" y="336" font-size="10.5" fill="#5b6b7f">上排=经典答案，下排=多 Agent 形态；每项在本书都有真实锚点（§1/§6/stop-rules//api/gates）。</text>
</svg>