<svg xmlns="http://www.w3.org/2000/svg" viewBox="0 0 940 360" font-family="PingFang SC,Microsoft YaHei,sans-serif">
  <defs>
    <linearGradient id="dbg" x1="0" y1="0" x2="1" y2="1"><stop offset="0" stop-color="#0a0e14"/><stop offset="1" stop-color="#0d1220"/></linearGradient>
    <linearGradient id="dac" x1="0" y1="0" x2="1" y2="0"><stop offset="0" stop-color="#22d3ee"/><stop offset="1" stop-color="#38bdf8"/></linearGradient>
    <pattern id="dgrid" width="30" height="30" patternUnits="userSpaceOnUse"><path d="M30 0H0V30" fill="none" stroke="#16202e" stroke-width="1"/></pattern>
    <filter id="dsh" x="-20%" y="-20%" width="140%" height="140%"><feDropShadow dx="0" dy="1.5" stdDeviation="2.5" flood-color="#000" flood-opacity="0.35"/></filter>
  </defs>
  <rect width="940" height="360" fill="url(#dbg)"/><rect width="940" height="360" fill="url(#dgrid)" opacity="0.35"/>
  <rect x="0" y="0" width="940" height="44" fill="#121826" opacity="0.5"/>
  <rect x="24" y="13" width="4" height="19" rx="2" fill="url(#dac)"/>
  <text x="36" y="28" font-size="15" font-weight="750" fill="#e6edf6">数据流 / 时序：一次案例大屏请求（真实链路）</text><line x1="110" y1="90" x2="110" y2="314" stroke="#16202e" stroke-dasharray="3 4"/>
  <rect x="35" y="60" width="150" height="30" rx="8" fill="#121826" stroke="#38bdf8" stroke-width="1.3"/><rect x="35" y="60" width="150" height="3" rx="1.5" fill="#38bdf8"/>
  <text x="110" y="79" font-size="11" font-weight="700" fill="#e6edf6" text-anchor="middle">浏览器</text>
<line x1="380" y1="90" x2="380" y2="314" stroke="#16202e" stroke-dasharray="3 4"/>
  <rect x="305" y="60" width="150" height="30" rx="8" fill="#121826" stroke="#22d3ee" stroke-width="1.3"/><rect x="305" y="60" width="150" height="3" rx="1.5" fill="#22d3ee"/>
  <text x="380" y="79" font-size="11" font-weight="700" fill="#e6edf6" text-anchor="middle">api routes</text>
<line x1="640" y1="90" x2="640" y2="314" stroke="#16202e" stroke-dasharray="3 4"/>
  <rect x="565" y="60" width="150" height="30" rx="8" fill="#121826" stroke="#22d3ee" stroke-width="1.3"/><rect x="565" y="60" width="150" height="3" rx="1.5" fill="#22d3ee"/>
  <text x="640" y="79" font-size="11" font-weight="700" fill="#e6edf6" text-anchor="middle">cases 服务</text>
<line x1="860" y1="90" x2="860" y2="314" stroke="#16202e" stroke-dasharray="3 4"/>
  <rect x="800" y="60" width="120" height="30" rx="8" fill="#121826" stroke="#34d399" stroke-width="1.3"/><rect x="800" y="60" width="120" height="3" rx="1.5" fill="#34d399"/>
  <text x="860" y="79" font-size="11" font-weight="700" fill="#e6edf6" text-anchor="middle">sqlite</text>
<line x1="110" y1="130" x2="380" y2="130" stroke="#38bdf8" stroke-width="1.5" /><path d="M380 130 L373 126 L373 134 z" fill="#38bdf8"/>
    <text x="245" y="124" font-size="9.5" fill="#9fb0c3" text-anchor="middle">GET /api/case/02/data</text>
<line x1="380" y1="165" x2="640" y2="165" stroke="#38bdf8" stroke-width="1.5" /><path d="M640 165 L633 161 L633 169 z" fill="#38bdf8"/>
    <text x="510" y="159" font-size="9.5" fill="#9fb0c3" text-anchor="middle">caseData(2)</text>
<line x1="640" y1="200" x2="860" y2="200" stroke="#38bdf8" stroke-width="1.5" /><path d="M860 200 L853 196 L853 204 z" fill="#38bdf8"/>
    <text x="750" y="194" font-size="9.5" fill="#9fb0c3" text-anchor="middle">真 SQL 聚合</text>
<line x1="860" y1="235" x2="640" y2="235" stroke="#5b6b7f" stroke-width="1.5" stroke-dasharray="5 3"/><path d="M640 235 L647 231 L647 239 z" fill="#5b6b7f"/>
    <text x="750" y="229" font-size="9.5" fill="#9fb0c3" text-anchor="middle">分层结果</text>
<line x1="640" y1="270" x2="380" y2="270" stroke="#5b6b7f" stroke-width="1.5" stroke-dasharray="5 3"/><path d="M380 270 L387 266 L387 274 z" fill="#5b6b7f"/>
    <text x="510" y="264" font-size="9.5" fill="#9fb0c3" text-anchor="middle">KPI/队列/图表</text>
<line x1="380" y1="305" x2="110" y2="305" stroke="#5b6b7f" stroke-width="1.5" stroke-dasharray="5 3"/><path d="M110 305 L117 301 L117 309 z" fill="#5b6b7f"/>
    <text x="245" y="299" font-size="9.5" fill="#9fb0c3" text-anchor="middle">200 · JSON（契约）</text><text x="24" y="346" font-size="10.5" fill="#5b6b7f">从点击到渲染的真实往返：前端→api→服务→sqlite→回。每一跳都有明确契约（§3.4）。</text>
</svg>