<svg xmlns="http://www.w3.org/2000/svg" viewBox="0 0 720 420" font-family="PingFang SC,Microsoft YaHei,sans-serif">
  <defs>
    <linearGradient id="dbg" x1="0" y1="0" x2="1" y2="1"><stop offset="0" stop-color="#0a0e14"/><stop offset="1" stop-color="#0d1220"/></linearGradient>
    <linearGradient id="dac" x1="0" y1="0" x2="1" y2="0"><stop offset="0" stop-color="#22d3ee"/><stop offset="1" stop-color="#38bdf8"/></linearGradient>
    <pattern id="dgrid" width="30" height="30" patternUnits="userSpaceOnUse"><path d="M30 0H0V30" fill="none" stroke="#16202e" stroke-width="1"/></pattern>
    <filter id="dsh" x="-20%" y="-20%" width="140%" height="140%"><feDropShadow dx="0" dy="1.5" stdDeviation="2.5" flood-color="#000" flood-opacity="0.35"/></filter>
  </defs>
  <rect width="720" height="420" fill="url(#dbg)"/><rect width="720" height="420" fill="url(#dgrid)" opacity="0.35"/>
  <rect x="0" y="0" width="720" height="44" fill="#121826" opacity="0.5"/>
  <rect x="24" y="13" width="4" height="19" rx="2" fill="url(#dac)"/>
  <text x="36" y="28" font-size="15" font-weight="750" fill="#e6edf6">案例 02 · P2P 信贷：授信额度 × 历史成功次数（色分放款结果）</text><line x1="62" y1="364" x2="696" y2="364" stroke="#1e2a3a"/><line x1="62" y1="64" x2="62" y2="364" stroke="#1e2a3a"/><text x="62.0" y="380" font-size="9" fill="#5b6b7f" text-anchor="middle">0</text><text x="54" y="367.0" font-size="9" fill="#5b6b7f" text-anchor="end">0</text><text x="220.5" y="380" font-size="9" fill="#5b6b7f" text-anchor="middle">51000</text><text x="54" y="292.0" font-size="9" fill="#5b6b7f" text-anchor="end">1</text><line x1="62" y1="289.0" x2="696" y2="289.0" stroke="#16202e" stroke-width="0.6"/><text x="379.0" y="380" font-size="9" fill="#5b6b7f" text-anchor="middle">102000</text><text x="54" y="217.0" font-size="9" fill="#5b6b7f" text-anchor="end">1</text><line x1="62" y1="214.0" x2="696" y2="214.0" stroke="#16202e" stroke-width="0.6"/><text x="537.5" y="380" font-size="9" fill="#5b6b7f" text-anchor="middle">153000</text><text x="54" y="142.0" font-size="9" fill="#5b6b7f" text-anchor="end">2</text><line x1="62" y1="139.0" x2="696" y2="139.0" stroke="#16202e" stroke-width="0.6"/><text x="696.0" y="380" font-size="9" fill="#5b6b7f" text-anchor="middle">204000</text><text x="54" y="67.0" font-size="9" fill="#5b6b7f" text-anchor="end">2</text><line x1="62" y1="64.0" x2="696" y2="64.0" stroke="#16202e" stroke-width="0.6"/><text x="379" y="396" font-size="10" fill="#9fb0c3" text-anchor="middle">授信额度(¥)</text><text x="16" y="214" font-size="10" fill="#9fb0c3" text-anchor="middle" transform="rotate(-90 16 214)">历史成功次数</text><circle cx="62.0" cy="64.0" r="3.4" fill="#34d399" fill-opacity="0.75" stroke="#0a0e14" stroke-width="0.6"/><circle cx="192.5" cy="214.0" r="3.4" fill="#34d399" fill-opacity="0.75" stroke="#0a0e14" stroke-width="0.6"/><circle cx="77.5" cy="214.0" r="3.4" fill="#34d399" fill-opacity="0.75" stroke="#0a0e14" stroke-width="0.6"/><circle cx="62.0" cy="214.0" r="3.4" fill="#34d399" fill-opacity="0.75" stroke="#0a0e14" stroke-width="0.6"/><circle cx="62.0" cy="214.0" r="3.4" fill="#34d399" fill-opacity="0.75" stroke="#0a0e14" stroke-width="0.6"/><circle cx="62.0" cy="214.0" r="3.4" fill="#34d399" fill-opacity="0.75" stroke="#0a0e14" stroke-width="0.6"/><circle cx="248.5" cy="64.0" r="3.4" fill="#34d399" fill-opacity="0.75" stroke="#0a0e14" stroke-width="0.6"/><circle cx="62.0" cy="214.0" r="3.4" fill="#34d399" fill-opacity="0.75" stroke="#0a0e14" stroke-width="0.6"/><circle cx="62.0" cy="214.0" r="3.4" fill="#34d399" fill-opacity="0.75" stroke="#0a0e14" stroke-width="0.6"/><circle cx="62.0" cy="214.0" r="3.4" fill="#34d399" fill-opacity="0.75" stroke="#0a0e14" stroke-width="0.6"/><circle cx="62.0" cy="214.0" r="3.4" fill="#34d399" fill-opacity="0.75" stroke="#0a0e14" stroke-width="0.6"/><circle cx="62.0" cy="214.0" r="3.4" fill="#34d399" fill-opacity="0.75" stroke="#0a0e14" stroke-width="0.6"/><circle cx="62.0" cy="214.0" r="3.4" fill="#34d399" fill-opacity="0.75" stroke="#0a0e14" stroke-width="0.6"/><circle cx="62.0" cy="214.0" r="3.4" fill="#34d399" fill-opacity="0.75" stroke="#0a0e14" stroke-width="0.6"/><circle cx="62.0" cy="214.0" r="3.4" fill="#34d399" fill-opacity="0.75" stroke="#0a0e14" stroke-width="0.6"/><circle cx="62.0" cy="214.0" r="3.4" fill="#34d399" fill-opacity="0.75" stroke="#0a0e14" stroke-width="0.6"/><circle cx="62.0" cy="214.0" r="3.4" fill="#34d399" fill-opacity="0.75" stroke="#0a0e14" stroke-width="0.6"/><circle cx="62.0" cy="214.0" r="3.4" fill="#34d399" fill-opacity="0.75" stroke="#0a0e14" stroke-width="0.6"/><circle cx="62.0" cy="214.0" r="3.4" fill="#34d399" fill-opacity="0.75" stroke="#0a0e14" stroke-width="0.6"/><circle cx="62.0" cy="214.0" r="3.4" fill="#34d399" fill-opacity="0.75" stroke="#0a0e14" stroke-width="0.6"/><circle cx="62.0" cy="214.0" r="3.4" fill="#34d399" fill-opacity="0.75" stroke="#0a0e14" stroke-width="0.6"/><circle cx="62.0" cy="214.0" r="3.4" fill="#34d399" fill-opacity="0.75" stroke="#0a0e14" stroke-width="0.6"/><circle cx="62.0" cy="214.0" r="3.4" fill="#34d399" fill-opacity="0.75" stroke="#0a0e14" stroke-width="0.6"/><circle cx="62.0" cy="214.0" r="3.4" fill="#34d399" fill-opacity="0.75" stroke="#0a0e14" stroke-width="0.6"/><circle cx="62.0" cy="214.0" r="3.4" fill="#34d399" fill-opacity="0.75" stroke="#0a0e14" stroke-width="0.6"/><circle cx="209.9" cy="214.0" r="3.4" fill="#5b6b7f" fill-opacity="0.75" stroke="#0a0e14" stroke-width="0.6"/><circle cx="148.4" cy="214.0" r="3.4" fill="#5b6b7f" fill-opacity="0.75" stroke="#0a0e14" stroke-width="0.6"/><circle cx="159.3" cy="214.0" r="3.4" fill="#5b6b7f" fill-opacity="0.75" stroke="#0a0e14" stroke-width="0.6"/><circle cx="208.4" cy="214.0" r="3.4" fill="#5b6b7f" fill-opacity="0.75" stroke="#0a0e14" stroke-width="0.6"/><circle cx="395.2" cy="214.0" r="3.4" fill="#5b6b7f" fill-opacity="0.75" stroke="#0a0e14" stroke-width="0.6"/><circle cx="148.4" cy="214.0" r="3.4" fill="#5b6b7f" fill-opacity="0.75" stroke="#0a0e14" stroke-width="0.6"/><circle cx="354.8" cy="214.0" r="3.4" fill="#5b6b7f" fill-opacity="0.75" stroke="#0a0e14" stroke-width="0.6"/><circle cx="306.0" cy="214.0" r="3.4" fill="#5b6b7f" fill-opacity="0.75" stroke="#0a0e14" stroke-width="0.6"/><circle cx="207.1" cy="214.0" r="3.4" fill="#5b6b7f" fill-opacity="0.75" stroke="#0a0e14" stroke-width="0.6"/><circle cx="257.2" cy="214.0" r="3.4" fill="#5b6b7f" fill-opacity="0.75" stroke="#0a0e14" stroke-width="0.6"/><circle cx="354.8" cy="214.0" r="3.4" fill="#5b6b7f" fill-opacity="0.75" stroke="#0a0e14" stroke-width="0.6"/><circle cx="195.9" cy="214.0" r="3.4" fill="#5b6b7f" fill-opacity="0.75" stroke="#0a0e14" stroke-width="0.6"/><circle cx="208.4" cy="214.0" r="3.4" fill="#5b6b7f" fill-opacity="0.75" stroke="#0a0e14" stroke-width="0.6"/><circle cx="207.1" cy="214.0" r="3.4" fill="#5b6b7f" fill-opacity="0.75" stroke="#0a0e14" stroke-width="0.6"/><circle cx="395.2" cy="214.0" r="3.4" fill="#5b6b7f" fill-opacity="0.75" stroke="#0a0e14" stroke-width="0.6"/><circle cx="270.2" cy="214.0" r="3.4" fill="#5b6b7f" fill-opacity="0.75" stroke="#0a0e14" stroke-width="0.6"/><circle cx="354.8" cy="214.0" r="3.4" fill="#5b6b7f" fill-opacity="0.75" stroke="#0a0e14" stroke-width="0.6"/><circle cx="271.5" cy="214.0" r="3.4" fill="#5b6b7f" fill-opacity="0.75" stroke="#0a0e14" stroke-width="0.6"/><circle cx="228.6" cy="64.0" r="3.4" fill="#5b6b7f" fill-opacity="0.75" stroke="#0a0e14" stroke-width="0.6"/><circle cx="152.7" cy="214.0" r="3.4" fill="#5b6b7f" fill-opacity="0.75" stroke="#0a0e14" stroke-width="0.6"/><circle cx="148.4" cy="214.0" r="3.4" fill="#5b6b7f" fill-opacity="0.75" stroke="#0a0e14" stroke-width="0.6"/><circle cx="306.0" cy="214.0" r="3.4" fill="#5b6b7f" fill-opacity="0.75" stroke="#0a0e14" stroke-width="0.6"/><circle cx="186.9" cy="214.0" r="3.4" fill="#5b6b7f" fill-opacity="0.75" stroke="#0a0e14" stroke-width="0.6"/><circle cx="442.7" cy="214.0" r="3.4" fill="#5b6b7f" fill-opacity="0.75" stroke="#0a0e14" stroke-width="0.6"/><circle cx="303.8" cy="214.0" r="3.4" fill="#5b6b7f" fill-opacity="0.75" stroke="#0a0e14" stroke-width="0.6"/><circle cx="208.4" cy="214.0" r="3.4" fill="#5b6b7f" fill-opacity="0.75" stroke="#0a0e14" stroke-width="0.6"/><circle cx="306.0" cy="214.0" r="3.4" fill="#5b6b7f" fill-opacity="0.75" stroke="#0a0e14" stroke-width="0.6"/><circle cx="208.4" cy="214.0" r="3.4" fill="#5b6b7f" fill-opacity="0.75" stroke="#0a0e14" stroke-width="0.6"/><circle cx="306.0" cy="214.0" r="3.4" fill="#5b6b7f" fill-opacity="0.75" stroke="#0a0e14" stroke-width="0.6"/><circle cx="484.7" cy="214.0" r="3.4" fill="#5b6b7f" fill-opacity="0.75" stroke="#0a0e14" stroke-width="0.6"/><circle cx="315.6" cy="214.0" r="3.4" fill="#5b6b7f" fill-opacity="0.75" stroke="#0a0e14" stroke-width="0.6"/><circle cx="199.4" cy="214.0" r="3.4" fill="#5b6b7f" fill-opacity="0.75" stroke="#0a0e14" stroke-width="0.6"/><circle cx="208.4" cy="214.0" r="3.4" fill="#5b6b7f" fill-opacity="0.75" stroke="#0a0e14" stroke-width="0.6"/><circle cx="208.4" cy="214.0" r="3.4" fill="#5b6b7f" fill-opacity="0.75" stroke="#0a0e14" stroke-width="0.6"/><circle cx="354.8" cy="214.0" r="3.4" fill="#5b6b7f" fill-opacity="0.75" stroke="#0a0e14" stroke-width="0.6"/><circle cx="395.2" cy="214.0" r="3.4" fill="#5b6b7f" fill-opacity="0.75" stroke="#0a0e14" stroke-width="0.6"/><circle cx="228.6" cy="214.0" r="3.4" fill="#5b6b7f" fill-opacity="0.75" stroke="#0a0e14" stroke-width="0.6"/><circle cx="303.8" cy="214.0" r="3.4" fill="#5b6b7f" fill-opacity="0.75" stroke="#0a0e14" stroke-width="0.6"/><circle cx="191.6" cy="214.0" r="3.4" fill="#5b6b7f" fill-opacity="0.75" stroke="#0a0e14" stroke-width="0.6"/><circle cx="395.2" cy="214.0" r="3.4" fill="#5b6b7f" fill-opacity="0.75" stroke="#0a0e14" stroke-width="0.6"/><circle cx="354.8" cy="214.0" r="3.4" fill="#5b6b7f" fill-opacity="0.75" stroke="#0a0e14" stroke-width="0.6"/><circle cx="273.3" cy="214.0" r="3.4" fill="#5b6b7f" fill-opacity="0.75" stroke="#0a0e14" stroke-width="0.6"/><circle cx="311.9" cy="214.0" r="3.4" fill="#5b6b7f" fill-opacity="0.75" stroke="#0a0e14" stroke-width="0.6"/><circle cx="208.4" cy="214.0" r="3.4" fill="#5b6b7f" fill-opacity="0.75" stroke="#0a0e14" stroke-width="0.6"/><circle cx="211.2" cy="214.0" r="3.4" fill="#5b6b7f" fill-opacity="0.75" stroke="#0a0e14" stroke-width="0.6"/><circle cx="354.8" cy="214.0" r="3.4" fill="#5b6b7f" fill-opacity="0.75" stroke="#0a0e14" stroke-width="0.6"/><circle cx="354.8" cy="214.0" r="3.4" fill="#5b6b7f" fill-opacity="0.75" stroke="#0a0e14" stroke-width="0.6"/><circle cx="306.0" cy="214.0" r="3.4" fill="#5b6b7f" fill-opacity="0.75" stroke="#0a0e14" stroke-width="0.6"/><circle cx="310.6" cy="214.0" r="3.4" fill="#5b6b7f" fill-opacity="0.75" stroke="#0a0e14" stroke-width="0.6"/><circle cx="307.8" cy="214.0" r="3.4" fill="#5b6b7f" fill-opacity="0.75" stroke="#0a0e14" stroke-width="0.6"/><circle cx="186.3" cy="214.0" r="3.4" fill="#5b6b7f" fill-opacity="0.75" stroke="#0a0e14" stroke-width="0.6"/><circle cx="696.0" cy="214.0" r="3.4" fill="#5b6b7f" fill-opacity="0.75" stroke="#0a0e14" stroke-width="0.6"/><circle cx="258.7" cy="214.0" r="3.4" fill="#5b6b7f" fill-opacity="0.75" stroke="#0a0e14" stroke-width="0.6"/><circle cx="194.4" cy="214.0" r="3.4" fill="#5b6b7f" fill-opacity="0.75" stroke="#0a0e14" stroke-width="0.6"/><circle cx="354.8" cy="214.0" r="3.4" fill="#5b6b7f" fill-opacity="0.75" stroke="#0a0e14" stroke-width="0.6"/><circle cx="352.3" cy="214.0" r="3.4" fill="#5b6b7f" fill-opacity="0.75" stroke="#0a0e14" stroke-width="0.6"/><circle cx="257.2" cy="214.0" r="3.4" fill="#5b6b7f" fill-opacity="0.75" stroke="#0a0e14" stroke-width="0.6"/><circle cx="303.8" cy="214.0" r="3.4" fill="#5b6b7f" fill-opacity="0.75" stroke="#0a0e14" stroke-width="0.6"/><circle cx="149.0" cy="214.0" r="3.4" fill="#5b6b7f" fill-opacity="0.75" stroke="#0a0e14" stroke-width="0.6"/><circle cx="149.0" cy="214.0" r="3.4" fill="#5b6b7f" fill-opacity="0.75" stroke="#0a0e14" stroke-width="0.6"/><circle cx="248.5" cy="214.0" r="3.4" fill="#5b6b7f" fill-opacity="0.75" stroke="#0a0e14" stroke-width="0.6"/><circle cx="354.8" cy="214.0" r="3.4" fill="#5b6b7f" fill-opacity="0.75" stroke="#0a0e14" stroke-width="0.6"/><circle cx="183.8" cy="214.0" r="3.4" fill="#5b6b7f" fill-opacity="0.75" stroke="#0a0e14" stroke-width="0.6"/><circle cx="184.8" cy="214.0" r="3.4" fill="#5b6b7f" fill-opacity="0.75" stroke="#0a0e14" stroke-width="0.6"/><circle cx="188.8" cy="214.0" r="3.4" fill="#5b6b7f" fill-opacity="0.75" stroke="#0a0e14" stroke-width="0.6"/><circle cx="255.0" cy="214.0" r="3.4" fill="#5b6b7f" fill-opacity="0.75" stroke="#0a0e14" stroke-width="0.6"/><circle cx="149.0" cy="214.0" r="3.4" fill="#5b6b7f" fill-opacity="0.75" stroke="#0a0e14" stroke-width="0.6"/><circle cx="354.8" cy="214.0" r="3.4" fill="#5b6b7f" fill-opacity="0.75" stroke="#0a0e14" stroke-width="0.6"/><circle cx="209.6" cy="214.0" r="3.4" fill="#5b6b7f" fill-opacity="0.75" stroke="#0a0e14" stroke-width="0.6"/><circle cx="208.4" cy="214.0" r="3.4" fill="#5b6b7f" fill-opacity="0.75" stroke="#0a0e14" stroke-width="0.6"/><circle cx="248.5" cy="214.0" r="3.4" fill="#5b6b7f" fill-opacity="0.75" stroke="#0a0e14" stroke-width="0.6"/><circle cx="186.3" cy="214.0" r="3.4" fill="#5b6b7f" fill-opacity="0.75" stroke="#0a0e14" stroke-width="0.6"/><circle cx="248.5" cy="214.0" r="3.4" fill="#5b6b7f" fill-opacity="0.75" stroke="#0a0e14" stroke-width="0.6"/><circle cx="208.4" cy="214.0" r="3.4" fill="#5b6b7f" fill-opacity="0.75" stroke="#0a0e14" stroke-width="0.6"/><circle cx="397.3" cy="214.0" r="3.4" fill="#5b6b7f" fill-opacity="0.75" stroke="#0a0e14" stroke-width="0.6"/><circle cx="310.6" cy="214.0" r="3.4" fill="#5b6b7f" fill-opacity="0.75" stroke="#0a0e14" stroke-width="0.6"/><circle cx="208.1" cy="214.0" r="3.4" fill="#5b6b7f" fill-opacity="0.75" stroke="#0a0e14" stroke-width="0.6"/><circle cx="310.6" cy="214.0" r="3.4" fill="#5b6b7f" fill-opacity="0.75" stroke="#0a0e14" stroke-width="0.6"/><circle cx="130.4" cy="214.0" r="3.4" fill="#5b6b7f" fill-opacity="0.75" stroke="#0a0e14" stroke-width="0.6"/><circle cx="167.7" cy="214.0" r="3.4" fill="#5b6b7f" fill-opacity="0.75" stroke="#0a0e14" stroke-width="0.6"/><circle cx="149.0" cy="214.0" r="3.4" fill="#5b6b7f" fill-opacity="0.75" stroke="#0a0e14" stroke-width="0.6"/><circle cx="310.6" cy="214.0" r="3.4" fill="#5b6b7f" fill-opacity="0.75" stroke="#0a0e14" stroke-width="0.6"/><circle cx="315.6" cy="214.0" r="3.4" fill="#5b6b7f" fill-opacity="0.75" stroke="#0a0e14" stroke-width="0.6"/><circle cx="208.4" cy="214.0" r="3.4" fill="#5b6b7f" fill-opacity="0.75" stroke="#0a0e14" stroke-width="0.6"/><circle cx="209.6" cy="214.0" r="3.4" fill="#5b6b7f" fill-opacity="0.75" stroke="#0a0e14" stroke-width="0.6"/><circle cx="114.8" cy="214.0" r="3.4" fill="#5b6b7f" fill-opacity="0.75" stroke="#0a0e14" stroke-width="0.6"/><circle cx="127.3" cy="214.0" r="3.4" fill="#5b6b7f" fill-opacity="0.75" stroke="#0a0e14" stroke-width="0.6"/><circle cx="208.4" cy="214.0" r="3.4" fill="#5b6b7f" fill-opacity="0.75" stroke="#0a0e14" stroke-width="0.6"/><circle cx="248.5" cy="214.0" r="3.4" fill="#5b6b7f" fill-opacity="0.75" stroke="#0a0e14" stroke-width="0.6"/><circle cx="303.8" cy="214.0" r="3.4" fill="#5b6b7f" fill-opacity="0.75" stroke="#0a0e14" stroke-width="0.6"/><circle cx="354.8" cy="214.0" r="3.4" fill="#5b6b7f" fill-opacity="0.75" stroke="#0a0e14" stroke-width="0.6"/><circle cx="124.2" cy="214.0" r="3.4" fill="#5b6b7f" fill-opacity="0.75" stroke="#0a0e14" stroke-width="0.6"/><circle cx="217.4" cy="214.0" r="3.4" fill="#5b6b7f" fill-opacity="0.75" stroke="#0a0e14" stroke-width="0.6"/><circle cx="257.2" cy="214.0" r="3.4" fill="#5b6b7f" fill-opacity="0.75" stroke="#0a0e14" stroke-width="0.6"/><circle cx="190.0" cy="214.0" r="3.4" fill="#5b6b7f" fill-opacity="0.75" stroke="#0a0e14" stroke-width="0.6"/><circle cx="217.4" cy="214.0" r="3.4" fill="#5b6b7f" fill-opacity="0.75" stroke="#0a0e14" stroke-width="0.6"/><circle cx="427.2" cy="214.0" r="3.4" fill="#5b6b7f" fill-opacity="0.75" stroke="#0a0e14" stroke-width="0.6"/><circle cx="186.3" cy="214.0" r="3.4" fill="#5b6b7f" fill-opacity="0.75" stroke="#0a0e14" stroke-width="0.6"/><circle cx="386.1" cy="214.0" r="3.4" fill="#5b6b7f" fill-opacity="0.75" stroke="#0a0e14" stroke-width="0.6"/><circle cx="183.2" cy="214.0" r="3.4" fill="#5b6b7f" fill-opacity="0.75" stroke="#0a0e14" stroke-width="0.6"/><circle cx="310.6" cy="214.0" r="3.4" fill="#5b6b7f" fill-opacity="0.75" stroke="#0a0e14" stroke-width="0.6"/><circle cx="208.4" cy="214.0" r="3.4" fill="#5b6b7f" fill-opacity="0.75" stroke="#0a0e14" stroke-width="0.6"/><circle cx="147.2" cy="214.0" r="3.4" fill="#5b6b7f" fill-opacity="0.75" stroke="#0a0e14" stroke-width="0.6"/><circle cx="303.8" cy="214.0" r="3.4" fill="#5b6b7f" fill-opacity="0.75" stroke="#0a0e14" stroke-width="0.6"/><circle cx="155.2" cy="214.0" r="3.4" fill="#5b6b7f" fill-opacity="0.75" stroke="#0a0e14" stroke-width="0.6"/><circle cx="155.2" cy="214.0" r="3.4" fill="#5b6b7f" fill-opacity="0.75" stroke="#0a0e14" stroke-width="0.6"/><circle cx="186.3" cy="214.0" r="3.4" fill="#5b6b7f" fill-opacity="0.75" stroke="#0a0e14" stroke-width="0.6"/><circle cx="223.6" cy="214.0" r="3.4" fill="#5b6b7f" fill-opacity="0.75" stroke="#0a0e14" stroke-width="0.6"/><circle cx="186.3" cy="214.0" r="3.4" fill="#5b6b7f" fill-opacity="0.75" stroke="#0a0e14" stroke-width="0.6"/><circle cx="357.2" cy="214.0" r="3.4" fill="#5b6b7f" fill-opacity="0.75" stroke="#0a0e14" stroke-width="0.6"/><circle cx="248.5" cy="214.0" r="3.4" fill="#5b6b7f" fill-opacity="0.75" stroke="#0a0e14" stroke-width="0.6"/><circle cx="354.8" cy="214.0" r="3.4" fill="#5b6b7f" fill-opacity="0.75" stroke="#0a0e14" stroke-width="0.6"/><circle cx="211.2" cy="214.0" r="3.4" fill="#5b6b7f" fill-opacity="0.75" stroke="#0a0e14" stroke-width="0.6"/><circle cx="306.0" cy="214.0" r="3.4" fill="#5b6b7f" fill-opacity="0.75" stroke="#0a0e14" stroke-width="0.6"/><circle cx="487.8" cy="214.0" r="3.4" fill="#5b6b7f" fill-opacity="0.75" stroke="#0a0e14" stroke-width="0.6"/><circle cx="487.8" cy="214.0" r="3.4" fill="#5b6b7f" fill-opacity="0.75" stroke="#0a0e14" stroke-width="0.6"/><circle cx="360.7" cy="214.0" r="3.4" fill="#5b6b7f" fill-opacity="0.75" stroke="#0a0e14" stroke-width="0.6"/><circle cx="248.5" cy="214.0" r="3.4" fill="#5b6b7f" fill-opacity="0.75" stroke="#0a0e14" stroke-width="0.6"/><circle cx="258.7" cy="64.0" r="3.4" fill="#5b6b7f" fill-opacity="0.75" stroke="#0a0e14" stroke-width="0.6"/><circle cx="248.5" cy="214.0" r="3.4" fill="#5b6b7f" fill-opacity="0.75" stroke="#0a0e14" stroke-width="0.6"/><circle cx="155.2" cy="214.0" r="3.4" fill="#5b6b7f" fill-opacity="0.75" stroke="#0a0e14" stroke-width="0.6"/><circle cx="186.3" cy="214.0" r="3.4" fill="#5b6b7f" fill-opacity="0.75" stroke="#0a0e14" stroke-width="0.6"/><circle cx="155.2" cy="214.0" r="3.4" fill="#5b6b7f" fill-opacity="0.75" stroke="#0a0e14" stroke-width="0.6"/><circle cx="208.4" cy="214.0" r="3.4" fill="#5b6b7f" fill-opacity="0.75" stroke="#0a0e14" stroke-width="0.6"/><circle cx="231.1" cy="214.0" r="3.4" fill="#5b6b7f" fill-opacity="0.75" stroke="#0a0e14" stroke-width="0.6"/><circle cx="190.0" cy="214.0" r="3.4" fill="#5b6b7f" fill-opacity="0.75" stroke="#0a0e14" stroke-width="0.6"/><circle cx="310.6" cy="214.0" r="3.4" fill="#5b6b7f" fill-opacity="0.75" stroke="#0a0e14" stroke-width="0.6"/><circle cx="258.7" cy="214.0" r="3.4" fill="#5b6b7f" fill-opacity="0.75" stroke="#0a0e14" stroke-width="0.6"/><circle cx="139.7" cy="214.0" r="3.4" fill="#5b6b7f" fill-opacity="0.75" stroke="#0a0e14" stroke-width="0.6"/><circle cx="248.5" cy="214.0" r="3.4" fill="#5b6b7f" fill-opacity="0.75" stroke="#0a0e14" stroke-width="0.6"/><circle cx="208.4" cy="214.0" r="3.4" fill="#5b6b7f" fill-opacity="0.75" stroke="#0a0e14" stroke-width="0.6"/><circle cx="357.2" cy="214.0" r="3.4" fill="#5b6b7f" fill-opacity="0.75" stroke="#0a0e14" stroke-width="0.6"/><circle cx="170.8" cy="214.0" r="3.4" fill="#5b6b7f" fill-opacity="0.75" stroke="#0a0e14" stroke-width="0.6"/><circle cx="310.6" cy="214.0" r="3.4" fill="#5b6b7f" fill-opacity="0.75" stroke="#0a0e14" stroke-width="0.6"/><circle cx="306.0" cy="214.0" r="3.4" fill="#5b6b7f" fill-opacity="0.75" stroke="#0a0e14" stroke-width="0.6"/><circle cx="207.1" cy="214.0" r="3.4" fill="#5b6b7f" fill-opacity="0.75" stroke="#0a0e14" stroke-width="0.6"/><circle cx="139.7" cy="214.0" r="3.4" fill="#5b6b7f" fill-opacity="0.75" stroke="#0a0e14" stroke-width="0.6"/><circle cx="217.4" cy="214.0" r="3.4" fill="#5b6b7f" fill-opacity="0.75" stroke="#0a0e14" stroke-width="0.6"/><circle cx="306.0" cy="214.0" r="3.4" fill="#5b6b7f" fill-opacity="0.75" stroke="#0a0e14" stroke-width="0.6"/><circle cx="149.0" cy="214.0" r="3.4" fill="#5b6b7f" fill-opacity="0.75" stroke="#0a0e14" stroke-width="0.6"/><circle cx="310.6" cy="214.0" r="3.4" fill="#5b6b7f" fill-opacity="0.75" stroke="#0a0e14" stroke-width="0.6"/><circle cx="139.7" cy="214.0" r="3.4" fill="#5b6b7f" fill-opacity="0.75" stroke="#0a0e14" stroke-width="0.6"/><circle cx="248.5" cy="214.0" r="3.4" fill="#5b6b7f" fill-opacity="0.75" stroke="#0a0e14" stroke-width="0.6"/><circle cx="146.8" cy="214.0" r="3.4" fill="#5b6b7f" fill-opacity="0.75" stroke="#0a0e14" stroke-width="0.6"/><circle cx="406.0" cy="214.0" r="3.4" fill="#5b6b7f" fill-opacity="0.75" stroke="#0a0e14" stroke-width="0.6"/><circle cx="310.0" cy="214.0" r="3.4" fill="#5b6b7f" fill-opacity="0.75" stroke="#0a0e14" stroke-width="0.6"/><circle cx="241.0" cy="214.0" r="3.4" fill="#5b6b7f" fill-opacity="0.75" stroke="#0a0e14" stroke-width="0.6"/><circle cx="210.9" cy="214.0" r="3.4" fill="#5b6b7f" fill-opacity="0.75" stroke="#0a0e14" stroke-width="0.6"/><circle cx="307.8" cy="214.0" r="3.4" fill="#5b6b7f" fill-opacity="0.75" stroke="#0a0e14" stroke-width="0.6"/><circle cx="466.0" cy="214.0" r="3.4" fill="#5b6b7f" fill-opacity="0.75" stroke="#0a0e14" stroke-width="0.6"/><circle cx="180.7" cy="214.0" r="3.4" fill="#5b6b7f" fill-opacity="0.75" stroke="#0a0e14" stroke-width="0.6"/><circle cx="210.9" cy="214.0" r="3.4" fill="#5b6b7f" fill-opacity="0.75" stroke="#0a0e14" stroke-width="0.6"/><circle cx="260.6" cy="214.0" r="3.4" fill="#5b6b7f" fill-opacity="0.75" stroke="#0a0e14" stroke-width="0.6"/><circle cx="316.5" cy="214.0" r="3.4" fill="#5b6b7f" fill-opacity="0.75" stroke="#0a0e14" stroke-width="0.6"/><circle cx="168.0" cy="214.0" r="3.4" fill="#5b6b7f" fill-opacity="0.75" stroke="#0a0e14" stroke-width="0.6"/><rect x="585.8000000000001" y="394" width="12" height="12" rx="3" fill="#5b6b7f"/><text x="603.8000000000001" y="404" font-size="9.5" fill="#9fb0c3">未放款</text><rect x="639.6" y="394" width="12" height="12" rx="3" fill="#34d399"/><text x="657.6" y="404" font-size="9.5" fill="#9fb0c3">放款成功</text><text x="24" y="406" font-size="10.5" fill="#5b6b7f">反直觉：授信额度高的借款人放款率反而低（额度≥5万仅 1.5% 融到款 vs &lt;5万 40.3%）——大额难融、小额易融。放款成功主要由借款规模驱动、与信用强弱负相关，**不是信用/还款能力的度量**。数据：人人贷 P2P 真实列（CC0，大陆）；标的=放款成功、非违约。</text>
</svg>