<svg xmlns="http://www.w3.org/2000/svg" viewBox="0 0 900 380" font-family="PingFang SC,Microsoft YaHei,sans-serif">
  <defs><linearGradient id="bg" x1="0" y1="0" x2="1" y2="1"><stop offset="0" stop-color="#0a0e14"/><stop offset="1" stop-color="#0d1220"/></linearGradient>
  <linearGradient id="acc" x1="0" y1="0" x2="1" y2="0"><stop offset="0" stop-color="#22d3ee"/><stop offset="1" stop-color="#38bdf8"/></linearGradient>
  <pattern id="g" width="26" height="26" patternUnits="userSpaceOnUse"><path d="M26 0H0V26" fill="none" stroke="#16202e" stroke-width="1"/></pattern>
  <filter id="glow"><feGaussianBlur stdDeviation="2.2" result="b"/><feMerge><feMergeNode in="b"/><feMergeNode in="SourceGraphic"/></feMerge></filter></defs>
  <rect width="900" height="380" fill="url(#bg)"/><rect width="900" height="380" fill="url(#g)" opacity="0.4"/><rect x="0" y="0" width="6" height="380" fill="url(#acc)"/><rect x="20" y="152" width="94" height="72" rx="9" fill="#121826" stroke="#1e2a3a"/><rect x="20" y="152" width="94" height="2" fill="#22d3ee"/>
      <g transform="translate(57,164) scale(0.85)" stroke="#22d3ee" fill="none" stroke-width="1.7" stroke-linecap="round" stroke-linejoin="round"><path d="M12 18V5" />
  <path d="M15 13a4.17 4.17 0 0 1-3-4 4.17 4.17 0 0 1-3 4" />
  <path d="M17.598 6.5A3 3 0 1 0 12 5a3 3 0 1 0-5.598 1.5" />
  <path d="M17.997 5.125a4 4 0 0 1 2.526 5.77" />
  <path d="M18 18a4 4 0 0 0 2-7.464" />
  <path d="M19.967 17.483A4 4 0 1 1 12 18a4 4 0 1 1-7.967-.517" />
  <path d="M6 18a4 4 0 0 1-2-7.464" />
  <path d="M6.003 5.125a4 4 0 0 0-2.526 5.77" /></g>
      <text x="67" y="212" font-size="13" fill="#e6edf6" text-anchor="middle">LLM</text><text x="120" y="192" font-size="15" fill="#22d3ee">›</text><rect x="128" y="152" width="94" height="72" rx="9" fill="#121826" stroke="#1e2a3a"/><rect x="128" y="152" width="94" height="2" fill="#22d3ee"/>
      <g transform="translate(165,164) scale(0.85)" stroke="#22d3ee" fill="none" stroke-width="1.7" stroke-linecap="round" stroke-linejoin="round"><rect x="14" y="14" width="4" height="6" rx="2" />
  <rect x="6" y="4" width="4" height="6" rx="2" />
  <path d="M6 20h4" />
  <path d="M14 10h4" />
  <path d="M6 14h2v6" />
  <path d="M14 4h2v6" /></g>
      <text x="175" y="212" font-size="13" fill="#e6edf6" text-anchor="middle">Token</text><text x="228" y="192" font-size="15" fill="#22d3ee">›</text><rect x="236" y="152" width="94" height="72" rx="9" fill="#121826" stroke="#1e2a3a"/><rect x="236" y="152" width="94" height="2" fill="#22d3ee"/>
      <g transform="translate(273,164) scale(0.85)" stroke="#22d3ee" fill="none" stroke-width="1.7" stroke-linecap="round" stroke-linejoin="round"><path d="M12.83 2.18a2 2 0 0 0-1.66 0L2.6 6.08a1 1 0 0 0 0 1.83l8.58 3.91a2 2 0 0 0 1.66 0l8.58-3.9a1 1 0 0 0 0-1.83z" />
  <path d="M2 12a1 1 0 0 0 .58.91l8.6 3.91a2 2 0 0 0 1.65 0l8.58-3.9A1 1 0 0 0 22 12" />
  <path d="M2 17a1 1 0 0 0 .58.91l8.6 3.91a2 2 0 0 0 1.65 0l8.58-3.9A1 1 0 0 0 22 17" /></g>
      <text x="283" y="212" font-size="13" fill="#e6edf6" text-anchor="middle">Context</text><text x="336" y="192" font-size="15" fill="#22d3ee">›</text><rect x="344" y="152" width="94" height="72" rx="9" fill="#121826" stroke="#1e2a3a"/><rect x="344" y="152" width="94" height="2" fill="#22d3ee"/>
      <g transform="translate(381,164) scale(0.85)" stroke="#22d3ee" fill="none" stroke-width="1.7" stroke-linecap="round" stroke-linejoin="round"><rect width="8" height="8" x="3" y="3" rx="2" />
  <path d="M7 11v4a2 2 0 0 0 2 2h4" />
  <rect width="8" height="8" x="13" y="13" rx="2" /></g>
      <text x="391" y="212" font-size="13" fill="#e6edf6" text-anchor="middle">Prompt</text><text x="444" y="192" font-size="15" fill="#22d3ee">›</text><rect x="452" y="152" width="94" height="72" rx="9" fill="#121826" stroke="#1e2a3a"/><rect x="452" y="152" width="94" height="2" fill="#22d3ee"/>
      <g transform="translate(489,164) scale(0.85)" stroke="#22d3ee" fill="none" stroke-width="1.7" stroke-linecap="round" stroke-linejoin="round"><path d="M21 8a2 2 0 0 0-1-1.73l-7-4a2 2 0 0 0-2 0l-7 4A2 2 0 0 0 3 8v8a2 2 0 0 0 1 1.73l7 4a2 2 0 0 0 2 0l7-4A2 2 0 0 0 21 16Z" />
  <path d="m3.3 7 8.7 5 8.7-5" />
  <path d="M12 22V12" /></g>
      <text x="499" y="212" font-size="13" fill="#e6edf6" text-anchor="middle">Tool</text><text x="552" y="192" font-size="15" fill="#22d3ee">›</text><rect x="560" y="152" width="94" height="72" rx="9" fill="#121826" stroke="#1e2a3a"/><rect x="560" y="152" width="94" height="2" fill="#22d3ee"/>
      <g transform="translate(597,164) scale(0.85)" stroke="#22d3ee" fill="none" stroke-width="1.7" stroke-linecap="round" stroke-linejoin="round"><rect x="16" y="16" width="6" height="6" rx="1" />
  <rect x="2" y="16" width="6" height="6" rx="1" />
  <rect x="9" y="2" width="6" height="6" rx="1" />
  <path d="M5 16v-3a1 1 0 0 1 1-1h12a1 1 0 0 1 1 1v3" />
  <path d="M12 12V8" /></g>
      <text x="607" y="212" font-size="13" fill="#e6edf6" text-anchor="middle">MCP</text><text x="660" y="192" font-size="15" fill="#22d3ee">›</text><rect x="668" y="152" width="94" height="72" rx="9" fill="#121826" stroke="#1e2a3a"/><rect x="668" y="152" width="94" height="2" fill="#22d3ee"/>
      <g transform="translate(705,164) scale(0.85)" stroke="#22d3ee" fill="none" stroke-width="1.7" stroke-linecap="round" stroke-linejoin="round"><path d="M12 20v2" />
  <path d="M12 2v2" />
  <path d="M17 20v2" />
  <path d="M17 2v2" />
  <path d="M2 12h2" />
  <path d="M2 17h2" />
  <path d="M2 7h2" />
  <path d="M20 12h2" />
  <path d="M20 17h2" />
  <path d="M20 7h2" />
  <path d="M7 20v2" />
  <path d="M7 2v2" />
  <rect x="4" y="4" width="16" height="16" rx="2" />
  <rect x="8" y="8" width="8" height="8" rx="1" /></g>
      <text x="715" y="212" font-size="13" fill="#e6edf6" text-anchor="middle">Agent</text><text x="768" y="192" font-size="15" fill="#22d3ee">›</text><rect x="776" y="152" width="94" height="72" rx="9" fill="#121826" stroke="#1e2a3a"/><rect x="776" y="152" width="94" height="2" fill="#22d3ee"/>
      <g transform="translate(813,164) scale(0.85)" stroke="#22d3ee" fill="none" stroke-width="1.7" stroke-linecap="round" stroke-linejoin="round"><path d="M2.97 12.92A2 2 0 0 0 2 14.63v3.24a2 2 0 0 0 .97 1.71l3 1.8a2 2 0 0 0 2.06 0L12 19v-5.5l-5-3-4.03 2.42Z" />
  <path d="m7 16.5-4.74-2.85" />
  <path d="m7 16.5 5-3" />
  <path d="M7 16.5v5.17" />
  <path d="M12 13.5V19l3.97 2.38a2 2 0 0 0 2.06 0l3-1.8a2 2 0 0 0 .97-1.71v-3.24a2 2 0 0 0-.97-1.71L17 10.5l-5 3Z" />
  <path d="m17 16.5-5-3" />
  <path d="m17 16.5 4.74-2.85" />
  <path d="M17 16.5v5.17" />
  <path d="M7.97 4.42A2 2 0 0 0 7 6.13v4.37l5 3 5-3V6.13a2 2 0 0 0-.97-1.71l-3-1.8a2 2 0 0 0-2.06 0l-3 1.8Z" />
  <path d="M12 8 7.26 5.15" />
  <path d="m12 8 4.74-2.85" />
  <path d="M12 13.5V8" /></g>
      <text x="823" y="212" font-size="13" fill="#e6edf6" text-anchor="middle">Skill</text><text x="20" y="90" font-size="14" fill="#e6edf6">AI 核心概念底层链路（从底层到上层）</text><text x="20" y="300" font-size="11" fill="#5b6b7f">LLM 逐词生成 · Token 计量 · Context 记忆 · Prompt 驱动 · Tool/MCP 触达 · Agent/Skill 自主 · 图标 Lucide(ISC)</text></svg>