<svg xmlns="http://www.w3.org/2000/svg" viewBox="0 0 1210 300" font-family="PingFang SC,Microsoft YaHei,sans-serif">
  <defs>
    <linearGradient id="dbg" x1="0" y1="0" x2="1" y2="1"><stop offset="0" stop-color="#0a0e14"/><stop offset="1" stop-color="#0d1220"/></linearGradient>
    <linearGradient id="dac" x1="0" y1="0" x2="1" y2="0"><stop offset="0" stop-color="#22d3ee"/><stop offset="1" stop-color="#38bdf8"/></linearGradient>
    <pattern id="dgrid" width="30" height="30" patternUnits="userSpaceOnUse"><path d="M30 0H0V30" fill="none" stroke="#16202e" stroke-width="1"/></pattern>
    <filter id="dsh" x="-20%" y="-20%" width="140%" height="140%"><feDropShadow dx="0" dy="1.5" stdDeviation="2.5" flood-color="#000" flood-opacity="0.35"/></filter>
  </defs>
  <rect width="1210" height="300" fill="url(#dbg)"/><rect width="1210" height="300" fill="url(#dgrid)" opacity="0.35"/>
  <rect x="0" y="0" width="1210" height="44" fill="#121826" opacity="0.5"/>
  <rect x="24" y="13" width="4" height="19" rx="2" fill="url(#dac)"/>
  <text x="36" y="28" font-size="15" font-weight="750" fill="#e6edf6">§99 · 结课回顾：一条主线串起全书（一个操作模型·三个镜头）</text>
<line x1="180.0" y1="167.0" x2="198.0" y2="167.0" stroke="#38bdf8" stroke-width="1.6" /><path d="M198 167 L191.4 170.6 L191.4 163.4 z" fill="#38bdf8"/>
<line x1="348.0" y1="167.0" x2="366.0" y2="167.0" stroke="#38bdf8" stroke-width="1.6" /><path d="M366 167 L359.4 170.6 L359.4 163.4 z" fill="#38bdf8"/>
<line x1="516.0" y1="167.0" x2="534.0" y2="167.0" stroke="#38bdf8" stroke-width="1.6" /><path d="M534 167 L527.4 170.6 L527.4 163.4 z" fill="#38bdf8"/>
<line x1="684.0" y1="167.0" x2="702.0" y2="167.0" stroke="#38bdf8" stroke-width="1.6" /><path d="M702 167 L695.4 170.6 L695.4 163.4 z" fill="#38bdf8"/>
<line x1="852.0" y1="167.0" x2="870.0" y2="167.0" stroke="#38bdf8" stroke-width="1.6" /><path d="M870 167 L863.4 170.6 L863.4 163.4 z" fill="#38bdf8"/>
<line x1="1020.0" y1="167.0" x2="1038.0" y2="167.0" stroke="#38bdf8" stroke-width="1.6" /><path d="M1038 167 L1031.4 170.6 L1031.4 163.4 z" fill="#38bdf8"/>
<rect x="30" y="130" width="150" height="74" rx="10" fill="#121826" stroke="#22d3ee" stroke-width="1.4"  filter="url(#dsh)"/>
  <rect x="30" y="130" width="150" height="3" rx="1.5" fill="#22d3ee"/>
  <text x="105" y="166" font-size="12" font-weight="700" fill="#e6edf6" text-anchor="middle">§1 认知</text><text x="105" y="181" font-size="9.5" fill="#5b6b7f" text-anchor="middle">AI 底层</text>
<rect x="198" y="130" width="150" height="74" rx="10" fill="#121826" stroke="#22d3ee" stroke-width="1.4"  filter="url(#dsh)"/>
  <rect x="198" y="130" width="150" height="3" rx="1.5" fill="#22d3ee"/>
  <text x="273" y="166" font-size="12" font-weight="700" fill="#e6edf6" text-anchor="middle">§2 Loop</text><text x="273" y="181" font-size="9.5" fill="#5b6b7f" text-anchor="middle">操作模型脊柱</text>
<rect x="366" y="130" width="150" height="74" rx="10" fill="#121826" stroke="#22d3ee" stroke-width="1.4"  filter="url(#dsh)"/>
  <rect x="366" y="130" width="150" height="3" rx="1.5" fill="#22d3ee"/>
  <text x="441" y="166" font-size="12" font-weight="700" fill="#e6edf6" text-anchor="middle">§3 架构方法论</text><text x="441" y="181" font-size="9.5" fill="#5b6b7f" text-anchor="middle">SDD/C4/DDD</text>
<rect x="534" y="130" width="150" height="74" rx="10" fill="#121826" stroke="#22d3ee" stroke-width="1.4"  filter="url(#dsh)"/>
  <rect x="534" y="130" width="150" height="3" rx="1.5" fill="#22d3ee"/>
  <text x="609" y="166" font-size="12" font-weight="700" fill="#e6edf6" text-anchor="middle">§4-5 规范·设计</text><text x="609" y="181" font-size="9.5" fill="#5b6b7f" text-anchor="middle">研发/产品底子</text>
<rect x="702" y="130" width="150" height="74" rx="10" fill="#121826" stroke="#22d3ee" stroke-width="1.4"  filter="url(#dsh)"/>
  <rect x="702" y="130" width="150" height="3" rx="1.5" fill="#22d3ee"/>
  <text x="777" y="166" font-size="12" font-weight="700" fill="#e6edf6" text-anchor="middle">§6 治理</text><text x="777" y="181" font-size="9.5" fill="#5b6b7f" text-anchor="middle">项目门禁</text>
<rect x="870" y="130" width="150" height="74" rx="10" fill="#121826" stroke="#22d3ee" stroke-width="1.4"  filter="url(#dsh)"/>
  <rect x="870" y="130" width="150" height="3" rx="1.5" fill="#22d3ee"/>
  <text x="945" y="166" font-size="12" font-weight="700" fill="#e6edf6" text-anchor="middle">15 案例</text><text x="945" y="181" font-size="9.5" fill="#5b6b7f" text-anchor="middle">真数据·可运行</text>
<rect x="1038" y="130" width="150" height="74" rx="10" fill="#121826" stroke="#34d399" stroke-width="1.4"  filter="url(#dsh)"/>
  <rect x="1038" y="130" width="150" height="3" rx="1.5" fill="#34d399"/>
  <text x="1113" y="166" font-size="12" font-weight="700" fill="#e6edf6" text-anchor="middle">你的项目</text><text x="1113" y="181" font-size="9.5" fill="#5b6b7f" text-anchor="middle">把方法用起来</text>
<text x="24" y="286" font-size="10.5" fill="#5b6b7f">认知→Loop→架构方法论→规范/设计→治理→案例→你的项目；主脊 §1-§2 三镜头共读，其余按角色深读。</text>
</svg>