<svg xmlns="http://www.w3.org/2000/svg" viewBox="0 0 720 420" font-family="PingFang SC,Microsoft YaHei,sans-serif">
  <defs>
    <linearGradient id="dbg" x1="0" y1="0" x2="1" y2="1"><stop offset="0" stop-color="#0a0e14"/><stop offset="1" stop-color="#0d1220"/></linearGradient>
    <linearGradient id="dac" x1="0" y1="0" x2="1" y2="0"><stop offset="0" stop-color="#22d3ee"/><stop offset="1" stop-color="#38bdf8"/></linearGradient>
    <pattern id="dgrid" width="30" height="30" patternUnits="userSpaceOnUse"><path d="M30 0H0V30" fill="none" stroke="#16202e" stroke-width="1"/></pattern>
    <filter id="dsh" x="-20%" y="-20%" width="140%" height="140%"><feDropShadow dx="0" dy="1.5" stdDeviation="2.5" flood-color="#000" flood-opacity="0.35"/></filter>
  </defs>
  <rect width="720" height="420" fill="url(#dbg)"/><rect width="720" height="420" fill="url(#dgrid)" opacity="0.35"/>
  <rect x="0" y="0" width="720" height="44" fill="#121826" opacity="0.5"/>
  <rect x="24" y="13" width="4" height="19" rx="2" fill="url(#dac)"/>
  <text x="36" y="28" font-size="15" font-weight="750" fill="#e6edf6">案例 02 · 真实客户 vs 教学合成：R×F 双散点</text><line x1="62" y1="364" x2="696" y2="364" stroke="#1e2a3a"/><line x1="62" y1="64" x2="62" y2="364" stroke="#1e2a3a"/><text x="62.0" y="380" font-size="9" fill="#5b6b7f" text-anchor="middle">0</text><text x="54" y="367.0" font-size="9" fill="#5b6b7f" text-anchor="end">0</text><text x="220.5" y="380" font-size="9" fill="#5b6b7f" text-anchor="middle">99</text><text x="54" y="292.0" font-size="9" fill="#5b6b7f" text-anchor="end">15</text><line x1="62" y1="289.0" x2="696" y2="289.0" stroke="#16202e" stroke-width="0.6"/><text x="379.0" y="380" font-size="9" fill="#5b6b7f" text-anchor="middle">199</text><text x="54" y="217.0" font-size="9" fill="#5b6b7f" text-anchor="end">30</text><line x1="62" y1="214.0" x2="696" y2="214.0" stroke="#16202e" stroke-width="0.6"/><text x="537.5" y="380" font-size="9" fill="#5b6b7f" text-anchor="middle">298</text><text x="54" y="142.0" font-size="9" fill="#5b6b7f" text-anchor="end">45</text><line x1="62" y1="139.0" x2="696" y2="139.0" stroke="#16202e" stroke-width="0.6"/><text x="696.0" y="380" font-size="9" fill="#5b6b7f" text-anchor="middle">397</text><text x="54" y="67.0" font-size="9" fill="#5b6b7f" text-anchor="end">60</text><line x1="62" y1="64.0" x2="696" y2="64.0" stroke="#16202e" stroke-width="0.6"/><text x="379" y="396" font-size="10" fill="#9fb0c3" text-anchor="middle">R · 最近一次距今(天)</text><text x="16" y="214" font-size="10" fill="#9fb0c3" text-anchor="middle" transform="rotate(-90 16 214)">F · 频次</text><circle cx="268.0" cy="324.0" r="3.4" fill="#34d399" fill-opacity="0.75" stroke="#0a0e14" stroke-width="0.6"/><circle cx="76.4" cy="354.0" r="3.4" fill="#34d399" fill-opacity="0.75" stroke="#0a0e14" stroke-width="0.6"/><circle cx="114.7" cy="289.0" r="3.4" fill="#34d399" fill-opacity="0.75" stroke="#0a0e14" stroke-width="0.6"/><circle cx="143.4" cy="344.0" r="3.4" fill="#34d399" fill-opacity="0.75" stroke="#0a0e14" stroke-width="0.6"/><circle cx="62.0" cy="359.0" r="3.4" fill="#34d399" fill-opacity="0.75" stroke="#0a0e14" stroke-width="0.6"/><circle cx="175.4" cy="354.0" r="3.4" fill="#34d399" fill-opacity="0.75" stroke="#0a0e14" stroke-width="0.6"/><circle cx="116.3" cy="339.0" r="3.4" fill="#34d399" fill-opacity="0.75" stroke="#0a0e14" stroke-width="0.6"/><circle cx="116.3" cy="354.0" r="3.4" fill="#34d399" fill-opacity="0.75" stroke="#0a0e14" stroke-width="0.6"/><circle cx="108.3" cy="344.0" r="3.4" fill="#34d399" fill-opacity="0.75" stroke="#0a0e14" stroke-width="0.6"/><circle cx="149.8" cy="354.0" r="3.4" fill="#34d399" fill-opacity="0.75" stroke="#0a0e14" stroke-width="0.6"/><circle cx="406.9" cy="334.0" r="3.4" fill="#34d399" fill-opacity="0.75" stroke="#0a0e14" stroke-width="0.6"/><circle cx="92.3" cy="319.0" r="3.4" fill="#34d399" fill-opacity="0.75" stroke="#0a0e14" stroke-width="0.6"/><circle cx="156.2" cy="349.0" r="3.4" fill="#34d399" fill-opacity="0.75" stroke="#0a0e14" stroke-width="0.6"/><circle cx="153.0" cy="359.0" r="3.4" fill="#34d399" fill-opacity="0.75" stroke="#0a0e14" stroke-width="0.6"/><circle cx="387.8" cy="359.0" r="3.4" fill="#34d399" fill-opacity="0.75" stroke="#0a0e14" stroke-width="0.6"/><circle cx="620.9" cy="359.0" r="3.4" fill="#34d399" fill-opacity="0.75" stroke="#0a0e14" stroke-width="0.6"/><circle cx="148.2" cy="359.0" r="3.4" fill="#34d399" fill-opacity="0.75" stroke="#0a0e14" stroke-width="0.6"/><circle cx="296.8" cy="334.0" r="3.4" fill="#34d399" fill-opacity="0.75" stroke="#0a0e14" stroke-width="0.6"/><circle cx="512.3" cy="354.0" r="3.4" fill="#34d399" fill-opacity="0.75" stroke="#0a0e14" stroke-width="0.6"/><circle cx="82.8" cy="354.0" r="3.4" fill="#34d399" fill-opacity="0.75" stroke="#0a0e14" stroke-width="0.6"/><circle cx="576.2" cy="354.0" r="3.4" fill="#34d399" fill-opacity="0.75" stroke="#0a0e14" stroke-width="0.6"/><circle cx="76.4" cy="349.0" r="3.4" fill="#34d399" fill-opacity="0.75" stroke="#0a0e14" stroke-width="0.6"/><circle cx="600.2" cy="359.0" r="3.4" fill="#34d399" fill-opacity="0.75" stroke="#0a0e14" stroke-width="0.6"/><circle cx="641.7" cy="359.0" r="3.4" fill="#34d399" fill-opacity="0.75" stroke="#0a0e14" stroke-width="0.6"/><circle cx="253.6" cy="339.0" r="3.4" fill="#34d399" fill-opacity="0.75" stroke="#0a0e14" stroke-width="0.6"/><circle cx="114.7" cy="339.0" r="3.4" fill="#34d399" fill-opacity="0.75" stroke="#0a0e14" stroke-width="0.6"/><circle cx="154.6" cy="354.0" r="3.4" fill="#34d399" fill-opacity="0.75" stroke="#0a0e14" stroke-width="0.6"/><circle cx="95.5" cy="339.0" r="3.4" fill="#34d399" fill-opacity="0.75" stroke="#0a0e14" stroke-width="0.6"/><circle cx="242.5" cy="359.0" r="3.4" fill="#34d399" fill-opacity="0.75" stroke="#0a0e14" stroke-width="0.6"/><circle cx="98.7" cy="344.0" r="3.4" fill="#34d399" fill-opacity="0.75" stroke="#0a0e14" stroke-width="0.6"/><circle cx="394.2" cy="359.0" r="3.4" fill="#34d399" fill-opacity="0.75" stroke="#0a0e14" stroke-width="0.6"/><circle cx="82.8" cy="329.0" r="3.4" fill="#34d399" fill-opacity="0.75" stroke="#0a0e14" stroke-width="0.6"/><circle cx="210.5" cy="359.0" r="3.4" fill="#34d399" fill-opacity="0.75" stroke="#0a0e14" stroke-width="0.6"/><circle cx="628.9" cy="359.0" r="3.4" fill="#34d399" fill-opacity="0.75" stroke="#0a0e14" stroke-width="0.6"/><circle cx="432.5" cy="359.0" r="3.4" fill="#34d399" fill-opacity="0.75" stroke="#0a0e14" stroke-width="0.6"/><circle cx="333.5" cy="359.0" r="3.4" fill="#34d399" fill-opacity="0.75" stroke="#0a0e14" stroke-width="0.6"/><circle cx="395.8" cy="354.0" r="3.4" fill="#34d399" fill-opacity="0.75" stroke="#0a0e14" stroke-width="0.6"/><circle cx="422.9" cy="349.0" r="3.4" fill="#34d399" fill-opacity="0.75" stroke="#0a0e14" stroke-width="0.6"/><circle cx="84.4" cy="354.0" r="3.4" fill="#34d399" fill-opacity="0.75" stroke="#0a0e14" stroke-width="0.6"/><circle cx="585.8" cy="354.0" r="3.4" fill="#34d399" fill-opacity="0.75" stroke="#0a0e14" stroke-width="0.6"/><circle cx="161.0" cy="354.0" r="3.4" fill="#34d399" fill-opacity="0.75" stroke="#0a0e14" stroke-width="0.6"/><circle cx="375.0" cy="354.0" r="3.4" fill="#34d399" fill-opacity="0.75" stroke="#0a0e14" stroke-width="0.6"/><circle cx="274.4" cy="349.0" r="3.4" fill="#34d399" fill-opacity="0.75" stroke="#0a0e14" stroke-width="0.6"/><circle cx="86.0" cy="354.0" r="3.4" fill="#34d399" fill-opacity="0.75" stroke="#0a0e14" stroke-width="0.6"/><circle cx="333.5" cy="359.0" r="3.4" fill="#34d399" fill-opacity="0.75" stroke="#0a0e14" stroke-width="0.6"/><circle cx="167.4" cy="349.0" r="3.4" fill="#34d399" fill-opacity="0.75" stroke="#0a0e14" stroke-width="0.6"/><circle cx="287.2" cy="359.0" r="3.4" fill="#34d399" fill-opacity="0.75" stroke="#0a0e14" stroke-width="0.6"/><circle cx="122.7" cy="349.0" r="3.4" fill="#34d399" fill-opacity="0.75" stroke="#0a0e14" stroke-width="0.6"/><circle cx="82.8" cy="354.0" r="3.4" fill="#34d399" fill-opacity="0.75" stroke="#0a0e14" stroke-width="0.6"/><circle cx="597.0" cy="359.0" r="3.4" fill="#34d399" fill-opacity="0.75" stroke="#0a0e14" stroke-width="0.6"/><circle cx="474.0" cy="359.0" r="3.4" fill="#34d399" fill-opacity="0.75" stroke="#0a0e14" stroke-width="0.6"/><circle cx="344.7" cy="359.0" r="3.4" fill="#34d399" fill-opacity="0.75" stroke="#0a0e14" stroke-width="0.6"/><circle cx="153.0" cy="354.0" r="3.4" fill="#34d399" fill-opacity="0.75" stroke="#0a0e14" stroke-width="0.6"/><circle cx="140.3" cy="359.0" r="3.4" fill="#34d399" fill-opacity="0.75" stroke="#0a0e14" stroke-width="0.6"/><circle cx="186.6" cy="354.0" r="3.4" fill="#34d399" fill-opacity="0.75" stroke="#0a0e14" stroke-width="0.6"/><circle cx="156.2" cy="354.0" r="3.4" fill="#34d399" fill-opacity="0.75" stroke="#0a0e14" stroke-width="0.6"/><circle cx="585.8" cy="359.0" r="3.4" fill="#34d399" fill-opacity="0.75" stroke="#0a0e14" stroke-width="0.6"/><circle cx="391.0" cy="359.0" r="3.4" fill="#34d399" fill-opacity="0.75" stroke="#0a0e14" stroke-width="0.6"/><circle cx="188.2" cy="359.0" r="3.4" fill="#34d399" fill-opacity="0.75" stroke="#0a0e14" stroke-width="0.6"/><circle cx="137.1" cy="359.0" r="3.4" fill="#34d399" fill-opacity="0.75" stroke="#0a0e14" stroke-width="0.6"/><circle cx="105.1" cy="359.0" r="3.4" fill="#34d399" fill-opacity="0.75" stroke="#0a0e14" stroke-width="0.6"/><circle cx="561.9" cy="359.0" r="3.4" fill="#34d399" fill-opacity="0.75" stroke="#0a0e14" stroke-width="0.6"/><circle cx="357.4" cy="359.0" r="3.4" fill="#34d399" fill-opacity="0.75" stroke="#0a0e14" stroke-width="0.6"/><circle cx="156.2" cy="354.0" r="3.4" fill="#34d399" fill-opacity="0.75" stroke="#0a0e14" stroke-width="0.6"/><circle cx="339.9" cy="354.0" r="3.4" fill="#34d399" fill-opacity="0.75" stroke="#0a0e14" stroke-width="0.6"/><circle cx="389.4" cy="359.0" r="3.4" fill="#34d399" fill-opacity="0.75" stroke="#0a0e14" stroke-width="0.6"/><circle cx="127.5" cy="359.0" r="3.4" fill="#34d399" fill-opacity="0.75" stroke="#0a0e14" stroke-width="0.6"/><circle cx="581.0" cy="359.0" r="3.4" fill="#34d399" fill-opacity="0.75" stroke="#0a0e14" stroke-width="0.6"/><circle cx="477.2" cy="359.0" r="3.4" fill="#34d399" fill-opacity="0.75" stroke="#0a0e14" stroke-width="0.6"/><circle cx="410.1" cy="359.0" r="3.4" fill="#34d399" fill-opacity="0.75" stroke="#0a0e14" stroke-width="0.6"/><circle cx="331.9" cy="359.0" r="3.4" fill="#34d399" fill-opacity="0.75" stroke="#0a0e14" stroke-width="0.6"/><circle cx="276.0" cy="359.0" r="3.4" fill="#34d399" fill-opacity="0.75" stroke="#0a0e14" stroke-width="0.6"/><circle cx="204.1" cy="359.0" r="3.4" fill="#34d399" fill-opacity="0.75" stroke="#0a0e14" stroke-width="0.6"/><circle cx="161.0" cy="359.0" r="3.4" fill="#34d399" fill-opacity="0.75" stroke="#0a0e14" stroke-width="0.6"/><circle cx="130.7" cy="359.0" r="3.4" fill="#34d399" fill-opacity="0.75" stroke="#0a0e14" stroke-width="0.6"/><circle cx="89.1" cy="359.0" r="3.4" fill="#34d399" fill-opacity="0.75" stroke="#0a0e14" stroke-width="0.6"/><circle cx="70.0" cy="354.0" r="3.4" fill="#34d399" fill-opacity="0.75" stroke="#0a0e14" stroke-width="0.6"/><circle cx="368.6" cy="354.0" r="3.4" fill="#34d399" fill-opacity="0.75" stroke="#0a0e14" stroke-width="0.6"/><circle cx="95.5" cy="354.0" r="3.4" fill="#34d399" fill-opacity="0.75" stroke="#0a0e14" stroke-width="0.6"/><circle cx="175.4" cy="349.0" r="3.4" fill="#34d399" fill-opacity="0.75" stroke="#0a0e14" stroke-width="0.6"/><circle cx="86.0" cy="349.0" r="3.4" fill="#34d399" fill-opacity="0.75" stroke="#0a0e14" stroke-width="0.6"/><circle cx="279.2" cy="359.0" r="3.4" fill="#34d399" fill-opacity="0.75" stroke="#0a0e14" stroke-width="0.6"/><circle cx="137.1" cy="359.0" r="3.4" fill="#34d399" fill-opacity="0.75" stroke="#0a0e14" stroke-width="0.6"/><circle cx="410.1" cy="349.0" r="3.4" fill="#34d399" fill-opacity="0.75" stroke="#0a0e14" stroke-width="0.6"/><circle cx="106.7" cy="349.0" r="3.4" fill="#34d399" fill-opacity="0.75" stroke="#0a0e14" stroke-width="0.6"/><circle cx="116.3" cy="359.0" r="3.4" fill="#34d399" fill-opacity="0.75" stroke="#0a0e14" stroke-width="0.6"/><circle cx="509.2" cy="359.0" r="3.4" fill="#34d399" fill-opacity="0.75" stroke="#0a0e14" stroke-width="0.6"/><circle cx="264.8" cy="359.0" r="3.4" fill="#34d399" fill-opacity="0.75" stroke="#0a0e14" stroke-width="0.6"/><circle cx="577.8" cy="359.0" r="3.4" fill="#34d399" fill-opacity="0.75" stroke="#0a0e14" stroke-width="0.6"/><circle cx="483.6" cy="359.0" r="3.4" fill="#34d399" fill-opacity="0.75" stroke="#0a0e14" stroke-width="0.6"/><circle cx="375.0" cy="359.0" r="3.4" fill="#34d399" fill-opacity="0.75" stroke="#0a0e14" stroke-width="0.6"/><circle cx="208.9" cy="359.0" r="3.4" fill="#34d399" fill-opacity="0.75" stroke="#0a0e14" stroke-width="0.6"/><circle cx="140.3" cy="354.0" r="3.4" fill="#34d399" fill-opacity="0.75" stroke="#0a0e14" stroke-width="0.6"/><circle cx="93.9" cy="359.0" r="3.4" fill="#34d399" fill-opacity="0.75" stroke="#0a0e14" stroke-width="0.6"/><circle cx="429.3" cy="349.0" r="3.4" fill="#34d399" fill-opacity="0.75" stroke="#0a0e14" stroke-width="0.6"/><circle cx="306.3" cy="359.0" r="3.4" fill="#34d399" fill-opacity="0.75" stroke="#0a0e14" stroke-width="0.6"/><circle cx="71.6" cy="354.0" r="3.4" fill="#34d399" fill-opacity="0.75" stroke="#0a0e14" stroke-width="0.6"/><circle cx="205.7" cy="354.0" r="3.4" fill="#34d399" fill-opacity="0.75" stroke="#0a0e14" stroke-width="0.6"/><circle cx="92.3" cy="354.0" r="3.4" fill="#34d399" fill-opacity="0.75" stroke="#0a0e14" stroke-width="0.6"/><circle cx="92.3" cy="354.0" r="3.4" fill="#34d399" fill-opacity="0.75" stroke="#0a0e14" stroke-width="0.6"/><circle cx="502.8" cy="359.0" r="3.4" fill="#34d399" fill-opacity="0.75" stroke="#0a0e14" stroke-width="0.6"/><circle cx="274.4" cy="359.0" r="3.4" fill="#34d399" fill-opacity="0.75" stroke="#0a0e14" stroke-width="0.6"/><circle cx="109.9" cy="359.0" r="3.4" fill="#34d399" fill-opacity="0.75" stroke="#0a0e14" stroke-width="0.6"/><circle cx="536.3" cy="359.0" r="3.4" fill="#34d399" fill-opacity="0.75" stroke="#0a0e14" stroke-width="0.6"/><circle cx="306.3" cy="359.0" r="3.4" fill="#34d399" fill-opacity="0.75" stroke="#0a0e14" stroke-width="0.6"/><circle cx="117.9" cy="359.0" r="3.4" fill="#34d399" fill-opacity="0.75" stroke="#0a0e14" stroke-width="0.6"/><circle cx="654.5" cy="359.0" r="3.4" fill="#34d399" fill-opacity="0.75" stroke="#0a0e14" stroke-width="0.6"/><circle cx="544.3" cy="359.0" r="3.4" fill="#34d399" fill-opacity="0.75" stroke="#0a0e14" stroke-width="0.6"/><circle cx="320.7" cy="359.0" r="3.4" fill="#34d399" fill-opacity="0.75" stroke="#0a0e14" stroke-width="0.6"/><circle cx="161.0" cy="359.0" r="3.4" fill="#34d399" fill-opacity="0.75" stroke="#0a0e14" stroke-width="0.6"/><circle cx="86.0" cy="359.0" r="3.4" fill="#34d399" fill-opacity="0.75" stroke="#0a0e14" stroke-width="0.6"/><circle cx="553.9" cy="359.0" r="3.4" fill="#34d399" fill-opacity="0.75" stroke="#0a0e14" stroke-width="0.6"/><circle cx="375.0" cy="359.0" r="3.4" fill="#34d399" fill-opacity="0.75" stroke="#0a0e14" stroke-width="0.6"/><circle cx="170.6" cy="359.0" r="3.4" fill="#34d399" fill-opacity="0.75" stroke="#0a0e14" stroke-width="0.6"/><circle cx="103.5" cy="359.0" r="3.4" fill="#34d399" fill-opacity="0.75" stroke="#0a0e14" stroke-width="0.6"/><circle cx="490.0" cy="354.0" r="3.4" fill="#34d399" fill-opacity="0.75" stroke="#0a0e14" stroke-width="0.6"/><circle cx="368.6" cy="359.0" r="3.4" fill="#34d399" fill-opacity="0.75" stroke="#0a0e14" stroke-width="0.6"/><circle cx="272.8" cy="359.0" r="3.4" fill="#34d399" fill-opacity="0.75" stroke="#0a0e14" stroke-width="0.6"/><circle cx="154.6" cy="359.0" r="3.4" fill="#34d399" fill-opacity="0.75" stroke="#0a0e14" stroke-width="0.6"/><circle cx="97.1" cy="359.0" r="3.4" fill="#34d399" fill-opacity="0.75" stroke="#0a0e14" stroke-width="0.6"/><circle cx="696.0" cy="354.0" r="3.4" fill="#fbbf24" fill-opacity="0.75" stroke="#0a0e14" stroke-width="0.6"/><circle cx="496.4" cy="324.0" r="3.4" fill="#fbbf24" fill-opacity="0.75" stroke="#0a0e14" stroke-width="0.6"/><circle cx="97.1" cy="74.0" r="3.4" fill="#fbbf24" fill-opacity="0.75" stroke="#0a0e14" stroke-width="0.6"/><circle cx="165.8" cy="309.0" r="3.4" fill="#fbbf24" fill-opacity="0.75" stroke="#0a0e14" stroke-width="0.6"/><circle cx="124.3" cy="64.0" r="3.4" fill="#fbbf24" fill-opacity="0.75" stroke="#0a0e14" stroke-width="0.6"/><circle cx="395.8" cy="324.0" r="3.4" fill="#fbbf24" fill-opacity="0.75" stroke="#0a0e14" stroke-width="0.6"/><circle cx="87.6" cy="334.0" r="3.4" fill="#fbbf24" fill-opacity="0.75" stroke="#0a0e14" stroke-width="0.6"/><circle cx="146.6" cy="289.0" r="3.4" fill="#fbbf24" fill-opacity="0.75" stroke="#0a0e14" stroke-width="0.6"/><circle cx="137.1" cy="294.0" r="3.4" fill="#fbbf24" fill-opacity="0.75" stroke="#0a0e14" stroke-width="0.6"/><circle cx="675.2" cy="329.0" r="3.4" fill="#fbbf24" fill-opacity="0.75" stroke="#0a0e14" stroke-width="0.6"/><circle cx="529.9" cy="334.0" r="3.4" fill="#fbbf24" fill-opacity="0.75" stroke="#0a0e14" stroke-width="0.6"/><circle cx="590.6" cy="339.0" r="3.4" fill="#fbbf24" fill-opacity="0.75" stroke="#0a0e14" stroke-width="0.6"/><circle cx="101.9" cy="329.0" r="3.4" fill="#fbbf24" fill-opacity="0.75" stroke="#0a0e14" stroke-width="0.6"/><circle cx="143.4" cy="344.0" r="3.4" fill="#fbbf24" fill-opacity="0.75" stroke="#0a0e14" stroke-width="0.6"/><circle cx="167.4" cy="189.0" r="3.4" fill="#fbbf24" fill-opacity="0.75" stroke="#0a0e14" stroke-width="0.6"/><circle cx="141.8" cy="194.0" r="3.4" fill="#fbbf24" fill-opacity="0.75" stroke="#0a0e14" stroke-width="0.6"/><circle cx="188.2" cy="189.0" r="3.4" fill="#fbbf24" fill-opacity="0.75" stroke="#0a0e14" stroke-width="0.6"/><circle cx="307.9" cy="299.0" r="3.4" fill="#fbbf24" fill-opacity="0.75" stroke="#0a0e14" stroke-width="0.6"/><circle cx="157.8" cy="174.0" r="3.4" fill="#fbbf24" fill-opacity="0.75" stroke="#0a0e14" stroke-width="0.6"/><circle cx="135.5" cy="199.0" r="3.4" fill="#fbbf24" fill-opacity="0.75" stroke="#0a0e14" stroke-width="0.6"/><circle cx="454.9" cy="349.0" r="3.4" fill="#fbbf24" fill-opacity="0.75" stroke="#0a0e14" stroke-width="0.6"/><circle cx="189.8" cy="314.0" r="3.4" fill="#fbbf24" fill-opacity="0.75" stroke="#0a0e14" stroke-width="0.6"/><circle cx="111.5" cy="134.0" r="3.4" fill="#fbbf24" fill-opacity="0.75" stroke="#0a0e14" stroke-width="0.6"/><circle cx="133.9" cy="289.0" r="3.4" fill="#fbbf24" fill-opacity="0.75" stroke="#0a0e14" stroke-width="0.6"/><circle cx="138.7" cy="324.0" r="3.4" fill="#fbbf24" fill-opacity="0.75" stroke="#0a0e14" stroke-width="0.6"/><circle cx="106.7" cy="314.0" r="3.4" fill="#fbbf24" fill-opacity="0.75" stroke="#0a0e14" stroke-width="0.6"/><circle cx="68.4" cy="159.0" r="3.4" fill="#fbbf24" fill-opacity="0.75" stroke="#0a0e14" stroke-width="0.6"/><circle cx="258.4" cy="269.0" r="3.4" fill="#fbbf24" fill-opacity="0.75" stroke="#0a0e14" stroke-width="0.6"/><circle cx="264.8" cy="324.0" r="3.4" fill="#fbbf24" fill-opacity="0.75" stroke="#0a0e14" stroke-width="0.6"/><circle cx="482.0" cy="319.0" r="3.4" fill="#fbbf24" fill-opacity="0.75" stroke="#0a0e14" stroke-width="0.6"/><circle cx="389.4" cy="349.0" r="3.4" fill="#fbbf24" fill-opacity="0.75" stroke="#0a0e14" stroke-width="0.6"/><circle cx="437.3" cy="349.0" r="3.4" fill="#fbbf24" fill-opacity="0.75" stroke="#0a0e14" stroke-width="0.6"/><circle cx="193.0" cy="324.0" r="3.4" fill="#fbbf24" fill-opacity="0.75" stroke="#0a0e14" stroke-width="0.6"/><circle cx="394.2" cy="349.0" r="3.4" fill="#fbbf24" fill-opacity="0.75" stroke="#0a0e14" stroke-width="0.6"/><circle cx="692.8" cy="324.0" r="3.4" fill="#fbbf24" fill-opacity="0.75" stroke="#0a0e14" stroke-width="0.6"/><circle cx="338.3" cy="329.0" r="3.4" fill="#fbbf24" fill-opacity="0.75" stroke="#0a0e14" stroke-width="0.6"/><circle cx="531.5" cy="349.0" r="3.4" fill="#fbbf24" fill-opacity="0.75" stroke="#0a0e14" stroke-width="0.6"/><circle cx="288.8" cy="334.0" r="3.4" fill="#fbbf24" fill-opacity="0.75" stroke="#0a0e14" stroke-width="0.6"/><circle cx="101.9" cy="299.0" r="3.4" fill="#fbbf24" fill-opacity="0.75" stroke="#0a0e14" stroke-width="0.6"/><circle cx="635.3" cy="354.0" r="3.4" fill="#fbbf24" fill-opacity="0.75" stroke="#0a0e14" stroke-width="0.6"/><circle cx="276.0" cy="324.0" r="3.4" fill="#fbbf24" fill-opacity="0.75" stroke="#0a0e14" stroke-width="0.6"/><circle cx="293.6" cy="294.0" r="3.4" fill="#fbbf24" fill-opacity="0.75" stroke="#0a0e14" stroke-width="0.6"/><circle cx="659.3" cy="324.0" r="3.4" fill="#fbbf24" fill-opacity="0.75" stroke="#0a0e14" stroke-width="0.6"/><circle cx="336.7" cy="299.0" r="3.4" fill="#fbbf24" fill-opacity="0.75" stroke="#0a0e14" stroke-width="0.6"/><circle cx="81.2" cy="69.0" r="3.4" fill="#fbbf24" fill-opacity="0.75" stroke="#0a0e14" stroke-width="0.6"/><circle cx="111.5" cy="334.0" r="3.4" fill="#fbbf24" fill-opacity="0.75" stroke="#0a0e14" stroke-width="0.6"/><circle cx="256.8" cy="319.0" r="3.4" fill="#fbbf24" fill-opacity="0.75" stroke="#0a0e14" stroke-width="0.6"/><circle cx="181.8" cy="264.0" r="3.4" fill="#fbbf24" fill-opacity="0.75" stroke="#0a0e14" stroke-width="0.6"/><circle cx="453.3" cy="344.0" r="3.4" fill="#fbbf24" fill-opacity="0.75" stroke="#0a0e14" stroke-width="0.6"/><circle cx="664.1" cy="344.0" r="3.4" fill="#fbbf24" fill-opacity="0.75" stroke="#0a0e14" stroke-width="0.6"/><circle cx="215.3" cy="264.0" r="3.4" fill="#fbbf24" fill-opacity="0.75" stroke="#0a0e14" stroke-width="0.6"/><circle cx="82.8" cy="344.0" r="3.4" fill="#fbbf24" fill-opacity="0.75" stroke="#0a0e14" stroke-width="0.6"/><circle cx="459.6" cy="349.0" r="3.4" fill="#fbbf24" fill-opacity="0.75" stroke="#0a0e14" stroke-width="0.6"/><circle cx="185.0" cy="214.0" r="3.4" fill="#fbbf24" fill-opacity="0.75" stroke="#0a0e14" stroke-width="0.6"/><circle cx="299.9" cy="339.0" r="3.4" fill="#fbbf24" fill-opacity="0.75" stroke="#0a0e14" stroke-width="0.6"/><circle cx="488.4" cy="329.0" r="3.4" fill="#fbbf24" fill-opacity="0.75" stroke="#0a0e14" stroke-width="0.6"/><circle cx="651.3" cy="329.0" r="3.4" fill="#fbbf24" fill-opacity="0.75" stroke="#0a0e14" stroke-width="0.6"/><circle cx="266.4" cy="284.0" r="3.4" fill="#fbbf24" fill-opacity="0.75" stroke="#0a0e14" stroke-width="0.6"/><circle cx="143.4" cy="334.0" r="3.4" fill="#fbbf24" fill-opacity="0.75" stroke="#0a0e14" stroke-width="0.6"/><circle cx="164.2" cy="244.0" r="3.4" fill="#fbbf24" fill-opacity="0.75" stroke="#0a0e14" stroke-width="0.6"/><circle cx="65.2" cy="84.0" r="3.4" fill="#fbbf24" fill-opacity="0.75" stroke="#0a0e14" stroke-width="0.6"/><circle cx="157.8" cy="179.0" r="3.4" fill="#fbbf24" fill-opacity="0.75" stroke="#0a0e14" stroke-width="0.6"/><circle cx="172.2" cy="169.0" r="3.4" fill="#fbbf24" fill-opacity="0.75" stroke="#0a0e14" stroke-width="0.6"/><circle cx="79.6" cy="164.0" r="3.4" fill="#fbbf24" fill-opacity="0.75" stroke="#0a0e14" stroke-width="0.6"/><circle cx="593.8" cy="354.0" r="3.4" fill="#fbbf24" fill-opacity="0.75" stroke="#0a0e14" stroke-width="0.6"/><circle cx="573.0" cy="339.0" r="3.4" fill="#fbbf24" fill-opacity="0.75" stroke="#0a0e14" stroke-width="0.6"/><circle cx="657.7" cy="344.0" r="3.4" fill="#fbbf24" fill-opacity="0.75" stroke="#0a0e14" stroke-width="0.6"/><circle cx="683.2" cy="329.0" r="3.4" fill="#fbbf24" fill-opacity="0.75" stroke="#0a0e14" stroke-width="0.6"/><circle cx="466.0" cy="344.0" r="3.4" fill="#fbbf24" fill-opacity="0.75" stroke="#0a0e14" stroke-width="0.6"/><circle cx="138.7" cy="299.0" r="3.4" fill="#fbbf24" fill-opacity="0.75" stroke="#0a0e14" stroke-width="0.6"/><circle cx="515.5" cy="344.0" r="3.4" fill="#fbbf24" fill-opacity="0.75" stroke="#0a0e14" stroke-width="0.6"/><circle cx="577.8" cy="324.0" r="3.4" fill="#fbbf24" fill-opacity="0.75" stroke="#0a0e14" stroke-width="0.6"/><circle cx="149.8" cy="169.0" r="3.4" fill="#fbbf24" fill-opacity="0.75" stroke="#0a0e14" stroke-width="0.6"/><circle cx="296.8" cy="339.0" r="3.4" fill="#fbbf24" fill-opacity="0.75" stroke="#0a0e14" stroke-width="0.6"/><circle cx="245.7" cy="334.0" r="3.4" fill="#fbbf24" fill-opacity="0.75" stroke="#0a0e14" stroke-width="0.6"/><circle cx="571.4" cy="349.0" r="3.4" fill="#fbbf24" fill-opacity="0.75" stroke="#0a0e14" stroke-width="0.6"/><circle cx="116.3" cy="64.0" r="3.4" fill="#fbbf24" fill-opacity="0.75" stroke="#0a0e14" stroke-width="0.6"/><circle cx="644.9" cy="314.0" r="3.4" fill="#fbbf24" fill-opacity="0.75" stroke="#0a0e14" stroke-width="0.6"/><circle cx="156.2" cy="334.0" r="3.4" fill="#fbbf24" fill-opacity="0.75" stroke="#0a0e14" stroke-width="0.6"/><circle cx="113.1" cy="124.0" r="3.4" fill="#fbbf24" fill-opacity="0.75" stroke="#0a0e14" stroke-width="0.6"/><circle cx="654.5" cy="329.0" r="3.4" fill="#fbbf24" fill-opacity="0.75" stroke="#0a0e14" stroke-width="0.6"/><circle cx="296.8" cy="289.0" r="3.4" fill="#fbbf24" fill-opacity="0.75" stroke="#0a0e14" stroke-width="0.6"/><circle cx="140.3" cy="289.0" r="3.4" fill="#fbbf24" fill-opacity="0.75" stroke="#0a0e14" stroke-width="0.6"/><circle cx="451.7" cy="329.0" r="3.4" fill="#fbbf24" fill-opacity="0.75" stroke="#0a0e14" stroke-width="0.6"/><circle cx="644.9" cy="359.0" r="3.4" fill="#fbbf24" fill-opacity="0.75" stroke="#0a0e14" stroke-width="0.6"/><circle cx="573.0" cy="324.0" r="3.4" fill="#fbbf24" fill-opacity="0.75" stroke="#0a0e14" stroke-width="0.6"/><circle cx="673.6" cy="324.0" r="3.4" fill="#fbbf24" fill-opacity="0.75" stroke="#0a0e14" stroke-width="0.6"/><circle cx="129.1" cy="349.0" r="3.4" fill="#fbbf24" fill-opacity="0.75" stroke="#0a0e14" stroke-width="0.6"/><circle cx="550.7" cy="349.0" r="3.4" fill="#fbbf24" fill-opacity="0.75" stroke="#0a0e14" stroke-width="0.6"/><circle cx="684.8" cy="354.0" r="3.4" fill="#fbbf24" fill-opacity="0.75" stroke="#0a0e14" stroke-width="0.6"/><circle cx="117.9" cy="119.0" r="3.4" fill="#fbbf24" fill-opacity="0.75" stroke="#0a0e14" stroke-width="0.6"/><circle cx="526.7" cy="339.0" r="3.4" fill="#fbbf24" fill-opacity="0.75" stroke="#0a0e14" stroke-width="0.6"/><circle cx="499.6" cy="354.0" r="3.4" fill="#fbbf24" fill-opacity="0.75" stroke="#0a0e14" stroke-width="0.6"/><circle cx="183.4" cy="179.0" r="3.4" fill="#fbbf24" fill-opacity="0.75" stroke="#0a0e14" stroke-width="0.6"/><circle cx="432.5" cy="339.0" r="3.4" fill="#fbbf24" fill-opacity="0.75" stroke="#0a0e14" stroke-width="0.6"/><circle cx="521.9" cy="314.0" r="3.4" fill="#fbbf24" fill-opacity="0.75" stroke="#0a0e14" stroke-width="0.6"/><circle cx="553.9" cy="334.0" r="3.4" fill="#fbbf24" fill-opacity="0.75" stroke="#0a0e14" stroke-width="0.6"/><circle cx="347.9" cy="284.0" r="3.4" fill="#fbbf24" fill-opacity="0.75" stroke="#0a0e14" stroke-width="0.6"/><circle cx="335.1" cy="334.0" r="3.4" fill="#fbbf24" fill-opacity="0.75" stroke="#0a0e14" stroke-width="0.6"/><circle cx="89.1" cy="319.0" r="3.4" fill="#fbbf24" fill-opacity="0.75" stroke="#0a0e14" stroke-width="0.6"/><circle cx="675.2" cy="329.0" r="3.4" fill="#fbbf24" fill-opacity="0.75" stroke="#0a0e14" stroke-width="0.6"/><circle cx="164.2" cy="174.0" r="3.4" fill="#fbbf24" fill-opacity="0.75" stroke="#0a0e14" stroke-width="0.6"/><circle cx="95.5" cy="164.0" r="3.4" fill="#fbbf24" fill-opacity="0.75" stroke="#0a0e14" stroke-width="0.6"/><circle cx="100.3" cy="264.0" r="3.4" fill="#fbbf24" fill-opacity="0.75" stroke="#0a0e14" stroke-width="0.6"/><circle cx="129.1" cy="344.0" r="3.4" fill="#fbbf24" fill-opacity="0.75" stroke="#0a0e14" stroke-width="0.6"/><circle cx="151.4" cy="294.0" r="3.4" fill="#fbbf24" fill-opacity="0.75" stroke="#0a0e14" stroke-width="0.6"/><circle cx="161.0" cy="284.0" r="3.4" fill="#fbbf24" fill-opacity="0.75" stroke="#0a0e14" stroke-width="0.6"/><circle cx="113.1" cy="174.0" r="3.4" fill="#fbbf24" fill-opacity="0.75" stroke="#0a0e14" stroke-width="0.6"/><circle cx="210.5" cy="324.0" r="3.4" fill="#fbbf24" fill-opacity="0.75" stroke="#0a0e14" stroke-width="0.6"/><circle cx="100.3" cy="339.0" r="3.4" fill="#fbbf24" fill-opacity="0.75" stroke="#0a0e14" stroke-width="0.6"/><circle cx="194.5" cy="189.0" r="3.4" fill="#fbbf24" fill-opacity="0.75" stroke="#0a0e14" stroke-width="0.6"/><circle cx="109.9" cy="239.0" r="3.4" fill="#fbbf24" fill-opacity="0.75" stroke="#0a0e14" stroke-width="0.6"/><circle cx="105.1" cy="299.0" r="3.4" fill="#fbbf24" fill-opacity="0.75" stroke="#0a0e14" stroke-width="0.6"/><circle cx="129.1" cy="314.0" r="3.4" fill="#fbbf24" fill-opacity="0.75" stroke="#0a0e14" stroke-width="0.6"/><circle cx="148.2" cy="334.0" r="3.4" fill="#fbbf24" fill-opacity="0.75" stroke="#0a0e14" stroke-width="0.6"/><circle cx="509.2" cy="319.0" r="3.4" fill="#fbbf24" fill-opacity="0.75" stroke="#0a0e14" stroke-width="0.6"/><circle cx="451.7" cy="349.0" r="3.4" fill="#fbbf24" fill-opacity="0.75" stroke="#0a0e14" stroke-width="0.6"/><circle cx="84.4" cy="319.0" r="3.4" fill="#fbbf24" fill-opacity="0.75" stroke="#0a0e14" stroke-width="0.6"/><circle cx="212.1" cy="274.0" r="3.4" fill="#fbbf24" fill-opacity="0.75" stroke="#0a0e14" stroke-width="0.6"/><circle cx="90.7" cy="319.0" r="3.4" fill="#fbbf24" fill-opacity="0.75" stroke="#0a0e14" stroke-width="0.6"/><rect x="427.4" y="394" width="12" height="12" rx="3" fill="#fbbf24"/><text x="445.4" y="404" font-size="9.5" fill="#9fb0c3">教学合成(800 会员抽样)</text><rect x="553.8" y="394" width="12" height="12" rx="3" fill="#34d399"/><text x="571.8" y="404" font-size="9.5" fill="#9fb0c3">真实(UCI 1665 客户抽样)</text><text x="24" y="406" font-size="10.5" fill="#5b6b7f">绿=UCI 快照真实客户（长尾、噪）；黄=教学合成（分层清晰、埋点可控）——这就是「教学合成为何存在、为何必须标注」。</text>
</svg>