<svg xmlns="http://www.w3.org/2000/svg" viewBox="0 0 900 380" font-family="PingFang SC,Microsoft YaHei,sans-serif">
  <defs><linearGradient id="bg" x1="0" y1="0" x2="1" y2="1"><stop offset="0" stop-color="#0a0e14"/><stop offset="1" stop-color="#0d1220"/></linearGradient>
  <linearGradient id="acc" x1="0" y1="0" x2="1" y2="0"><stop offset="0" stop-color="#22d3ee"/><stop offset="1" stop-color="#38bdf8"/></linearGradient>
  <pattern id="g" width="26" height="26" patternUnits="userSpaceOnUse"><path d="M26 0H0V26" fill="none" stroke="#16202e" stroke-width="1"/></pattern>
  <filter id="glow"><feGaussianBlur stdDeviation="2.2" result="b"/><feMerge><feMergeNode in="b"/><feMergeNode in="SourceGraphic"/></feMerge></filter></defs>
  <rect width="900" height="380" fill="url(#bg)"/><rect width="900" height="380" fill="url(#g)" opacity="0.4"/><rect x="0" y="0" width="6" height="380" fill="url(#acc)"/><rect x="30" y="150" width="126" height="70" rx="10" fill="#121826" stroke="#1e2a3a"/><rect x="30" y="150" width="126" height="2" fill="#22d3ee"/><text x="93" y="192" font-size="13" fill="#e6edf6" text-anchor="middle">约束先行</text><text x="163" y="190" font-size="16" fill="#22d3ee">›</text><rect x="172" y="150" width="126" height="70" rx="10" fill="#121826" stroke="#1e2a3a"/><rect x="172" y="150" width="126" height="2" fill="#22d3ee"/><text x="235" y="192" font-size="13" fill="#e6edf6" text-anchor="middle">质量属性</text><text x="305" y="190" font-size="16" fill="#22d3ee">›</text><rect x="314" y="150" width="126" height="70" rx="10" fill="#121826" stroke="#1e2a3a"/><rect x="314" y="150" width="126" height="2" fill="#22d3ee"/><text x="377" y="192" font-size="13" fill="#e6edf6" text-anchor="middle">子系统分解</text><text x="447" y="190" font-size="16" fill="#22d3ee">›</text><rect x="456" y="150" width="126" height="70" rx="10" fill="#121826" stroke="#1e2a3a"/><rect x="456" y="150" width="126" height="2" fill="#22d3ee"/><text x="519" y="192" font-size="13" fill="#e6edf6" text-anchor="middle">接口契约</text><text x="589" y="190" font-size="16" fill="#22d3ee">›</text><rect x="598" y="150" width="126" height="70" rx="10" fill="#121826" stroke="#1e2a3a"/><rect x="598" y="150" width="126" height="2" fill="#22d3ee"/><text x="661" y="192" font-size="13" fill="#e6edf6" text-anchor="middle">ADR 决策</text><text x="731" y="190" font-size="16" fill="#22d3ee">›</text><rect x="740" y="150" width="126" height="70" rx="10" fill="#121826" stroke="#1e2a3a"/><rect x="740" y="150" width="126" height="2" fill="#22d3ee"/><text x="803" y="192" font-size="13" fill="#e6edf6" text-anchor="middle">部署演进</text><text x="30" y="90" font-size="14" fill="#e6edf6">产品视角系统架构设计流程</text><text x="30" y="300" font-size="11" fill="#5b6b7f">架构=特定约束下对质量属性做出的一组可追溯决策</text></svg>