<svg xmlns="http://www.w3.org/2000/svg" viewBox="0 0 960 360" font-family="PingFang SC,Microsoft YaHei,sans-serif">
  <defs>
    <linearGradient id="dbg" x1="0" y1="0" x2="1" y2="1"><stop offset="0" stop-color="#0a0e14"/><stop offset="1" stop-color="#0d1220"/></linearGradient>
    <linearGradient id="dac" x1="0" y1="0" x2="1" y2="0"><stop offset="0" stop-color="#22d3ee"/><stop offset="1" stop-color="#38bdf8"/></linearGradient>
    <pattern id="dgrid" width="30" height="30" patternUnits="userSpaceOnUse"><path d="M30 0H0V30" fill="none" stroke="#16202e" stroke-width="1"/></pattern>
    <filter id="dsh" x="-20%" y="-20%" width="140%" height="140%"><feDropShadow dx="0" dy="1.5" stdDeviation="2.5" flood-color="#000" flood-opacity="0.35"/></filter>
  </defs>
  <rect width="960" height="360" fill="url(#dbg)"/><rect width="960" height="360" fill="url(#dgrid)" opacity="0.35"/>
  <rect x="0" y="0" width="960" height="44" fill="#121826" opacity="0.5"/>
  <rect x="24" y="13" width="4" height="19" rx="2" fill="url(#dac)"/>
  <text x="36" y="28" font-size="15" font-weight="750" fill="#e6edf6">§7 · Skill Registry 生命周期（发布前扫，上线不可改）</text>
<line x1="220.0" y1="131.0" x2="275.0" y2="131.0" stroke="#38bdf8" stroke-width="1.6" /><path d="M275 131 L268.4 134.6 L268.4 127.4 z" fill="#38bdf8"/><rect x="235.9" y="123" width="23.2" height="15" rx="4" fill="#0d1220" stroke="#1e2a3a"/><text x="247.5" y="134" font-size="9" fill="#9fb0c3" text-anchor="middle">提交</text>
<line x1="455.0" y1="131.0" x2="510.0" y2="131.0" stroke="#38bdf8" stroke-width="1.6" /><path d="M510 131 L503.4 134.6 L503.4 127.4 z" fill="#38bdf8"/><rect x="470.9" y="123" width="23.2" height="15" rx="4" fill="#0d1220" stroke="#1e2a3a"/><text x="482.5" y="134" font-size="9" fill="#9fb0c3" text-anchor="middle">过审</text>
<line x1="690.0" y1="131.0" x2="745.0" y2="131.0" stroke="#38bdf8" stroke-width="1.6" /><path d="M745 131 L738.4 134.6 L738.4 127.4 z" fill="#38bdf8"/><rect x="705.9" y="123" width="23.2" height="15" rx="4" fill="#0d1220" stroke="#1e2a3a"/><text x="717.5" y="134" font-size="9" fill="#9fb0c3" text-anchor="middle">退役</text>
<line x1="482.5" y1="232.0" x2="365.0" y2="166.0" stroke="#f87171" stroke-width="1.6" stroke-dasharray="5 3"/><path d="M365 166 L372.5 166.1 L369.0 172.4 z" fill="#f87171"/><rect x="412.1" y="191" width="23.2" height="15" rx="4" fill="#0d1220" stroke="#1e2a3a"/><text x="423.75" y="202" font-size="9" fill="#9fb0c3" text-anchor="middle">门禁</text>
<line x1="510.0" y1="131.0" x2="220.0" y2="131.0" stroke="#5b6b7f" stroke-width="1.6" stroke-dasharray="5 3"/><path d="M220 131 L226.6 127.4 L226.6 134.6 z" fill="#5b6b7f"/><rect x="343.5" y="123" width="43" height="15" rx="4" fill="#0d1220" stroke="#1e2a3a"/><text x="365" y="134" font-size="9" fill="#9fb0c3" text-anchor="middle">改需新草稿</text>
<rect x="40" y="96" width="180" height="70" rx="10" fill="#121826" stroke="#5b6b7f" stroke-width="1.4"  filter="url(#dsh)"/>
  <rect x="40" y="96" width="180" height="3" rx="1.5" fill="#5b6b7f"/><rect x="190" y="102" width="24" height="15" rx="7" fill="#5b6b7f" opacity="0.18"/><text x="210" y="113" font-size="8.5" fill="#5b6b7f" text-anchor="end">草稿</text><g transform="translate(49,105) scale(0.62)" fill="none" stroke="#5b6b7f" stroke-width="2" stroke-linecap="round" stroke-linejoin="round" opacity="0.9"><path d="M12 7v14" />
  <path d="M3 18a1 1 0 0 1-1-1V4a1 1 0 0 1 1-1h5a4 4 0 0 1 4 4 4 4 0 0 1 4-4h5a1 1 0 0 1 1 1v13a1 1 0 0 1-1 1h-6a3 3 0 0 0-3 3 3 3 0 0 0-3-3z" /></g>
  <text x="130" y="130" font-size="12" font-weight="700" fill="#e6edf6" text-anchor="middle">draft</text><text x="130" y="145" font-size="9.5" fill="#5b6b7f" text-anchor="middle">可改·多人别并行</text>
<rect x="275" y="96" width="180" height="70" rx="10" fill="#121826" stroke="#fbbf24" stroke-width="1.4"  filter="url(#dsh)"/>
  <rect x="275" y="96" width="180" height="3" rx="1.5" fill="#fbbf24"/><rect x="425" y="102" width="24" height="15" rx="7" fill="#fbbf24" opacity="0.18"/><text x="445" y="113" font-size="8.5" fill="#fbbf24" text-anchor="end">审核</text><g transform="translate(284,105) scale(0.62)" fill="none" stroke="#fbbf24" stroke-width="2" stroke-linecap="round" stroke-linejoin="round" opacity="0.9"><path d="m21 21-4.34-4.34" />
  <circle cx="11" cy="11" r="8" /></g>
  <text x="365" y="130" font-size="12" font-weight="700" fill="#e6edf6" text-anchor="middle">reviewing</text><text x="365" y="145" font-size="9.5" fill="#5b6b7f" text-anchor="middle">过 scanner 才放行</text>
<rect x="510" y="96" width="180" height="70" rx="10" fill="#121826" stroke="#34d399" stroke-width="1.4"  filter="url(#dsh)"/>
  <rect x="510" y="96" width="180" height="3" rx="1.5" fill="#34d399"/><rect x="660" y="102" width="24" height="15" rx="7" fill="#34d399" opacity="0.18"/><text x="680" y="113" font-size="8.5" fill="#34d399" text-anchor="end">上线</text><g transform="translate(519,105) scale(0.62)" fill="none" stroke="#34d399" stroke-width="2" stroke-linecap="round" stroke-linejoin="round" opacity="0.9"><circle cx="12" cy="12" r="10" />
  <path d="m9 12 2 2 4-4" /></g>
  <text x="600" y="130" font-size="12" font-weight="700" fill="#e6edf6" text-anchor="middle">online</text><text x="600" y="145" font-size="9.5" fill="#5b6b7f" text-anchor="middle">内容不可改</text>
<rect x="745" y="96" width="175" height="70" rx="10" fill="#121826" stroke="#5b6b7f" stroke-width="1.4"  filter="url(#dsh)"/>
  <rect x="745" y="96" width="175" height="3" rx="1.5" fill="#5b6b7f"/><rect x="890" y="102" width="24" height="15" rx="7" fill="#5b6b7f" opacity="0.18"/><text x="910" y="113" font-size="8.5" fill="#5b6b7f" text-anchor="end">下线</text><g transform="translate(754,105) scale(0.62)" fill="none" stroke="#5b6b7f" stroke-width="2" stroke-linecap="round" stroke-linejoin="round" opacity="0.9"><path d="M20.985 12.486a9 9 0 1 1-9.473-9.472c.405-.022.617.46.402.803a6 6 0 0 0 8.268 8.268c.344-.215.825-.004.803.401" /></g>
  <text x="832.5" y="130" font-size="12" font-weight="700" fill="#e6edf6" text-anchor="middle">offline</text><text x="832.5" y="145" font-size="9.5" fill="#5b6b7f" text-anchor="middle">不再使用</text>
<rect x="275" y="232" width="415" height="66" rx="10" fill="#121826" stroke="#f87171" stroke-width="1.4"  filter="url(#dsh)"/>
  <rect x="275" y="232" width="415" height="3" rx="1.5" fill="#f87171"/><g transform="translate(284,241) scale(0.62)" fill="none" stroke="#f87171" stroke-width="2" stroke-linecap="round" stroke-linejoin="round" opacity="0.9"><path d="M20 13c0 5-3.5 7.5-7.66 8.95a1 1 0 0 1-.67-.01C7.5 20.5 4 18 4 13V6a1 1 0 0 1 1-1c2 0 4.5-1.2 6.24-2.72a1.17 1.17 0 0 1 1.52 0C14.51 3.81 17 5 19 5a1 1 0 0 1 1 1z"/><path d="m9 12 2 2 4-4"/></g>
  <text x="482.5" y="264" font-size="12" font-weight="700" fill="#e6edf6" text-anchor="middle">skill-scanner · 不过则不发布</text><text x="482.5" y="279" font-size="9.5" fill="#5b6b7f" text-anchor="middle">提示注入 / 数据泄露 / 恶意代码</text>
<rect x="718.1999999999999" y="334" width="12" height="12" rx="3" fill="#f87171"/><text x="736.1999999999999" y="344" font-size="9.5" fill="#9fb0c3">扫描门禁</text><rect x="778.5999999999999" y="334" width="12" height="12" rx="3" fill="#34d399"/><text x="796.5999999999999" y="344" font-size="9.5" fill="#9fb0c3">上线</text><rect x="825.8" y="334" width="12" height="12" rx="3" fill="#fbbf24"/><text x="843.8" y="344" font-size="9.5" fill="#9fb0c3">审核</text><rect x="873" y="334" width="12" height="12" rx="3" fill="#5b6b7f"/><text x="891" y="344" font-size="9.5" fill="#9fb0c3">草稿/下线</text><text x="24" y="346" font-size="10.5" fill="#5b6b7f">draft→reviewing→online→offline；skill-scanner「不过则不发布」；online 内容不可改，改需新建草稿。来源：Nacos Skill Registry（阿里巴巴）。</text>
</svg>