<svg xmlns="http://www.w3.org/2000/svg" viewBox="0 0 1240 720" font-family="PingFang SC,Microsoft YaHei,sans-serif">
  <defs><linearGradient id="bg" x1="0" y1="0" x2="1" y2="1"><stop offset="0" stop-color="#0a0e14"/><stop offset="1" stop-color="#0d1220"/></linearGradient>
  <pattern id="grid" width="30" height="30" patternUnits="userSpaceOnUse"><path d="M30 0H0V30" fill="none" stroke="#16202e" stroke-width="1"/></pattern></defs>
  <rect width="1240" height="720" fill="url(#bg)"/><rect width="1240" height="720" fill="url(#grid)" opacity="0.35"/>
  <rect x="36" y="24" width="4" height="34" rx="2" fill="#22d3ee"/>
  <text x="50" y="42" font-size="22" font-weight="750" fill="#e6edf6">数字化系统全景 · 9 案例串成一个系统</text>
  <text x="50" y="64" font-size="12" fill="#9fb0c3">纵向三层（业务应用 / 能力智能 / 底座平台）× 横向数据价值闭环（采集→治理→洞察→决策→执行→验收→增长→回采集）</text><text x="151" y="92" font-size="11.5" font-weight="650" fill="#22d3ee" text-anchor="middle">采集接入</text><text x="233" y="92" font-size="13" fill="#5b6b7f" text-anchor="middle">›</text><text x="314" y="92" font-size="11.5" font-weight="650" fill="#22d3ee" text-anchor="middle">治理存储</text><text x="396" y="92" font-size="13" fill="#5b6b7f" text-anchor="middle">›</text><text x="477" y="92" font-size="11.5" font-weight="650" fill="#22d3ee" text-anchor="middle">洞察分析</text><text x="559" y="92" font-size="13" fill="#5b6b7f" text-anchor="middle">›</text><text x="640" y="92" font-size="11.5" font-weight="650" fill="#22d3ee" text-anchor="middle">决策研判</text><text x="721" y="92" font-size="13" fill="#5b6b7f" text-anchor="middle">›</text><text x="803" y="92" font-size="11.5" font-weight="650" fill="#22d3ee" text-anchor="middle">执行落地</text><text x="884" y="92" font-size="13" fill="#5b6b7f" text-anchor="middle">›</text><text x="966" y="92" font-size="11.5" font-weight="650" fill="#22d3ee" text-anchor="middle">质量验收</text><text x="1047" y="92" font-size="13" fill="#5b6b7f" text-anchor="middle">›</text><text x="1129" y="92" font-size="11.5" font-weight="650" fill="#22d3ee" text-anchor="middle">增长闭环</text><rect x="70" y="100" width="1140" height="160" rx="10" fill="#121826" opacity="0.4" stroke="#1e2a3a"/><text x="36" y="122" font-size="12.5" font-weight="700" fill="#e6edf6" transform="rotate(-90 36 122)" text-anchor="end">业务应用</text><rect x="70" y="276" width="1140" height="160" rx="10" fill="#121826" opacity="0.4" stroke="#1e2a3a"/><text x="36" y="298" font-size="12.5" font-weight="700" fill="#e6edf6" transform="rotate(-90 36 298)" text-anchor="end">能力智能</text><rect x="70" y="452" width="1140" height="160" rx="10" fill="#121826" opacity="0.4" stroke="#1e2a3a"/><text x="36" y="474" font-size="12.5" font-weight="700" fill="#38bdf8" transform="rotate(-90 36 474)" text-anchor="end">底座平台</text><line x1="70" y1="100" x2="70" y2="612" stroke="#16202e"/><line x1="233" y1="100" x2="233" y2="612" stroke="#16202e"/><line x1="396" y1="100" x2="396" y2="612" stroke="#16202e"/><line x1="559" y1="100" x2="559" y2="612" stroke="#16202e"/><line x1="721" y1="100" x2="721" y2="612" stroke="#16202e"/><line x1="884" y1="100" x2="884" y2="612" stroke="#16202e"/><line x1="1047" y1="100" x2="1047" y2="612" stroke="#16202e"/><line x1="1210" y1="100" x2="1210" y2="612" stroke="#16202e"/><rect x="404" y="134" width="147" height="27" rx="6" fill="#0f1522" stroke="#22d3ee" stroke-opacity="0.5"/>
      <rect x="404" y="134" width="3" height="27" rx="1.5" fill="#22d3ee"/>
      <text x="414" y="152" font-size="9.5" fill="#9fb0c3"><tspan fill="#22d3ee" font-weight="700">01</tspan> 电商早会异常</text><rect x="404" y="310" width="147" height="27" rx="6" fill="#0f1522" stroke="#fbbf24" stroke-opacity="0.5"/>
      <rect x="404" y="310" width="3" height="27" rx="1.5" fill="#fbbf24"/>
      <text x="414" y="328" font-size="9.5" fill="#9fb0c3"><tspan fill="#fbbf24" font-weight="700">30</tspan> 航空会员价值</text><rect x="1055" y="134" width="147" height="27" rx="6" fill="#0f1522" stroke="#22d3ee" stroke-opacity="0.5"/>
      <rect x="1055" y="134" width="3" height="27" rx="1.5" fill="#22d3ee"/>
      <text x="1065" y="152" font-size="9.5" fill="#9fb0c3"><tspan fill="#22d3ee" font-weight="700">41</tspan> 零售经营产品</text><rect x="241" y="486" width="147" height="27" rx="6" fill="#0f1522" stroke="#38bdf8" stroke-opacity="0.5"/>
      <rect x="241" y="486" width="3" height="27" rx="1.5" fill="#38bdf8"/>
      <text x="251" y="504" font-size="9.5" fill="#9fb0c3"><tspan fill="#38bdf8" font-weight="700">44</tspan> 产品知识库语</text><rect x="241" y="518" width="147" height="27" rx="6" fill="#0f1522" stroke="#38bdf8" stroke-opacity="0.5"/>
      <rect x="241" y="518" width="3" height="27" rx="1.5" fill="#38bdf8"/>
      <text x="251" y="536" font-size="9.5" fill="#9fb0c3"><tspan fill="#38bdf8" font-weight="700">45</tspan> 经营数据关系</text><rect x="241" y="550" width="147" height="27" rx="6" fill="#0f1522" stroke="#38bdf8" stroke-opacity="0.5"/>
      <rect x="241" y="550" width="3" height="27" rx="1.5" fill="#38bdf8"/>
      <text x="251" y="568" font-size="9.5" fill="#9fb0c3"><tspan fill="#38bdf8" font-weight="700">46</tspan> 后端子系统分</text><rect x="892" y="310" width="147" height="27" rx="6" fill="#0f1522" stroke="#fbbf24" stroke-opacity="0.5"/>
      <rect x="892" y="310" width="3" height="27" rx="1.5" fill="#fbbf24"/>
      <text x="902" y="328" font-size="9.5" fill="#9fb0c3"><tspan fill="#fbbf24" font-weight="700">49</tspan> RAG 回答</text><rect x="892" y="486" width="147" height="27" rx="6" fill="#0f1522" stroke="#38bdf8" stroke-opacity="0.5"/>
      <rect x="892" y="486" width="3" height="27" rx="1.5" fill="#38bdf8"/>
      <text x="902" y="504" font-size="9.5" fill="#9fb0c3"><tspan fill="#38bdf8" font-weight="700">51</tspan> 规格驱动系统</text><rect x="78" y="486" width="147" height="27" rx="6" fill="#0f1522" stroke="#38bdf8" stroke-opacity="0.5"/>
      <rect x="78" y="486" width="3" height="27" rx="1.5" fill="#38bdf8"/>
      <text x="88" y="504" font-size="9.5" fill="#9fb0c3"><tspan fill="#38bdf8" font-weight="700">54</tspan> 仓库事件总线</text><text x="50" y="702" font-size="10.5" fill="#5b6b7f">底座平台（44 向量库 / 45 关系库 / 46 架构契约 / 51 SDD 建造 / 54 事件总线）支撑上层；业务应用按闭环各就各位——同一套数字化系统，9 案例是它不同环节的实操演示。</text></svg>