<svg xmlns="http://www.w3.org/2000/svg" viewBox="0 0 1040 560" font-family="PingFang SC,Microsoft YaHei,sans-serif">
  <defs>
    <linearGradient id="dbg" x1="0" y1="0" x2="1" y2="1"><stop offset="0" stop-color="#0a0e14"/><stop offset="1" stop-color="#0d1220"/></linearGradient>
    <linearGradient id="dac" x1="0" y1="0" x2="1" y2="0"><stop offset="0" stop-color="#22d3ee"/><stop offset="1" stop-color="#38bdf8"/></linearGradient>
    <pattern id="dgrid" width="30" height="30" patternUnits="userSpaceOnUse"><path d="M30 0H0V30" fill="none" stroke="#16202e" stroke-width="1"/></pattern>
    <filter id="dsh" x="-20%" y="-20%" width="140%" height="140%"><feDropShadow dx="0" dy="1.5" stdDeviation="2.5" flood-color="#000" flood-opacity="0.35"/></filter>
  </defs>
  <rect width="1040" height="560" fill="url(#dbg)"/><rect width="1040" height="560" fill="url(#dgrid)" opacity="0.35"/>
  <rect x="0" y="0" width="1040" height="44" fill="#121826" opacity="0.5"/>
  <rect x="24" y="13" width="4" height="19" rx="2" fill="url(#dac)"/>
  <text x="36" y="28" font-size="15" font-weight="750" fill="#e6edf6">领域走查 · 零售数字化中台（中大型信息系统的 C4 容器）</text><rect x="56" y="66" width="928" height="460" rx="12" fill="#22d3ee" opacity="0.06"/><rect x="56" y="66" width="928" height="460" rx="12" fill="none" stroke="#22d3ee" stroke-opacity="0.45" /><text x="68" y="84" font-size="11" font-weight="650" fill="#22d3ee">零售数字化中台 · 采集→治理→洞察→决策 数据价值闭环</text>
<line x1="298.0" y1="143.0" x2="330.0" y2="143.0" stroke="#38bdf8" stroke-width="1.6" /><path d="M330 143 L323.4 146.6 L323.4 139.4 z" fill="#38bdf8"/>
<line x1="540.0" y1="143.0" x2="572.0" y2="143.0" stroke="#38bdf8" stroke-width="1.6" /><path d="M572 143 L565.4 146.6 L565.4 139.4 z" fill="#38bdf8"/>
<line x1="782.0" y1="143.0" x2="814.0" y2="143.0" stroke="#38bdf8" stroke-width="1.6" /><path d="M814 143 L807.4 146.6 L807.4 139.4 z" fill="#38bdf8"/>
<line x1="540.0" y1="273.0" x2="814.0" y2="143.0" stroke="#38bdf8" stroke-width="1.6" /><path d="M814 143 L809.6 149.1 L806.5 142.6 z" fill="#38bdf8"/><rect x="665.4" y="200" width="23.2" height="15" rx="4" fill="#0d1220" stroke="#1e2a3a"/><text x="677" y="211" font-size="9" fill="#9fb0c3" text-anchor="middle">证据</text>
<line x1="298.0" y1="403.0" x2="572.0" y2="143.0" stroke="#38bdf8" stroke-width="1.6" /><path d="M572 143 L569.7 150.1 L564.8 144.9 z" fill="#38bdf8"/><rect x="423.4" y="265" width="23.2" height="15" rx="4" fill="#0d1220" stroke="#1e2a3a"/><text x="435" y="276" font-size="9" fill="#9fb0c3" text-anchor="middle">支撑</text>
<line x1="435.0" y1="370.0" x2="677.0" y2="176.0" stroke="#38bdf8" stroke-width="1.6" stroke-dasharray="5 3"/><path d="M677 176 L674.1 182.9 L669.6 177.3 z" fill="#38bdf8"/><rect x="541.1" y="265" width="29.799999999999997" height="15" rx="4" fill="#0d1220" stroke="#1e2a3a"/><text x="556" y="276" font-size="9" fill="#9fb0c3" text-anchor="middle">事件流</text>
<line x1="782.0" y1="273.0" x2="814.0" y2="143.0" stroke="#fbbf24" stroke-width="1.6" stroke-dasharray="5 3"/><path d="M814 143 L815.9 150.3 L808.9 148.5 z" fill="#fbbf24"/><rect x="786.4" y="200" width="23.2" height="15" rx="4" fill="#0d1220" stroke="#1e2a3a"/><text x="798" y="211" font-size="9" fill="#9fb0c3" text-anchor="middle">门禁</text>
<rect x="88" y="110" width="210" height="66" rx="10" fill="#121826" stroke="#38bdf8" stroke-width="1.4"  filter="url(#dsh)"/>
  <rect x="88" y="110" width="210" height="3" rx="1.5" fill="#38bdf8"/><rect x="268" y="116" width="24" height="15" rx="7" fill="#38bdf8" opacity="0.18"/><text x="288" y="127" font-size="8.5" fill="#38bdf8" text-anchor="end">容器</text>
  <text x="193" y="142" font-size="12" font-weight="700" fill="#e6edf6" text-anchor="middle">采集接入</text><text x="193" y="157" font-size="9.5" fill="#5b6b7f" text-anchor="middle">Online Retail II 装载</text>
<rect x="330" y="110" width="210" height="66" rx="10" fill="#121826" stroke="#38bdf8" stroke-width="1.4"  filter="url(#dsh)"/>
  <rect x="330" y="110" width="210" height="3" rx="1.5" fill="#38bdf8"/><rect x="510" y="116" width="24" height="15" rx="7" fill="#38bdf8" opacity="0.18"/><text x="530" y="127" font-size="8.5" fill="#38bdf8" text-anchor="end">容器</text>
  <text x="435" y="142" font-size="12" font-weight="700" fill="#e6edf6" text-anchor="middle">数据治理</text><text x="435" y="157" font-size="9.5" fill="#5b6b7f" text-anchor="middle">metricSpec · 异常列真源</text>
<rect x="572" y="110" width="210" height="66" rx="10" fill="#121826" stroke="#22d3ee" stroke-width="1.4"  filter="url(#dsh)"/>
  <rect x="572" y="110" width="210" height="3" rx="1.5" fill="#22d3ee"/><rect x="752" y="116" width="24" height="15" rx="7" fill="#22d3ee" opacity="0.18"/><text x="772" y="127" font-size="8.5" fill="#22d3ee" text-anchor="end">容器</text>
  <text x="677" y="142" font-size="12" font-weight="700" fill="#e6edf6" text-anchor="middle">指标洞察</text><text x="677" y="157" font-size="9.5" fill="#5b6b7f" text-anchor="middle">案例 01 / 30 / 41</text>
<rect x="814" y="110" width="200" height="66" rx="10" fill="#121826" stroke="#34d399" stroke-width="1.4"  filter="url(#dsh)"/>
  <rect x="814" y="110" width="200" height="3" rx="1.5" fill="#34d399"/><rect x="984" y="116" width="24" height="15" rx="7" fill="#34d399" opacity="0.18"/><text x="1004" y="127" font-size="8.5" fill="#34d399" text-anchor="end">容器</text>
  <text x="914" y="142" font-size="12" font-weight="700" fill="#e6edf6" text-anchor="middle">经营决策</text><text x="914" y="157" font-size="9.5" fill="#5b6b7f" text-anchor="middle">案例 41 闭环</text>
<rect x="330" y="240" width="210" height="66" rx="10" fill="#121826" stroke="#22d3ee" stroke-width="1.4"  filter="url(#dsh)"/>
  <rect x="330" y="240" width="210" height="3" rx="1.5" fill="#22d3ee"/><rect x="510" y="246" width="24" height="15" rx="7" fill="#22d3ee" opacity="0.18"/><text x="530" y="257" font-size="8.5" fill="#22d3ee" text-anchor="end">容器</text>
  <text x="435" y="272" font-size="12" font-weight="700" fill="#e6edf6" text-anchor="middle">RAG 检索</text><text x="435" y="287" font-size="9.5" fill="#5b6b7f" text-anchor="middle">案例 44 · 证据召回</text>
<rect x="572" y="240" width="210" height="66" rx="10" fill="#121826" stroke="#fbbf24" stroke-width="1.4"  filter="url(#dsh)"/>
  <rect x="572" y="240" width="210" height="3" rx="1.5" fill="#fbbf24"/><rect x="752" y="246" width="24" height="15" rx="7" fill="#fbbf24" opacity="0.18"/><text x="772" y="257" font-size="8.5" fill="#fbbf24" text-anchor="end">门禁</text>
  <text x="677" y="272" font-size="12" font-weight="700" fill="#e6edf6" text-anchor="middle">交付门禁</text><text x="677" y="287" font-size="9.5" fill="#5b6b7f" text-anchor="middle">案例 51 / verify 三绿</text>
<rect x="88" y="370" width="210" height="66" rx="10" fill="#121826" stroke="#22d3ee" stroke-width="1.4"  filter="url(#dsh)"/>
  <rect x="88" y="370" width="210" height="3" rx="1.5" fill="#22d3ee"/><rect x="268" y="376" width="24" height="15" rx="7" fill="#22d3ee" opacity="0.18"/><text x="288" y="387" font-size="8.5" fill="#22d3ee" text-anchor="end">底座</text>
  <text x="193" y="402" font-size="12" font-weight="700" fill="#e6edf6" text-anchor="middle">关系库底座</text><text x="193" y="417" font-size="9.5" fill="#5b6b7f" text-anchor="middle">案例 45 · node:sqlite/PG</text>
<rect x="330" y="370" width="210" height="66" rx="10" fill="#121826" stroke="#22d3ee" stroke-width="1.4"  filter="url(#dsh)"/>
  <rect x="330" y="370" width="210" height="3" rx="1.5" fill="#22d3ee"/><rect x="510" y="376" width="24" height="15" rx="7" fill="#22d3ee" opacity="0.18"/><text x="530" y="387" font-size="8.5" fill="#22d3ee" text-anchor="end">底座</text>
  <text x="435" y="402" font-size="12" font-weight="700" fill="#e6edf6" text-anchor="middle">事件总线底座</text><text x="435" y="417" font-size="9.5" fill="#5b6b7f" text-anchor="middle">案例 54 · 事件流重放</text>
<rect x="811.3999999999999" y="534" width="12" height="12" rx="3" fill="#fbbf24"/><text x="829.3999999999999" y="544" font-size="9.5" fill="#9fb0c3">门禁</text><rect x="858.5999999999999" y="534" width="12" height="12" rx="3" fill="#34d399"/><text x="876.5999999999999" y="544" font-size="9.5" fill="#9fb0c3">决策</text><rect x="905.8" y="534" width="12" height="12" rx="3" fill="#22d3ee"/><text x="923.8" y="544" font-size="9.5" fill="#9fb0c3">容器</text><rect x="953" y="534" width="12" height="12" rx="3" fill="#38bdf8"/><text x="971" y="544" font-size="9.5" fill="#9fb0c3">接入/治理</text><text x="24" y="546" font-size="10.5" fill="#5b6b7f">每个容器就是本书的一个案例——一个中大型系统 = 许多案例子系统按方法论编排起来。真实数据：UCI Online Retail II。</text>
</svg>