<svg xmlns="http://www.w3.org/2000/svg" viewBox="0 0 1066 380" font-family="PingFang SC,Microsoft YaHei,sans-serif">
  <defs>
    <linearGradient id="dbg" x1="0" y1="0" x2="1" y2="1"><stop offset="0" stop-color="#0a0e14"/><stop offset="1" stop-color="#0d1220"/></linearGradient>
    <linearGradient id="dac" x1="0" y1="0" x2="1" y2="0"><stop offset="0" stop-color="#22d3ee"/><stop offset="1" stop-color="#38bdf8"/></linearGradient>
    <pattern id="dgrid" width="30" height="30" patternUnits="userSpaceOnUse"><path d="M30 0H0V30" fill="none" stroke="#16202e" stroke-width="1"/></pattern>
    <filter id="dsh" x="-20%" y="-20%" width="140%" height="140%"><feDropShadow dx="0" dy="1.5" stdDeviation="2.5" flood-color="#000" flood-opacity="0.35"/></filter>
  </defs>
  <rect width="1066" height="380" fill="url(#dbg)"/><rect width="1066" height="380" fill="url(#dgrid)" opacity="0.35"/>
  <rect x="0" y="0" width="1066" height="44" fill="#121826" opacity="0.5"/>
  <rect x="24" y="13" width="4" height="19" rx="2" fill="url(#dac)"/>
  <text x="36" y="28" font-size="15" font-weight="750" fill="#e6edf6">§2.6 · AI 驱动开发组合拳：治理 → 规格 → 纪律 → 自动化</text>
<line x1="146.0" y1="170.0" x2="146.0" y2="250.0" stroke="#5b6b7f" stroke-width="1.6" stroke-dasharray="5 3"/><path d="M146 250 L142.4 243.4 L149.6 243.4 z" fill="#5b6b7f"/><rect x="127.8" y="202" width="36.4" height="15" rx="4" fill="#0d1220" stroke="#1e2a3a"/><text x="146" y="213" font-size="9" fill="#9fb0c3" text-anchor="middle">本书对应</text>
<line x1="404.0" y1="170.0" x2="404.0" y2="250.0" stroke="#5b6b7f" stroke-width="1.6" stroke-dasharray="5 3"/><path d="M404 250 L400.4 243.4 L407.6 243.4 z" fill="#5b6b7f"/><rect x="385.8" y="202" width="36.4" height="15" rx="4" fill="#0d1220" stroke="#1e2a3a"/><text x="404" y="213" font-size="9" fill="#9fb0c3" text-anchor="middle">本书对应</text>
<line x1="262.0" y1="133.0" x2="288.0" y2="133.0" stroke="#38bdf8" stroke-width="1.6" /><path d="M288 133 L281.4 136.6 L281.4 129.4 z" fill="#38bdf8"/>
<line x1="662.0" y1="170.0" x2="662.0" y2="250.0" stroke="#5b6b7f" stroke-width="1.6" stroke-dasharray="5 3"/><path d="M662 250 L658.4 243.4 L665.6 243.4 z" fill="#5b6b7f"/><rect x="643.8" y="202" width="36.4" height="15" rx="4" fill="#0d1220" stroke="#1e2a3a"/><text x="662" y="213" font-size="9" fill="#9fb0c3" text-anchor="middle">本书对应</text>
<line x1="520.0" y1="133.0" x2="546.0" y2="133.0" stroke="#38bdf8" stroke-width="1.6" /><path d="M546 133 L539.4 136.6 L539.4 129.4 z" fill="#38bdf8"/>
<line x1="920.0" y1="170.0" x2="920.0" y2="250.0" stroke="#5b6b7f" stroke-width="1.6" stroke-dasharray="5 3"/><path d="M920 250 L916.4 243.4 L923.6 243.4 z" fill="#5b6b7f"/><rect x="901.8" y="202" width="36.4" height="15" rx="4" fill="#0d1220" stroke="#1e2a3a"/><text x="920" y="213" font-size="9" fill="#9fb0c3" text-anchor="middle">本书对应</text>
<line x1="778.0" y1="133.0" x2="804.0" y2="133.0" stroke="#38bdf8" stroke-width="1.6" /><path d="M804 133 L797.4 136.6 L797.4 129.4 z" fill="#38bdf8"/>
<rect x="30" y="96" width="232" height="74" rx="10" fill="#121826" stroke="#38bdf8" stroke-width="1.4"  filter="url(#dsh)"/>
  <rect x="30" y="96" width="232" height="3" rx="1.5" fill="#38bdf8"/>
  <text x="146" y="132" font-size="12" font-weight="700" fill="#e6edf6" text-anchor="middle">① 治理</text><text x="146" y="147" font-size="9.5" fill="#5b6b7f" text-anchor="middle">GStack · 虚拟团队</text>
<rect x="30" y="250" width="232" height="62" rx="10" fill="#121826" stroke="#5b6b7f" stroke-width="1.4"  filter="url(#dsh)"/>
  <rect x="30" y="250" width="232" height="3" rx="1.5" fill="#5b6b7f"/>
  <text x="146" y="280" font-size="12" font-weight="700" fill="#e6edf6" text-anchor="middle">三镜头 + §6 治理</text><text x="146" y="295" font-size="9.5" fill="#5b6b7f" text-anchor="middle">dogfood</text>
<rect x="288" y="96" width="232" height="74" rx="10" fill="#121826" stroke="#22d3ee" stroke-width="1.4"  filter="url(#dsh)"/>
  <rect x="288" y="96" width="232" height="3" rx="1.5" fill="#22d3ee"/>
  <text x="404" y="132" font-size="12" font-weight="700" fill="#e6edf6" text-anchor="middle">② 规格</text><text x="404" y="147" font-size="9.5" fill="#5b6b7f" text-anchor="middle">OpenSpec · SDD</text>
<rect x="288" y="250" width="232" height="62" rx="10" fill="#121826" stroke="#5b6b7f" stroke-width="1.4"  filter="url(#dsh)"/>
  <rect x="288" y="250" width="232" height="3" rx="1.5" fill="#5b6b7f"/>
  <text x="404" y="280" font-size="12" font-weight="700" fill="#e6edf6" text-anchor="middle">§3 规格驱动</text><text x="404" y="295" font-size="9.5" fill="#5b6b7f" text-anchor="middle">dogfood</text>
<rect x="546" y="96" width="232" height="74" rx="10" fill="#121826" stroke="#fbbf24" stroke-width="1.4"  filter="url(#dsh)"/>
  <rect x="546" y="96" width="232" height="3" rx="1.5" fill="#fbbf24"/>
  <text x="662" y="132" font-size="12" font-weight="700" fill="#e6edf6" text-anchor="middle">③ 纪律</text><text x="662" y="147" font-size="9.5" fill="#5b6b7f" text-anchor="middle">Superpowers · TDD</text>
<rect x="546" y="250" width="232" height="62" rx="10" fill="#121826" stroke="#5b6b7f" stroke-width="1.4"  filter="url(#dsh)"/>
  <rect x="546" y="250" width="232" height="3" rx="1.5" fill="#5b6b7f"/>
  <text x="662" y="280" font-size="12" font-weight="700" fill="#e6edf6" text-anchor="middle">§4 工程规范</text><text x="662" y="295" font-size="9.5" fill="#5b6b7f" text-anchor="middle">dogfood</text>
<rect x="804" y="96" width="232" height="74" rx="10" fill="#121826" stroke="#34d399" stroke-width="1.4"  filter="url(#dsh)"/>
  <rect x="804" y="96" width="232" height="3" rx="1.5" fill="#34d399"/>
  <text x="920" y="132" font-size="12" font-weight="700" fill="#e6edf6" text-anchor="middle">④ 自动化</text><text x="920" y="147" font-size="9.5" fill="#5b6b7f" text-anchor="middle">Ralph · while 循环</text>
<rect x="804" y="250" width="232" height="62" rx="10" fill="#121826" stroke="#5b6b7f" stroke-width="1.4"  filter="url(#dsh)"/>
  <rect x="804" y="250" width="232" height="3" rx="1.5" fill="#5b6b7f"/>
  <text x="920" y="280" font-size="12" font-weight="700" fill="#e6edf6" text-anchor="middle">self-evolve(Ralph 实例)</text><text x="920" y="295" font-size="9.5" fill="#5b6b7f" text-anchor="middle">dogfood</text>
<rect x="850.5999999999999" y="354" width="12" height="12" rx="3" fill="#34d399"/><text x="868.5999999999999" y="364" font-size="9.5" fill="#9fb0c3">自动化</text><rect x="904.3999999999999" y="354" width="12" height="12" rx="3" fill="#fbbf24"/><text x="922.3999999999999" y="364" font-size="9.5" fill="#9fb0c3">纪律</text><rect x="951.5999999999999" y="354" width="12" height="12" rx="3" fill="#22d3ee"/><text x="969.5999999999999" y="364" font-size="9.5" fill="#9fb0c3">规格</text><rect x="998.8" y="354" width="12" height="12" rx="3" fill="#38bdf8"/><text x="1016.8" y="364" font-size="9.5" fill="#9fb0c3">治理</text><text x="24" y="366" font-size="10.5" fill="#5b6b7f">让 AI 像守纪律的工程团队而非情绪化实习生。上排真实工具生态，下排本书 dogfood 对应物；Ralph=Geoffrey Huntley。</text>
</svg>