<svg xmlns="http://www.w3.org/2000/svg" viewBox="0 0 940 330" font-family="PingFang SC,Microsoft YaHei,sans-serif">
  <defs>
    <linearGradient id="dbg" x1="0" y1="0" x2="1" y2="1"><stop offset="0" stop-color="#0a0e14"/><stop offset="1" stop-color="#0d1220"/></linearGradient>
    <linearGradient id="dac" x1="0" y1="0" x2="1" y2="0"><stop offset="0" stop-color="#22d3ee"/><stop offset="1" stop-color="#38bdf8"/></linearGradient>
    <pattern id="dgrid" width="30" height="30" patternUnits="userSpaceOnUse"><path d="M30 0H0V30" fill="none" stroke="#16202e" stroke-width="1"/></pattern>
    <filter id="dsh" x="-20%" y="-20%" width="140%" height="140%"><feDropShadow dx="0" dy="1.5" stdDeviation="2.5" flood-color="#000" flood-opacity="0.35"/></filter>
  </defs>
  <rect width="940" height="330" fill="url(#dbg)"/><rect width="940" height="330" fill="url(#dgrid)" opacity="0.35"/>
  <rect x="0" y="0" width="940" height="44" fill="#121826" opacity="0.5"/>
  <rect x="24" y="13" width="4" height="19" rx="2" fill="url(#dac)"/>
  <text x="36" y="28" font-size="15" font-weight="750" fill="#e6edf6">§8 · 聚合根=一致性边界：案例聚合的真实结构</text>
<line x1="320.0" y1="102.0" x2="240.0" y2="238.0" stroke="#38bdf8" stroke-width="1.6" /><path d="M240 238 L240.2 230.5 L246.4 234.1 z" fill="#38bdf8"/>
<line x1="470.0" y1="134.0" x2="360.0" y2="210.0" stroke="#38bdf8" stroke-width="1.6" /><path d="M360 210 L363.4 203.3 L367.5 209.2 z" fill="#38bdf8"/>
<line x1="470.0" y1="134.0" x2="580.0" y2="210.0" stroke="#38bdf8" stroke-width="1.6" /><path d="M580 210 L572.5 209.2 L576.6 203.3 z" fill="#38bdf8"/>
<line x1="620.0" y1="102.0" x2="700.0" y2="238.0" stroke="#38bdf8" stroke-width="1.6" /><path d="M700 238 L693.6 234.1 L699.8 230.5 z" fill="#38bdf8"/>
<rect x="320" y="70" width="300" height="64" rx="10" fill="#121826" stroke="#22d3ee" stroke-width="1.4"  filter="url(#dsh)"/>
  <rect x="320" y="70" width="300" height="3" rx="1.5" fill="#22d3ee"/>
  <text x="470" y="101" font-size="12" font-weight="700" fill="#e6edf6" text-anchor="middle">聚合根 · 案例 30</text><text x="470" y="116" font-size="9.5" fill="#5b6b7f" text-anchor="middle">case_definitions.json（唯一入口）</text>
<rect x="40" y="210" width="200" height="56" rx="10" fill="#121826" stroke="#5b6b7f" stroke-width="1.4"  filter="url(#dsh)"/>
  <rect x="40" y="210" width="200" height="3" rx="1.5" fill="#5b6b7f"/>
  <text x="140" y="237" font-size="12" font-weight="700" fill="#e6edf6" text-anchor="middle">fields ×7</text><text x="140" y="252" font-size="9.5" fill="#5b6b7f" text-anchor="middle">守卫: fields⊆表头</text>
<rect x="260" y="210" width="200" height="56" rx="10" fill="#121826" stroke="#5b6b7f" stroke-width="1.4"  filter="url(#dsh)"/>
  <rect x="260" y="210" width="200" height="3" rx="1.5" fill="#5b6b7f"/>
  <text x="360" y="237" font-size="12" font-weight="700" fill="#e6edf6" text-anchor="middle">metricChain ×5</text><text x="360" y="252" font-size="9.5" fill="#5b6b7f" text-anchor="middle">守卫: KPI 数一致</text>
<rect x="480" y="210" width="200" height="56" rx="10" fill="#121826" stroke="#5b6b7f" stroke-width="1.4"  filter="url(#dsh)"/>
  <rect x="480" y="210" width="200" height="3" rx="1.5" fill="#5b6b7f"/>
  <text x="580" y="237" font-size="12" font-weight="700" fill="#e6edf6" text-anchor="middle">exceptionStates ×4</text><text x="580" y="252" font-size="9.5" fill="#5b6b7f" text-anchor="middle">守卫: 异常可追踪</text>
<rect x="700" y="210" width="200" height="56" rx="10" fill="#121826" stroke="#5b6b7f" stroke-width="1.4"  filter="url(#dsh)"/>
  <rect x="700" y="210" width="200" height="3" rx="1.5" fill="#5b6b7f"/>
  <text x="800" y="237" font-size="12" font-weight="700" fill="#e6edf6" text-anchor="middle">skills ×3</text><text x="800" y="252" font-size="9.5" fill="#5b6b7f" text-anchor="middle">守卫: 已注册</text>
<text x="24" y="316" font-size="10.5" fill="#5b6b7f">子对象只能经根修改（改 defs→重建）；verify 守卫=聚合不变量的机器化。数字为案例 30 实时读数。</text>
</svg>