<svg xmlns="http://www.w3.org/2000/svg" viewBox="0 0 940 420" font-family="PingFang SC,Microsoft YaHei,sans-serif">
  <defs>
    <linearGradient id="dbg" x1="0" y1="0" x2="1" y2="1"><stop offset="0" stop-color="#0a0e14"/><stop offset="1" stop-color="#0d1220"/></linearGradient>
    <linearGradient id="dac" x1="0" y1="0" x2="1" y2="0"><stop offset="0" stop-color="#22d3ee"/><stop offset="1" stop-color="#38bdf8"/></linearGradient>
    <pattern id="dgrid" width="30" height="30" patternUnits="userSpaceOnUse"><path d="M30 0H0V30" fill="none" stroke="#16202e" stroke-width="1"/></pattern>
    <filter id="dsh" x="-20%" y="-20%" width="140%" height="140%"><feDropShadow dx="0" dy="1.5" stdDeviation="2.5" flood-color="#000" flood-opacity="0.35"/></filter>
  </defs>
  <rect width="940" height="420" fill="url(#dbg)"/><rect width="940" height="420" fill="url(#dgrid)" opacity="0.35"/>
  <rect x="0" y="0" width="940" height="44" fill="#121826" opacity="0.5"/>
  <rect x="24" y="13" width="4" height="19" rx="2" fill="url(#dac)"/>
  <text x="36" y="28" font-size="15" font-weight="750" fill="#e6edf6">§6 · 交付门禁看板（能不能发，靠可核对的关卡）</text>
<line x1="280.0" y1="120.0" x2="400.0" y2="210.0" stroke="#38bdf8" stroke-width="1.6" /><path d="M400 210 L392.6 208.9 L396.9 203.2 z" fill="#38bdf8"/>
<line x1="280.0" y1="205.0" x2="400.0" y2="210.0" stroke="#38bdf8" stroke-width="1.6" /><path d="M400 210 L393.3 213.3 L393.6 206.1 z" fill="#38bdf8"/>
<line x1="280.0" y1="290.0" x2="400.0" y2="210.0" stroke="#38bdf8" stroke-width="1.6" /><path d="M400 210 L396.5 216.6 L392.5 210.7 z" fill="#38bdf8"/>
<line x1="500.0" y1="300.0" x2="500.0" y2="245.0" stroke="#fbbf24" stroke-width="1.6" stroke-dasharray="5 3"/><path d="M500 245 L503.6 251.6 L496.4 251.6 z" fill="#fbbf24"/><rect x="488.4" y="264.5" width="23.2" height="15" rx="4" fill="#0d1220" stroke="#1e2a3a"/><text x="500" y="275.5" font-size="9" fill="#9fb0c3" text-anchor="middle">兜底</text>
<line x1="600.0" y1="210.0" x2="720.0" y2="210.0" stroke="#38bdf8" stroke-width="1.6" /><path d="M720 210 L713.4 213.6 L713.4 206.4 z" fill="#38bdf8"/><rect x="638.5" y="202" width="43" height="15" rx="4" fill="#0d1220" stroke="#1e2a3a"/><text x="660" y="213" font-size="9" fill="#9fb0c3" text-anchor="middle">绿灯→签署</text>
<rect x="50" y="90" width="230" height="60" rx="10" fill="#121826" stroke="#34d399" stroke-width="1.4"  filter="url(#dsh)"/>
  <rect x="50" y="90" width="230" height="3" rx="1.5" fill="#34d399"/><g transform="translate(59,99) scale(0.62)" fill="none" stroke="#34d399" stroke-width="2" stroke-linecap="round" stroke-linejoin="round" opacity="0.9"><circle cx="12" cy="12" r="10" />
  <path d="m9 12 2 2 4-4" /></g>
  <text x="165" y="119" font-size="12" font-weight="700" fill="#e6edf6" text-anchor="middle">verify（数百项）</text><text x="165" y="134" font-size="9.5" fill="#5b6b7f" text-anchor="middle">真数据/诚信/镜头/结构</text>
<rect x="50" y="175" width="230" height="60" rx="10" fill="#121826" stroke="#34d399" stroke-width="1.4"  filter="url(#dsh)"/>
  <rect x="50" y="175" width="230" height="3" rx="1.5" fill="#34d399"/><g transform="translate(59,184) scale(0.62)" fill="none" stroke="#34d399" stroke-width="2" stroke-linecap="round" stroke-linejoin="round" opacity="0.9"><path d="M14 2v6a2 2 0 0 0 .245.96l5.51 10.08A2 2 0 0 1 18 22H6a2 2 0 0 1-1.755-2.96l5.51-10.08A2 2 0 0 0 10 8V2" />
  <path d="M6.453 15h11.094" />
  <path d="M8.5 2h7" /></g>
  <text x="165" y="204" font-size="12" font-weight="700" fill="#e6edf6" text-anchor="middle">后端 node:test</text><text x="165" y="219" font-size="9.5" fill="#5b6b7f" text-anchor="middle">端点契约断言</text>
<rect x="50" y="260" width="230" height="60" rx="10" fill="#121826" stroke="#34d399" stroke-width="1.4"  filter="url(#dsh)"/>
  <rect x="50" y="260" width="230" height="3" rx="1.5" fill="#34d399"/><g transform="translate(59,269) scale(0.62)" fill="none" stroke="#34d399" stroke-width="2" stroke-linecap="round" stroke-linejoin="round" opacity="0.9"><path d="M14 2v6a2 2 0 0 0 .245.96l5.51 10.08A2 2 0 0 1 18 22H6a2 2 0 0 1-1.755-2.96l5.51-10.08A2 2 0 0 0 10 8V2" />
  <path d="M6.453 15h11.094" />
  <path d="M8.5 2h7" /></g>
  <text x="165" y="289" font-size="12" font-weight="700" fill="#e6edf6" text-anchor="middle">前端 vitest</text><text x="165" y="304" font-size="9.5" fill="#5b6b7f" text-anchor="middle">组件/纯逻辑</text>
<rect x="400" y="175" width="200" height="70" rx="10" fill="#121826" stroke="#22d3ee" stroke-width="1.4"  filter="url(#dsh)"/>
  <rect x="400" y="175" width="200" height="3" rx="1.5" fill="#22d3ee"/><g transform="translate(409,184) scale(0.62)" fill="none" stroke="#22d3ee" stroke-width="2" stroke-linecap="round" stroke-linejoin="round" opacity="0.9"><circle cx="12" cy="12" r="10" />
  <circle cx="12" cy="12" r="6" />
  <circle cx="12" cy="12" r="2" /></g>
  <text x="500" y="209" font-size="12" font-weight="700" fill="#e6edf6" text-anchor="middle">发布门禁</text><text x="500" y="224" font-size="9.5" fill="#5b6b7f" text-anchor="middle">三绿=必要条件</text>
<rect x="400" y="300" width="200" height="60" rx="10" fill="#121826" stroke="#fbbf24" stroke-width="1.4"  filter="url(#dsh)"/>
  <rect x="400" y="300" width="200" height="3" rx="1.5" fill="#fbbf24"/><g transform="translate(409,309) scale(0.62)" fill="none" stroke="#fbbf24" stroke-width="2" stroke-linecap="round" stroke-linejoin="round" opacity="0.9"><path d="m21.73 18-8-14a2 2 0 0 0-3.48 0l-8 14A2 2 0 0 0 4 21h16a2 2 0 0 0 1.73-3" />
  <path d="M12 9v4" />
  <path d="M12 17h.01" /></g>
  <text x="500" y="329" font-size="12" font-weight="700" fill="#e6edf6" text-anchor="middle">风险登记</text><text x="500" y="344" font-size="9.5" fill="#5b6b7f" text-anchor="middle">已知风险→自动检测</text>
<rect x="720" y="175" width="170" height="70" rx="10" fill="#121826" stroke="#38bdf8" stroke-width="1.4"  filter="url(#dsh)"/>
  <rect x="720" y="175" width="170" height="3" rx="1.5" fill="#38bdf8"/><rect x="867" y="181" width="17" height="15" rx="7" fill="#38bdf8" opacity="0.18"/><text x="880" y="192" font-size="8.5" fill="#38bdf8" text-anchor="end">人</text><g transform="translate(729,184) scale(0.62)" fill="none" stroke="#38bdf8" stroke-width="2" stroke-linecap="round" stroke-linejoin="round" opacity="0.9"><rect width="8" height="4" x="8" y="2" rx="1" ry="1" />
  <path d="M16 4h2a2 2 0 0 1 2 2v14a2 2 0 0 1-2 2H6a2 2 0 0 1-2-2V6a2 2 0 0 1 2-2h2" />
  <path d="M12 11h4" />
  <path d="M12 16h4" />
  <path d="M8 11h.01" />
  <path d="M8 16h.01" /></g>
  <text x="805" y="209" font-size="12" font-weight="700" fill="#e6edf6" text-anchor="middle">人工签署</text><text x="805" y="224" font-size="9.5" fill="#5b6b7f" text-anchor="middle">高影响项</text>
<text x="24" y="406" font-size="10.5" fill="#5b6b7f">把「差不多了」变成一组可自动核对的关卡：三绿全通过是发布必要条件，高影响项仍需人工签署。</text>
</svg>