<svg xmlns="http://www.w3.org/2000/svg" viewBox="0 0 940 440" font-family="PingFang SC,Microsoft YaHei,sans-serif">
  <defs>
    <linearGradient id="dbg" x1="0" y1="0" x2="1" y2="1"><stop offset="0" stop-color="#0a0e14"/><stop offset="1" stop-color="#0d1220"/></linearGradient>
    <linearGradient id="dac" x1="0" y1="0" x2="1" y2="0"><stop offset="0" stop-color="#22d3ee"/><stop offset="1" stop-color="#38bdf8"/></linearGradient>
    <pattern id="dgrid" width="30" height="30" patternUnits="userSpaceOnUse"><path d="M30 0H0V30" fill="none" stroke="#16202e" stroke-width="1"/></pattern>
    <filter id="dsh" x="-20%" y="-20%" width="140%" height="140%"><feDropShadow dx="0" dy="1.5" stdDeviation="2.5" flood-color="#000" flood-opacity="0.35"/></filter>
  </defs>
  <rect width="940" height="440" fill="url(#dbg)"/><rect width="940" height="440" fill="url(#dgrid)" opacity="0.35"/>
  <rect x="0" y="0" width="940" height="44" fill="#121826" opacity="0.5"/>
  <rect x="24" y="13" width="4" height="19" rx="2" fill="url(#dac)"/>
  <text x="36" y="28" font-size="15" font-weight="750" fill="#e6edf6">C4 · 组件（Component）：api 容器内部</text><rect x="40" y="66" width="860" height="340" rx="12" fill="#22d3ee" opacity="0.06"/><rect x="40" y="66" width="860" height="340" rx="12" fill="none" stroke="#22d3ee" stroke-opacity="0.45" /><text x="52" y="84" font-size="11" font-weight="650" fill="#22d3ee">api 容器（code/server）</text>
<line x1="320.0" y1="145.0" x2="360.0" y2="145.0" stroke="#38bdf8" stroke-width="1.6" /><path d="M360 145 L353.4 148.6 L353.4 141.4 z" fill="#38bdf8"/><rect x="318.5" y="137" width="43" height="15" rx="4" fill="#0d1220" stroke="#1e2a3a"/><text x="340" y="148" font-size="9" fill="#9fb0c3" text-anchor="middle">路由→服务</text>
<line x1="610.0" y1="145.0" x2="650.0" y2="145.0" stroke="#38bdf8" stroke-width="1.6" /><path d="M650 145 L643.4 148.6 L643.4 141.4 z" fill="#38bdf8"/><rect x="618.4" y="137" width="23.2" height="15" rx="4" fill="#0d1220" stroke="#1e2a3a"/><text x="630" y="148" font-size="9" fill="#9fb0c3" text-anchor="middle">分派</text>
<line x1="650.0" y1="145.0" x2="610.0" y2="285.0" stroke="#38bdf8" stroke-width="1.6" /><path d="M610 285 L608.4 277.7 L615.3 279.7 z" fill="#38bdf8"/><rect x="615.1" y="207" width="29.799999999999997" height="15" rx="4" fill="#0d1220" stroke="#1e2a3a"/><text x="630" y="218" font-size="9" fill="#9fb0c3" text-anchor="middle">RAG</text>
<line x1="320.0" y1="145.0" x2="650.0" y2="285.0" stroke="#fbbf24" stroke-width="1.6" stroke-dasharray="5 3"/><path d="M650 285 L642.5 285.7 L645.3 279.1 z" fill="#fbbf24"/><rect x="450.3" y="207" width="69.4" height="15" rx="4" fill="#0d1220" stroke="#1e2a3a"/><text x="485" y="218" font-size="9" fill="#9fb0c3" text-anchor="middle">schema 生成</text>
<rect x="70" y="110" width="250" height="70" rx="10" fill="#121826" stroke="#22d3ee" stroke-width="1.4"  filter="url(#dsh)"/>
  <rect x="70" y="110" width="250" height="3" rx="1.5" fill="#22d3ee"/><rect x="290" y="116" width="24" height="15" rx="7" fill="#22d3ee" opacity="0.18"/><text x="310" y="127" font-size="8.5" fill="#22d3ee" text-anchor="end">组件</text>
  <text x="195" y="144" font-size="12" font-weight="700" fill="#e6edf6" text-anchor="middle">routes/api.ts</text><text x="195" y="159" font-size="9.5" fill="#5b6b7f" text-anchor="middle">只收发 HTTP · 不写业务</text>
<rect x="360" y="110" width="250" height="70" rx="10" fill="#121826" stroke="#22d3ee" stroke-width="1.4"  filter="url(#dsh)"/>
  <rect x="360" y="110" width="250" height="3" rx="1.5" fill="#22d3ee"/><rect x="580" y="116" width="24" height="15" rx="7" fill="#22d3ee" opacity="0.18"/><text x="600" y="127" font-size="8.5" fill="#22d3ee" text-anchor="end">组件</text>
  <text x="485" y="144" font-size="12" font-weight="700" fill="#e6edf6" text-anchor="middle">services/cases.ts</text><text x="485" y="159" font-size="9.5" fill="#5b6b7f" text-anchor="middle">caseData · 预计算读取</text>
<rect x="650" y="110" width="220" height="70" rx="10" fill="#121826" stroke="#22d3ee" stroke-width="1.4"  filter="url(#dsh)"/>
  <rect x="650" y="110" width="220" height="3" rx="1.5" fill="#22d3ee"/><rect x="840" y="116" width="24" height="15" rx="7" fill="#22d3ee" opacity="0.18"/><text x="860" y="127" font-size="8.5" fill="#22d3ee" text-anchor="end">组件</text>
  <text x="760" y="144" font-size="12" font-weight="700" fill="#e6edf6" text-anchor="middle">业务服务</text><text x="760" y="159" font-size="9.5" fill="#5b6b7f" text-anchor="middle">rfm / hospital / dispatch / retail</text>
<rect x="360" y="250" width="250" height="70" rx="10" fill="#121826" stroke="#22d3ee" stroke-width="1.4"  filter="url(#dsh)"/>
  <rect x="360" y="250" width="250" height="3" rx="1.5" fill="#22d3ee"/><rect x="580" y="256" width="24" height="15" rx="7" fill="#22d3ee" opacity="0.18"/><text x="600" y="267" font-size="8.5" fill="#22d3ee" text-anchor="end">组件</text>
  <text x="485" y="284" font-size="12" font-weight="700" fill="#e6edf6" text-anchor="middle">vector/store.ts</text><text x="485" y="299" font-size="9.5" fill="#5b6b7f" text-anchor="middle">两阶段召回→重排</text>
<rect x="650" y="250" width="220" height="70" rx="10" fill="#121826" stroke="#fbbf24" stroke-width="1.4"  filter="url(#dsh)"/>
  <rect x="650" y="250" width="220" height="3" rx="1.5" fill="#fbbf24"/><rect x="840" y="256" width="24" height="15" rx="7" fill="#fbbf24" opacity="0.18"/><text x="860" y="267" font-size="8.5" fill="#fbbf24" text-anchor="end">组件</text>
  <text x="760" y="284" font-size="12" font-weight="700" fill="#e6edf6" text-anchor="middle">openapi 契约</text><text x="760" y="299" font-size="9.5" fill="#5b6b7f" text-anchor="middle">/api/openapi.json 自动生成</text>
<text x="24" y="426" font-size="10.5" fill="#5b6b7f">放大一个容器看内部组件与依赖。routes 只收发 HTTP、services 只写业务（§3.3 分层边界）。</text>
</svg>