<svg xmlns="http://www.w3.org/2000/svg" viewBox="0 0 1110 300" font-family="PingFang SC,Microsoft YaHei,sans-serif">
  <defs>
    <linearGradient id="dbg" x1="0" y1="0" x2="1" y2="1"><stop offset="0" stop-color="#0a0e14"/><stop offset="1" stop-color="#0d1220"/></linearGradient>
    <linearGradient id="dac" x1="0" y1="0" x2="1" y2="0"><stop offset="0" stop-color="#22d3ee"/><stop offset="1" stop-color="#38bdf8"/></linearGradient>
    <pattern id="dgrid" width="30" height="30" patternUnits="userSpaceOnUse"><path d="M30 0H0V30" fill="none" stroke="#16202e" stroke-width="1"/></pattern>
    <filter id="dsh" x="-20%" y="-20%" width="140%" height="140%"><feDropShadow dx="0" dy="1.5" stdDeviation="2.5" flood-color="#000" flood-opacity="0.35"/></filter>
  </defs>
  <rect width="1110" height="300" fill="url(#dbg)"/><rect width="1110" height="300" fill="url(#dgrid)" opacity="0.35"/>
  <rect x="0" y="0" width="1110" height="44" fill="#121826" opacity="0.5"/>
  <rect x="24" y="13" width="4" height="19" rx="2" fill="url(#dac)"/>
  <text x="36" y="28" font-size="15" font-weight="750" fill="#e6edf6">§99 · 结课回顾：一条主线串起全书（一个操作模型·三个镜头）</text>
<line x1="190.0" y1="167.0" x2="208.0" y2="167.0" stroke="#38bdf8" stroke-width="1.6" /><path d="M208 167 L201.4 170.6 L201.4 163.4 z" fill="#38bdf8"/>
<line x1="368.0" y1="167.0" x2="386.0" y2="167.0" stroke="#38bdf8" stroke-width="1.6" /><path d="M386 167 L379.4 170.6 L379.4 163.4 z" fill="#38bdf8"/>
<line x1="546.0" y1="167.0" x2="564.0" y2="167.0" stroke="#38bdf8" stroke-width="1.6" /><path d="M564 167 L557.4 170.6 L557.4 163.4 z" fill="#38bdf8"/>
<line x1="724.0" y1="167.0" x2="742.0" y2="167.0" stroke="#38bdf8" stroke-width="1.6" /><path d="M742 167 L735.4 170.6 L735.4 163.4 z" fill="#38bdf8"/>
<line x1="902.0" y1="167.0" x2="920.0" y2="167.0" stroke="#38bdf8" stroke-width="1.6" /><path d="M920 167 L913.4 170.6 L913.4 163.4 z" fill="#38bdf8"/>
<rect x="30" y="130" width="160" height="74" rx="10" fill="#121826" stroke="#22d3ee" stroke-width="1.4"  filter="url(#dsh)"/>
  <rect x="30" y="130" width="160" height="3" rx="1.5" fill="#22d3ee"/>
  <text x="110" y="166" font-size="12" font-weight="700" fill="#e6edf6" text-anchor="middle">篇一 §1-§2</text><text x="110" y="181" font-size="9.5" fill="#5b6b7f" text-anchor="middle">转型与操作模型</text>
<rect x="208" y="130" width="160" height="74" rx="10" fill="#121826" stroke="#22d3ee" stroke-width="1.4"  filter="url(#dsh)"/>
  <rect x="208" y="130" width="160" height="3" rx="1.5" fill="#22d3ee"/>
  <text x="288" y="166" font-size="12" font-weight="700" fill="#e6edf6" text-anchor="middle">篇二 §3·§7-9</text><text x="288" y="181" font-size="9.5" fill="#5b6b7f" text-anchor="middle">架构设计知识体系</text>
<rect x="386" y="130" width="160" height="74" rx="10" fill="#121826" stroke="#22d3ee" stroke-width="1.4"  filter="url(#dsh)"/>
  <rect x="386" y="130" width="160" height="3" rx="1.5" fill="#22d3ee"/>
  <text x="466" y="166" font-size="12" font-weight="700" fill="#e6edf6" text-anchor="middle">篇三 §4-§6</text><text x="466" y="181" font-size="9.5" fill="#5b6b7f" text-anchor="middle">工程与交付</text>
<rect x="564" y="130" width="160" height="74" rx="10" fill="#121826" stroke="#22d3ee" stroke-width="1.4"  filter="url(#dsh)"/>
  <rect x="564" y="130" width="160" height="3" rx="1.5" fill="#22d3ee"/>
  <text x="644" y="166" font-size="12" font-weight="700" fill="#e6edf6" text-anchor="middle">篇四 §10</text><text x="644" y="181" font-size="9.5" fill="#5b6b7f" text-anchor="middle">架构师与AI协作</text>
<rect x="742" y="130" width="160" height="74" rx="10" fill="#121826" stroke="#22d3ee" stroke-width="1.4"  filter="url(#dsh)"/>
  <rect x="742" y="130" width="160" height="3" rx="1.5" fill="#22d3ee"/>
  <text x="822" y="166" font-size="12" font-weight="700" fill="#e6edf6" text-anchor="middle">9 案例</text><text x="822" y="181" font-size="9.5" fill="#5b6b7f" text-anchor="middle">真数据·可运行</text>
<rect x="920" y="130" width="160" height="74" rx="10" fill="#121826" stroke="#34d399" stroke-width="1.4"  filter="url(#dsh)"/>
  <rect x="920" y="130" width="160" height="3" rx="1.5" fill="#34d399"/>
  <text x="1000" y="166" font-size="12" font-weight="700" fill="#e6edf6" text-anchor="middle">你的项目</text><text x="1000" y="181" font-size="9.5" fill="#5b6b7f" text-anchor="middle">把方法用起来</text>
<text x="24" y="286" font-size="10.5" fill="#5b6b7f">四篇（转型与操作模型→架构→工程与交付→协作）→ 案例演示验证 → 你的项目；篇是主题分组，阅读按章号 §1→§10。</text>
</svg>