<svg xmlns="http://www.w3.org/2000/svg" viewBox="0 0 900 380" font-family="PingFang SC,Microsoft YaHei,sans-serif">
  <defs><linearGradient id="bg" x1="0" y1="0" x2="1" y2="1"><stop offset="0" stop-color="#0a0e14"/><stop offset="1" stop-color="#0d1220"/></linearGradient>
  <linearGradient id="acc" x1="0" y1="0" x2="1" y2="0"><stop offset="0" stop-color="#22d3ee"/><stop offset="1" stop-color="#38bdf8"/></linearGradient>
  <pattern id="g" width="26" height="26" patternUnits="userSpaceOnUse"><path d="M26 0H0V26" fill="none" stroke="#16202e" stroke-width="1"/></pattern>
  <filter id="glow"><feGaussianBlur stdDeviation="2.2" result="b"/><feMerge><feMergeNode in="b"/><feMergeNode in="SourceGraphic"/></feMerge></filter></defs>
  <rect width="900" height="380" fill="url(#bg)"/><rect width="900" height="380" fill="url(#g)" opacity="0.4"/><rect x="0" y="0" width="6" height="380" fill="url(#acc)"/><rect x="30" y="90" width="195" height="90" rx="10" fill="#121826" stroke="#1e2a3a"/><text x="46" y="140" font-size="14" fill="#22d3ee">成熟优先</text><rect x="245" y="90" width="195" height="90" rx="10" fill="#121826" stroke="#1e2a3a"/><text x="261" y="140" font-size="14" fill="#22d3ee">DRY 复用</text><rect x="460" y="90" width="195" height="90" rx="10" fill="#121826" stroke="#1e2a3a"/><text x="476" y="140" font-size="14" fill="#22d3ee">目录清晰</text><rect x="675" y="90" width="195" height="90" rx="10" fill="#121826" stroke="#1e2a3a"/><text x="691" y="140" font-size="14" fill="#22d3ee">单文件≤800行</text><rect x="30" y="200" width="195" height="90" rx="10" fill="#121826" stroke="#1e2a3a"/><text x="46" y="250" font-size="14" fill="#22d3ee">类型安全</text><rect x="245" y="200" width="195" height="90" rx="10" fill="#121826" stroke="#1e2a3a"/><text x="261" y="250" font-size="14" fill="#22d3ee">中文注释</text><rect x="460" y="200" width="195" height="90" rx="10" fill="#121826" stroke="#1e2a3a"/><text x="476" y="250" font-size="14" fill="#22d3ee">错误处理</text><rect x="675" y="200" width="195" height="90" rx="10" fill="#121826" stroke="#1e2a3a"/><text x="691" y="250" font-size="14" fill="#22d3ee">安全红线</text></svg>