<svg xmlns="http://www.w3.org/2000/svg" viewBox="0 0 900 380" font-family="PingFang SC,sans-serif"><rect width="900" height="380" fill="#0a0e14"/><rect width="900" height="380" fill="none"/><rect x="30" y="120" width="156" height="140" rx="12" fill="#121826" stroke="#1e2a3a"/><rect x="46" y="140" width="124" height="40" rx="8" fill="#22d3ee"/><text x="46" y="210" font-size="12" fill="#e6edf6">graphite-hud</text><rect x="202" y="120" width="156" height="140" rx="12" fill="#0c1a14" stroke="#17342a"/><rect x="218" y="140" width="124" height="40" rx="8" fill="#10b981"/><text x="218" y="210" font-size="12" fill="#e7f5ee">emerald-flow</text><rect x="374" y="120" width="156" height="140" rx="12" fill="#17130b" stroke="#3a2c14"/><rect x="390" y="140" width="124" height="40" rx="8" fill="#f59e0b"/><text x="390" y="210" font-size="12" fill="#f6efe2">amber-funnel</text><rect x="546" y="120" width="156" height="140" rx="12" fill="#0c1626" stroke="#1c2c46"/><rect x="562" y="140" width="124" height="40" rx="8" fill="#06b6d4"/><text x="562" y="210" font-size="12" fill="#e8eefb">cyan-matrix</text><rect x="718" y="120" width="156" height="140" rx="12" fill="#161a20" stroke="#28303c"/><rect x="734" y="140" width="124" height="40" rx="8" fill="#60a5fa"/><text x="734" y="210" font-size="12" fill="#e8ecf1">steel-queue</text><text x="30" y="80" font-size="14" fill="#e6edf6">多套设计系统（各不相同）</text></svg>