<svg xmlns="http://www.w3.org/2000/svg" viewBox="0 0 980 470" font-family="PingFang SC,Microsoft YaHei,sans-serif">
  <defs>
    <linearGradient id="dbg" x1="0" y1="0" x2="1" y2="1"><stop offset="0" stop-color="#0a0e14"/><stop offset="1" stop-color="#0d1220"/></linearGradient>
    <linearGradient id="dac" x1="0" y1="0" x2="1" y2="0"><stop offset="0" stop-color="#22d3ee"/><stop offset="1" stop-color="#38bdf8"/></linearGradient>
    <pattern id="dgrid" width="30" height="30" patternUnits="userSpaceOnUse"><path d="M30 0H0V30" fill="none" stroke="#16202e" stroke-width="1"/></pattern>
    <filter id="dsh" x="-20%" y="-20%" width="140%" height="140%"><feDropShadow dx="0" dy="1.5" stdDeviation="2.5" flood-color="#000" flood-opacity="0.35"/></filter>
  </defs>
  <rect width="980" height="470" fill="url(#dbg)"/><rect width="980" height="470" fill="url(#dgrid)" opacity="0.35"/>
  <rect x="0" y="0" width="980" height="44" fill="#121826" opacity="0.5"/>
  <rect x="24" y="13" width="4" height="19" rx="2" fill="url(#dac)"/>
  <text x="36" y="28" font-size="15" font-weight="750" fill="#e6edf6">§5 · AI slop 反模式 vs 反制（给 AI 一套设计词汇表）</text><rect x="40" y="80" width="440" height="360" rx="12" fill="#f87171" opacity="0.06"/><rect x="40" y="80" width="440" height="360" rx="12" fill="none" stroke="#f87171" stroke-opacity="0.45" /><text x="52" y="98" font-size="11" font-weight="650" fill="#f87171">AI slop 廉价指纹</text>
<rect x="500" y="80" width="440" height="360" rx="12" fill="#34d399" opacity="0.06"/><rect x="500" y="80" width="440" height="360" rx="12" fill="none" stroke="#34d399" stroke-opacity="0.45" /><text x="512" y="98" font-size="11" font-weight="650" fill="#34d399">反制</text>

<rect x="70" y="110" width="380" height="48" rx="10" fill="#121826" stroke="#f87171" stroke-width="1.4"  filter="url(#dsh)"/>
  <rect x="70" y="110" width="380" height="3" rx="1.5" fill="#f87171"/>
  <text x="260" y="138" font-size="12" font-weight="700" fill="#e6edf6" text-anchor="middle">紫色渐变背景</text>
<rect x="70" y="174" width="380" height="48" rx="10" fill="#121826" stroke="#f87171" stroke-width="1.4"  filter="url(#dsh)"/>
  <rect x="70" y="174" width="380" height="3" rx="1.5" fill="#f87171"/>
  <text x="260" y="202" font-size="12" font-weight="700" fill="#e6edf6" text-anchor="middle">Inter 字体铺满</text>
<rect x="70" y="238" width="380" height="48" rx="10" fill="#121826" stroke="#f87171" stroke-width="1.4"  filter="url(#dsh)"/>
  <rect x="70" y="238" width="380" height="3" rx="1.5" fill="#f87171"/>
  <text x="260" y="266" font-size="12" font-weight="700" fill="#e6edf6" text-anchor="middle">卡片里再套卡片</text>
<rect x="70" y="302" width="380" height="48" rx="10" fill="#121826" stroke="#f87171" stroke-width="1.4"  filter="url(#dsh)"/>
  <rect x="70" y="302" width="380" height="3" rx="1.5" fill="#f87171"/>
  <text x="260" y="330" font-size="12" font-weight="700" fill="#e6edf6" text-anchor="middle">hero 上方药丸小标签</text>
<rect x="70" y="366" width="380" height="48" rx="10" fill="#121826" stroke="#f87171" stroke-width="1.4"  filter="url(#dsh)"/>
  <rect x="70" y="366" width="380" height="3" rx="1.5" fill="#f87171"/>
  <text x="260" y="394" font-size="12" font-weight="700" fill="#e6edf6" text-anchor="middle">「Not a tool. A platform.」三段文案</text>
<rect x="530" y="110" width="380" height="48" rx="10" fill="#121826" stroke="#34d399" stroke-width="1.4"  filter="url(#dsh)"/>
  <rect x="530" y="110" width="380" height="3" rx="1.5" fill="#34d399"/>
  <text x="720" y="138" font-size="12" font-weight="700" fill="#e6edf6" text-anchor="middle">OKLCH 色彩空间</text>
<rect x="530" y="174" width="380" height="48" rx="10" fill="#121826" stroke="#34d399" stroke-width="1.4"  filter="url(#dsh)"/>
  <rect x="530" y="174" width="380" height="3" rx="1.5" fill="#34d399"/>
  <text x="720" y="202" font-size="12" font-weight="700" fill="#e6edf6" text-anchor="middle">结构化设计词汇表</text>
<rect x="530" y="238" width="380" height="48" rx="10" fill="#121826" stroke="#34d399" stroke-width="1.4"  filter="url(#dsh)"/>
  <rect x="530" y="238" width="380" height="3" rx="1.5" fill="#34d399"/>
  <text x="720" y="266" font-size="12" font-weight="700" fill="#e6edf6" text-anchor="middle">用间距 + 层级，不嵌套卡片</text>
<rect x="530" y="302" width="380" height="48" rx="10" fill="#121826" stroke="#34d399" stroke-width="1.4"  filter="url(#dsh)"/>
  <rect x="530" y="302" width="380" height="3" rx="1.5" fill="#34d399"/>
  <text x="720" y="330" font-size="12" font-weight="700" fill="#e6edf6" text-anchor="middle">指数衰减代替弹跳缓动</text>
<rect x="530" y="366" width="380" height="48" rx="10" fill="#121826" stroke="#34d399" stroke-width="1.4"  filter="url(#dsh)"/>
  <rect x="530" y="366" width="380" height="3" rx="1.5" fill="#34d399"/>
  <text x="720" y="394" font-size="12" font-weight="700" fill="#e6edf6" text-anchor="middle">practice what you preach（官网自测）</text>
<text x="24" y="456" font-size="10.5" fill="#5b6b7f">所有前端大模型啃过同一批素材 → 同一身审美肌肉记忆（左）；反制不是更长 prompt，而是结构化词汇表 + 纯规则检测（右，Impeccable）。</text>
</svg>