<svg xmlns="http://www.w3.org/2000/svg" viewBox="0 0 1000 600" font-family="PingFang SC,Microsoft YaHei,sans-serif">
  <defs>
    <linearGradient id="dbg" x1="0" y1="0" x2="1" y2="1"><stop offset="0" stop-color="#0a0e14"/><stop offset="1" stop-color="#0d1220"/></linearGradient>
    <linearGradient id="dac" x1="0" y1="0" x2="1" y2="0"><stop offset="0" stop-color="#22d3ee"/><stop offset="1" stop-color="#38bdf8"/></linearGradient>
    <pattern id="dgrid" width="30" height="30" patternUnits="userSpaceOnUse"><path d="M30 0H0V30" fill="none" stroke="#16202e" stroke-width="1"/></pattern>
    <filter id="dsh" x="-20%" y="-20%" width="140%" height="140%"><feDropShadow dx="0" dy="1.5" stdDeviation="2.5" flood-color="#000" flood-opacity="0.35"/></filter>
  </defs>
  <rect width="1000" height="600" fill="url(#dbg)"/><rect width="1000" height="600" fill="url(#dgrid)" opacity="0.35"/>
  <rect x="0" y="0" width="1000" height="44" fill="#121826" opacity="0.5"/>
  <rect x="24" y="13" width="4" height="19" rx="2" fill="url(#dac)"/>
  <text x="36" y="28" font-size="15" font-weight="750" fill="#e6edf6">C4 · 容器（Container）：单 Node 服务内的真实子系统</text><rect x="56" y="66" width="690" height="476" rx="12" fill="#22d3ee" opacity="0.06"/><rect x="56" y="66" width="690" height="476" rx="12" fill="none" stroke="#22d3ee" stroke-opacity="0.45" /><text x="68" y="84" font-size="11" font-weight="650" fill="#22d3ee">AI 一体化知识库平台 · 单 Fastify + node:sqlite 服务</text>
<line x1="800.0" y1="126.0" x2="396.0" y2="139.0" stroke="#38bdf8" stroke-width="1.6" /><path d="M396 139 L402.5 135.2 L402.7 142.4 z" fill="#38bdf8"/><rect x="579.8" y="124.5" width="36.4" height="15" rx="4" fill="#0d1220" stroke="#1e2a3a"/><text x="598" y="135.5" font-size="9" fill="#9fb0c3" text-anchor="middle">HTTP</text>
<line x1="246.0" y1="172.0" x2="246.0" y2="232.0" stroke="#38bdf8" stroke-width="1.6" /><path d="M246 232 L242.4 225.4 L249.6 225.4 z" fill="#38bdf8"/><rect x="221.2" y="194" width="49.599999999999994" height="15" rx="4" fill="#0d1220" stroke="#1e2a3a"/><text x="246" y="205" font-size="9" fill="#9fb0c3" text-anchor="middle">/api/*</text>
<line x1="246.0" y1="298.0" x2="246.0" y2="358.0" stroke="#38bdf8" stroke-width="1.6" /><path d="M246 358 L242.4 351.4 L249.6 351.4 z" fill="#38bdf8"/><rect x="234.4" y="320" width="23.2" height="15" rx="4" fill="#0d1220" stroke="#1e2a3a"/><text x="246" y="331" font-size="9" fill="#9fb0c3" text-anchor="middle">调用</text>
<line x1="396.0" y1="391.0" x2="430.0" y2="391.0" stroke="#38bdf8" stroke-width="1.6" /><path d="M430 391 L423.4 394.6 L423.4 387.4 z" fill="#38bdf8"/><rect x="398.1" y="383" width="29.799999999999997" height="15" rx="4" fill="#0d1220" stroke="#1e2a3a"/><text x="413" y="394" font-size="9" fill="#9fb0c3" text-anchor="middle">SQL</text>
<line x1="396.0" y1="391.0" x2="588.0" y2="391.0" stroke="#38bdf8" stroke-width="1.6" /><path d="M588 391 L581.4 394.6 L581.4 387.4 z" fill="#38bdf8"/><rect x="480.4" y="383" width="23.2" height="15" rx="4" fill="#0d1220" stroke="#1e2a3a"/><text x="492" y="394" font-size="9" fill="#9fb0c3" text-anchor="middle">检索</text>
<line x1="792.0" y1="487.0" x2="570.0" y2="391.0" stroke="#38bdf8" stroke-width="1.6" stroke-dasharray="5 3"/><path d="M570 391 L577.5 390.3 L574.6 396.9 z" fill="#38bdf8"/><rect x="659.5" y="431" width="43" height="15" rx="4" fill="#0d1220" stroke="#1e2a3a"/><text x="681" y="442" font-size="9" fill="#9fb0c3" text-anchor="middle">构建期装载</text>
<line x1="430.0" y1="139.0" x2="396.0" y2="391.0" stroke="#fbbf24" stroke-width="1.6" stroke-dasharray="5 3"/><path d="M396 391 L393.3 384.0 L400.4 385.0 z" fill="#fbbf24"/><rect x="391.5" y="257" width="43" height="15" rx="4" fill="#0d1220" stroke="#1e2a3a"/><text x="413" y="268" font-size="9" fill="#9fb0c3" text-anchor="middle">门禁·只读</text>
<rect x="800" y="96" width="150" height="60" rx="10" fill="#121826" stroke="#38bdf8" stroke-width="1.4"  filter="url(#dsh)"/>
  <rect x="800" y="96" width="150" height="3" rx="1.5" fill="#38bdf8"/><rect x="927" y="102" width="17" height="15" rx="7" fill="#38bdf8" opacity="0.18"/><text x="940" y="113" font-size="8.5" fill="#38bdf8" text-anchor="end">人</text>
  <text x="875" y="125" font-size="12" font-weight="700" fill="#e6edf6" text-anchor="middle">学习者</text><text x="875" y="140" font-size="9.5" fill="#5b6b7f" text-anchor="middle">浏览器</text>
<rect x="792" y="452" width="170" height="70" rx="10" fill="#121826" stroke="#9fb0c3" stroke-width="1.4" stroke-dasharray="5 3" filter="url(#dsh)"/>
  <rect x="792" y="452" width="170" height="3" rx="1.5" fill="#9fb0c3"/><rect x="932" y="458" width="24" height="15" rx="7" fill="#9fb0c3" opacity="0.18"/><text x="952" y="469" font-size="8.5" fill="#9fb0c3" text-anchor="end">外部</text>
  <text x="877" y="486" font-size="12" font-weight="700" fill="#e6edf6" text-anchor="middle">公开数据集</text><text x="877" y="501" font-size="9.5" fill="#5b6b7f" text-anchor="middle">UCI / CMS / DOT</text>
<rect x="96" y="106" width="300" height="66" rx="10" fill="#121826" stroke="#22d3ee" stroke-width="1.4"  filter="url(#dsh)"/>
  <rect x="96" y="106" width="300" height="3" rx="1.5" fill="#22d3ee"/><rect x="366" y="112" width="24" height="15" rx="7" fill="#22d3ee" opacity="0.18"/><text x="386" y="123" font-size="8.5" fill="#22d3ee" text-anchor="end">容器</text>
  <text x="246" y="138" font-size="12" font-weight="700" fill="#e6edf6" text-anchor="middle">web · React SPA</text><text x="246" y="153" font-size="9.5" fill="#5b6b7f" text-anchor="middle">#/case/NN 大屏 + 实验室</text>
<rect x="430" y="106" width="296" height="66" rx="10" fill="#121826" stroke="#fbbf24" stroke-width="1.4"  filter="url(#dsh)"/>
  <rect x="430" y="106" width="296" height="3" rx="1.5" fill="#fbbf24"/><rect x="696" y="112" width="24" height="15" rx="7" fill="#fbbf24" opacity="0.18"/><text x="716" y="123" font-size="8.5" fill="#fbbf24" text-anchor="end">容器</text>
  <text x="578" y="138" font-size="12" font-weight="700" fill="#e6edf6" text-anchor="middle">verify · 校验器(checker)</text><text x="578" y="153" font-size="9.5" fill="#5b6b7f" text-anchor="middle">数百项门禁 · 只读</text>
<rect x="96" y="232" width="300" height="66" rx="10" fill="#121826" stroke="#22d3ee" stroke-width="1.4"  filter="url(#dsh)"/>
  <rect x="96" y="232" width="300" height="3" rx="1.5" fill="#22d3ee"/><rect x="366" y="238" width="24" height="15" rx="7" fill="#22d3ee" opacity="0.18"/><text x="386" y="249" font-size="8.5" fill="#22d3ee" text-anchor="end">容器</text>
  <text x="246" y="264" font-size="12" font-weight="700" fill="#e6edf6" text-anchor="middle">api · Fastify routes</text><text x="246" y="279" font-size="9.5" fill="#5b6b7f" text-anchor="middle">/api/* 契约 · OpenAPI 自动生成</text>
<rect x="96" y="358" width="300" height="66" rx="10" fill="#121826" stroke="#22d3ee" stroke-width="1.4"  filter="url(#dsh)"/>
  <rect x="96" y="358" width="300" height="3" rx="1.5" fill="#22d3ee"/><rect x="366" y="364" width="24" height="15" rx="7" fill="#22d3ee" opacity="0.18"/><text x="386" y="375" font-size="8.5" fill="#22d3ee" text-anchor="end">容器</text>
  <text x="246" y="390" font-size="12" font-weight="700" fill="#e6edf6" text-anchor="middle">services · 业务服务</text><text x="246" y="405" font-size="9.5" fill="#5b6b7f" text-anchor="middle">cases / rfm / hospital / dispatch…</text>
<rect x="430" y="358" width="140" height="66" rx="10" fill="#121826" stroke="#34d399" stroke-width="1.4"  filter="url(#dsh)"/>
  <rect x="430" y="358" width="140" height="3" rx="1.5" fill="#34d399"/><rect x="540" y="364" width="24" height="15" rx="7" fill="#34d399" opacity="0.18"/><text x="560" y="375" font-size="8.5" fill="#34d399" text-anchor="end">存储</text>
  <text x="500" y="390" font-size="12" font-weight="700" fill="#e6edf6" text-anchor="middle">db · node:sqlite</text><text x="500" y="405" font-size="9.5" fill="#5b6b7f" text-anchor="middle">真 SQL 聚合</text>
<rect x="588" y="358" width="138" height="66" rx="10" fill="#121826" stroke="#34d399" stroke-width="1.4"  filter="url(#dsh)"/>
  <rect x="588" y="358" width="138" height="3" rx="1.5" fill="#34d399"/><rect x="696" y="364" width="24" height="15" rx="7" fill="#34d399" opacity="0.18"/><text x="716" y="375" font-size="8.5" fill="#34d399" text-anchor="end">存储</text>
  <text x="657" y="390" font-size="12" font-weight="700" fill="#e6edf6" text-anchor="middle">vector · TF-IDF</text><text x="657" y="405" font-size="9.5" fill="#5b6b7f" text-anchor="middle">RAG 召回+重排</text>
<rect x="771.3999999999999" y="574" width="12" height="12" rx="3" fill="#9fb0c3"/><text x="789.3999999999999" y="584" font-size="9.5" fill="#9fb0c3">外部</text><rect x="818.5999999999999" y="574" width="12" height="12" rx="3" fill="#fbbf24"/><text x="836.5999999999999" y="584" font-size="9.5" fill="#9fb0c3">校验/门禁</text><rect x="885.5999999999999" y="574" width="12" height="12" rx="3" fill="#34d399"/><text x="903.5999999999999" y="584" font-size="9.5" fill="#9fb0c3">存储</text><rect x="932.8" y="574" width="12" height="12" rx="3" fill="#22d3ee"/><text x="950.8" y="584" font-size="9.5" fill="#9fb0c3">容器</text><text x="24" y="586" font-size="10.5" fill="#5b6b7f">web→api→services→db/vector 是真实调用链；verify 是只读校验器（Loop 的 checker）；数据集构建期装载。</text>
</svg>