<svg xmlns="http://www.w3.org/2000/svg" viewBox="0 0 900 420" font-family="PingFang SC,Microsoft YaHei,sans-serif">
  <defs>
    <linearGradient id="dbg" x1="0" y1="0" x2="1" y2="1"><stop offset="0" stop-color="#0a0e14"/><stop offset="1" stop-color="#0d1220"/></linearGradient>
    <linearGradient id="dac" x1="0" y1="0" x2="1" y2="0"><stop offset="0" stop-color="#22d3ee"/><stop offset="1" stop-color="#38bdf8"/></linearGradient>
    <pattern id="dgrid" width="30" height="30" patternUnits="userSpaceOnUse"><path d="M30 0H0V30" fill="none" stroke="#16202e" stroke-width="1"/></pattern>
    <filter id="dsh" x="-20%" y="-20%" width="140%" height="140%"><feDropShadow dx="0" dy="1.5" stdDeviation="2.5" flood-color="#000" flood-opacity="0.35"/></filter>
  </defs>
  <rect width="900" height="420" fill="url(#dbg)"/><rect width="900" height="420" fill="url(#dgrid)" opacity="0.35"/>
  <rect x="0" y="0" width="900" height="44" fill="#121826" opacity="0.5"/>
  <rect x="24" y="13" width="4" height="19" rx="2" fill="url(#dac)"/>
  <text x="36" y="28" font-size="15" font-weight="750" fill="#e6edf6">部署视图：一条命令、一个进程（真实拓扑）</text><rect x="60" y="80" width="500" height="300" rx="12" fill="#22d3ee" opacity="0.06"/><rect x="60" y="80" width="500" height="300" rx="12" fill="none" stroke="#22d3ee" stroke-opacity="0.45" stroke-dasharray="6 4"/><text x="72" y="98" font-size="11" font-weight="650" fill="#22d3ee">一台机器 · Node ≥ 22 进程（bash code/run.sh）</text>
<line x1="640.0" y1="233.0" x2="520.0" y2="160.0" stroke="#38bdf8" stroke-width="1.6" /><path d="M520 160 L527.5 160.3 L523.8 166.5 z" fill="#38bdf8"/><path d="M640 233 L647.5 233.3 L643.8 239.5 z" fill="#38bdf8"/><rect x="542.0" y="188.5" width="76" height="15" rx="4" fill="#0d1220" stroke="#1e2a3a"/><text x="580" y="199.5" font-size="9" fill="#9fb0c3" text-anchor="middle">HTTP :5200</text>
<line x1="100.0" y1="160.0" x2="300.0" y2="260.0" stroke="#38bdf8" stroke-width="1.6" /><path d="M300 260 L292.5 260.3 L295.7 253.8 z" fill="#38bdf8"/><rect x="188.4" y="202" width="23.2" height="15" rx="4" fill="#0d1220" stroke="#1e2a3a"/><text x="200" y="213" font-size="9" fill="#9fb0c3" text-anchor="middle">查询</text>
<line x1="520.0" y1="160.0" x2="330.0" y2="260.0" stroke="#38bdf8" stroke-width="1.6" /><path d="M330 260 L334.1 253.8 L337.5 260.1 z" fill="#38bdf8"/><rect x="413.4" y="202" width="23.2" height="15" rx="4" fill="#0d1220" stroke="#1e2a3a"/><text x="425" y="213" font-size="9" fill="#9fb0c3" text-anchor="middle">读取</text>
<rect x="100" y="130" width="420" height="60" rx="10" fill="#121826" stroke="#22d3ee" stroke-width="1.4"  filter="url(#dsh)"/>
  <rect x="100" y="130" width="420" height="3" rx="1.5" fill="#22d3ee"/><rect x="490" y="136" width="24" height="15" rx="7" fill="#22d3ee" opacity="0.18"/><text x="510" y="147" font-size="8.5" fill="#22d3ee" text-anchor="end">进程</text>
  <text x="310" y="159" font-size="12" font-weight="700" fill="#e6edf6" text-anchor="middle">Fastify 服务（:5200）</text><text x="310" y="174" font-size="9.5" fill="#5b6b7f" text-anchor="middle">托管 web/dist + 全部 /api</text>
<rect x="100" y="230" width="200" height="60" rx="10" fill="#121826" stroke="#34d399" stroke-width="1.4"  filter="url(#dsh)"/>
  <rect x="100" y="230" width="200" height="3" rx="1.5" fill="#34d399"/><rect x="270" y="236" width="24" height="15" rx="7" fill="#34d399" opacity="0.18"/><text x="290" y="247" font-size="8.5" fill="#34d399" text-anchor="end">文件</text>
  <text x="200" y="259" font-size="12" font-weight="700" fill="#e6edf6" text-anchor="middle">node:sqlite</text><text x="200" y="274" font-size="9.5" fill="#5b6b7f" text-anchor="middle">进程内 · 零外部 DB</text>
<rect x="330" y="230" width="190" height="60" rx="10" fill="#121826" stroke="#34d399" stroke-width="1.4"  filter="url(#dsh)"/>
  <rect x="330" y="230" width="190" height="3" rx="1.5" fill="#34d399"/><rect x="490" y="236" width="24" height="15" rx="7" fill="#34d399" opacity="0.18"/><text x="510" y="247" font-size="8.5" fill="#34d399" text-anchor="end">文件</text>
  <text x="425" y="259" font-size="12" font-weight="700" fill="#e6edf6" text-anchor="middle">dataset/ 快照</text><text x="425" y="274" font-size="9.5" fill="#5b6b7f" text-anchor="middle">构建期装载</text>
<rect x="640" y="200" width="190" height="66" rx="10" fill="#121826" stroke="#38bdf8" stroke-width="1.4"  filter="url(#dsh)"/>
  <rect x="640" y="200" width="190" height="3" rx="1.5" fill="#38bdf8"/><rect x="793" y="206" width="31" height="15" rx="7" fill="#38bdf8" opacity="0.18"/><text x="820" y="217" font-size="8.5" fill="#38bdf8" text-anchor="end">客户端</text>
  <text x="735" y="232" font-size="12" font-weight="700" fill="#e6edf6" text-anchor="middle">浏览器</text><text x="735" y="247" font-size="9.5" fill="#5b6b7f" text-anchor="middle">#/case/NN</text>
<text x="24" y="406" font-size="10.5" fill="#5b6b7f">画的是约束表里那个真实、有预算的环境，不是 PPT 理想拓扑。生产可演进为 PG + 独立向量服务（见演进触发表）。</text>
</svg>