<svg xmlns="http://www.w3.org/2000/svg" viewBox="0 0 1110 300" font-family="PingFang SC,Microsoft YaHei,sans-serif">
  <defs>
    <linearGradient id="dbg" x1="0" y1="0" x2="1" y2="1"><stop offset="0" stop-color="#0a0e14"/><stop offset="1" stop-color="#0d1220"/></linearGradient>
    <linearGradient id="dac" x1="0" y1="0" x2="1" y2="0"><stop offset="0" stop-color="#22d3ee"/><stop offset="1" stop-color="#38bdf8"/></linearGradient>
    <pattern id="dgrid" width="30" height="30" patternUnits="userSpaceOnUse"><path d="M30 0H0V30" fill="none" stroke="#16202e" stroke-width="1"/></pattern>
    <filter id="dsh" x="-20%" y="-20%" width="140%" height="140%"><feDropShadow dx="0" dy="1.5" stdDeviation="2.5" flood-color="#000" flood-opacity="0.35"/></filter>
  </defs>
  <rect width="1110" height="300" fill="url(#dbg)"/><rect width="1110" height="300" fill="url(#dgrid)" opacity="0.35"/>
  <rect x="0" y="0" width="1110" height="44" fill="#121826" opacity="0.5"/>
  <rect x="24" y="13" width="4" height="19" rx="2" fill="url(#dac)"/>
  <text x="36" y="28" font-size="15" font-weight="750" fill="#e6edf6">§99 · 结课回顾：一条主线串起全书（一个操作模型·三个镜头）</text>
<line x1="190.0" y1="167.0" x2="208.0" y2="167.0" stroke="#38bdf8" stroke-width="1.6" /><path d="M208 167 L201.4 170.6 L201.4 163.4 z" fill="#38bdf8"/>
<line x1="368.0" y1="167.0" x2="386.0" y2="167.0" stroke="#38bdf8" stroke-width="1.6" /><path d="M386 167 L379.4 170.6 L379.4 163.4 z" fill="#38bdf8"/>
<line x1="546.0" y1="167.0" x2="564.0" y2="167.0" stroke="#38bdf8" stroke-width="1.6" /><path d="M564 167 L557.4 170.6 L557.4 163.4 z" fill="#38bdf8"/>
<line x1="724.0" y1="167.0" x2="742.0" y2="167.0" stroke="#38bdf8" stroke-width="1.6" /><path d="M742 167 L735.4 170.6 L735.4 163.4 z" fill="#38bdf8"/>
<line x1="902.0" y1="167.0" x2="920.0" y2="167.0" stroke="#38bdf8" stroke-width="1.6" /><path d="M920 167 L913.4 170.6 L913.4 163.4 z" fill="#38bdf8"/>
<rect x="30" y="130" width="160" height="74" rx="10" fill="#121826" stroke="#22d3ee" stroke-width="1.4"  filter="url(#dsh)"/>
  <rect x="30" y="130" width="160" height="3" rx="1.5" fill="#22d3ee"/><g transform="translate(39,139) scale(0.62)" fill="none" stroke="#22d3ee" stroke-width="2" stroke-linecap="round" stroke-linejoin="round" opacity="0.9"><circle cx="6" cy="19" r="3" />
  <path d="M9 19h8.5a3.5 3.5 0 0 0 0-7h-11a3.5 3.5 0 0 1 0-7H15" />
  <circle cx="18" cy="5" r="3" /></g>
  <text x="110" y="166" font-size="12" font-weight="700" fill="#e6edf6" text-anchor="middle">篇一 §1-§2</text><text x="110" y="181" font-size="9.5" fill="#5b6b7f" text-anchor="middle">转型与操作模型</text>
<rect x="208" y="130" width="160" height="74" rx="10" fill="#121826" stroke="#22d3ee" stroke-width="1.4"  filter="url(#dsh)"/>
  <rect x="208" y="130" width="160" height="3" rx="1.5" fill="#22d3ee"/><g transform="translate(217,139) scale(0.62)" fill="none" stroke="#22d3ee" stroke-width="2" stroke-linecap="round" stroke-linejoin="round" opacity="0.9"><circle cx="6" cy="19" r="3" />
  <path d="M9 19h8.5a3.5 3.5 0 0 0 0-7h-11a3.5 3.5 0 0 1 0-7H15" />
  <circle cx="18" cy="5" r="3" /></g>
  <text x="288" y="166" font-size="12" font-weight="700" fill="#e6edf6" text-anchor="middle">篇二 §3·§7-9</text><text x="288" y="181" font-size="9.5" fill="#5b6b7f" text-anchor="middle">架构设计知识体系</text>
<rect x="386" y="130" width="160" height="74" rx="10" fill="#121826" stroke="#22d3ee" stroke-width="1.4"  filter="url(#dsh)"/>
  <rect x="386" y="130" width="160" height="3" rx="1.5" fill="#22d3ee"/><g transform="translate(395,139) scale(0.62)" fill="none" stroke="#22d3ee" stroke-width="2" stroke-linecap="round" stroke-linejoin="round" opacity="0.9"><circle cx="6" cy="19" r="3" />
  <path d="M9 19h8.5a3.5 3.5 0 0 0 0-7h-11a3.5 3.5 0 0 1 0-7H15" />
  <circle cx="18" cy="5" r="3" /></g>
  <text x="466" y="166" font-size="12" font-weight="700" fill="#e6edf6" text-anchor="middle">篇三 §4-§6</text><text x="466" y="181" font-size="9.5" fill="#5b6b7f" text-anchor="middle">工程与交付</text>
<rect x="564" y="130" width="160" height="74" rx="10" fill="#121826" stroke="#22d3ee" stroke-width="1.4"  filter="url(#dsh)"/>
  <rect x="564" y="130" width="160" height="3" rx="1.5" fill="#22d3ee"/><g transform="translate(573,139) scale(0.62)" fill="none" stroke="#22d3ee" stroke-width="2" stroke-linecap="round" stroke-linejoin="round" opacity="0.9"><circle cx="6" cy="19" r="3" />
  <path d="M9 19h8.5a3.5 3.5 0 0 0 0-7h-11a3.5 3.5 0 0 1 0-7H15" />
  <circle cx="18" cy="5" r="3" /></g>
  <text x="644" y="166" font-size="12" font-weight="700" fill="#e6edf6" text-anchor="middle">篇四 §10</text><text x="644" y="181" font-size="9.5" fill="#5b6b7f" text-anchor="middle">架构师与AI协作</text>
<rect x="742" y="130" width="160" height="74" rx="10" fill="#121826" stroke="#22d3ee" stroke-width="1.4"  filter="url(#dsh)"/>
  <rect x="742" y="130" width="160" height="3" rx="1.5" fill="#22d3ee"/><g transform="translate(751,139) scale(0.62)" fill="none" stroke="#22d3ee" stroke-width="2" stroke-linecap="round" stroke-linejoin="round" opacity="0.9"><path d="M11.525 2.295a.53.53 0 0 1 .95 0l2.31 4.679a2.123 2.123 0 0 0 1.595 1.16l5.166.756a.53.53 0 0 1 .294.904l-3.736 3.638a2.123 2.123 0 0 0-.611 1.878l.882 5.14a.53.53 0 0 1-.771.56l-4.618-2.428a2.122 2.122 0 0 0-1.973 0L6.396 21.01a.53.53 0 0 1-.77-.56l.881-5.139a2.122 2.122 0 0 0-.611-1.879L2.16 9.795a.53.53 0 0 1 .294-.906l5.165-.755a2.122 2.122 0 0 0 1.597-1.16z" /></g>
  <text x="822" y="166" font-size="12" font-weight="700" fill="#e6edf6" text-anchor="middle">9 案例</text><text x="822" y="181" font-size="9.5" fill="#5b6b7f" text-anchor="middle">真数据·可运行</text>
<rect x="920" y="130" width="160" height="74" rx="10" fill="#121826" stroke="#34d399" stroke-width="1.4"  filter="url(#dsh)"/>
  <rect x="920" y="130" width="160" height="3" rx="1.5" fill="#34d399"/><g transform="translate(929,139) scale(0.62)" fill="none" stroke="#34d399" stroke-width="2" stroke-linecap="round" stroke-linejoin="round" opacity="0.9"><path d="M12 15v5s3.03-.55 4-2c1.08-1.62 0-5 0-5" />
  <path d="M4.5 16.5c-1.5 1.26-2 5-2 5s3.74-.5 5-2c.71-.84.7-2.13-.09-2.91a2.18 2.18 0 0 0-2.91-.09" />
  <path d="M9 12a22 22 0 0 1 2-3.95A12.88 12.88 0 0 1 22 2c0 2.72-.78 7.5-6 11a22.4 22.4 0 0 1-4 2z" />
  <path d="M9 12H4s.55-3.03 2-4c1.62-1.08 5 .05 5 .05" /></g>
  <text x="1000" y="166" font-size="12" font-weight="700" fill="#e6edf6" text-anchor="middle">你的项目</text><text x="1000" y="181" font-size="9.5" fill="#5b6b7f" text-anchor="middle">把方法用起来</text>
<text x="24" y="286" font-size="10.5" fill="#5b6b7f">四篇（转型与操作模型→架构→工程与交付→协作）→ 案例演示验证 → 你的项目；篇是主题分组，阅读按章号 §1→§10。</text>
</svg>