{"asset":{"version":"2.0","generator":"Course_AIProduct deterministic triangle fixture"},"scene":0,"scenes":[{"name":"FixtureScene","nodes":[0]}],"nodes":[{"name":"FixtureTriangle","mesh":0}],"meshes":[{"name":"DeterministicTriangle","primitives":[{"attributes":{"POSITION":0},"indices":1,"mode":4}]}],"buffers":[{"byteLength":44,"uri":"model.bin"}],"bufferViews":[{"buffer":0,"byteOffset":0,"byteLength":36,"target":34962},{"buffer":0,"byteOffset":36,"byteLength":6,"target":34963}],"accessors":[{"bufferView":0,"byteOffset":0,"componentType":5126,"count":3,"type":"VEC3","min":[0.0,0.0,0.0],"max":[1.0,1.0,0.0]},{"bufferView":1,"byteOffset":0,"componentType":5123,"count":3,"type":"SCALAR","min":[0],"max":[2]}]}
